#usda 1.0
(
    """
    Docs example: RigExecDynamicWeight.

    The joint holds a static 50-degree bend and nothing in the rig is
    animated except this weight: inputs:driver sweeps 0 -> 1 -> 0 into a
    painted ramp that covers only the outboard half of the strip.
    inputs:scale = 2 under a clamp range policy overdrives the paint, so
    the fully-followed front marches in from the tip to the
    three-quarter mark and back out, and the curl climbs inboard with
    it. The docs renderer paints the consumed field onto the strip --
    grey at weight 0, red at weight 1 -- so the field and the
    deformation it causes are the same picture.
    """
    defaultPrim = "DynWeightAsset"
    endTimeCode = 1012
    metersPerUnit = 0.01
    startTimeCode = 1001
    timeCodesPerSecond = 24
    upAxis = "Y"
)

def Xform "DynWeightAsset"
{
    def RigExecRoot "Rig"
    {
        uniform token rigExec:partition = "DynWeightAsset"

        def Scope "Controls"
        {
            def RigExecControl "Bend" (
                prepend apiSchemas = ["RigExecControlAPI", "NodeGraphNodeAPI"]
            )
            {
                double avars:rz = 50
                matrix4d rest:space = ( (1, 0, 0, 0), (0, 1, 0, 0), (0, 0, 1, 0), (0, 0, 0, 1) )
                uniform asset ui:nodegraph:node:icon = @../../icons/control.png@
            }
        }

        def Scope "Solvers"
        {
            def RigExecFkChain "Chain" (
                prepend apiSchemas = ["NodeGraphNodeAPI"]
            )
            {
                rel rigExec:controls = </DynWeightAsset/Rig/Controls/Bend>
                rel rigExec:joints = </DynWeightAsset/Rig/Joints/Jnt>
                uniform asset ui:nodegraph:node:icon = @../../icons/fk_chain.png@
            }
        }

        def Scope "Joints"
        {
            def RigExecJoint "Jnt" (
                prepend apiSchemas = ["NodeGraphNodeAPI"]
            )
            {
                matrix4d rest:space = ( (1, 0, 0, 0), (0, 1, 0, 0), (0, 0, 1, 0), (0, 0, 0, 1) )
                uniform asset ui:nodegraph:node:icon = @../../icons/joint.png@
            }
        }

        def Scope "Weights"
        {
            def RigExecStaticWeight "Paint" (
                prepend apiSchemas = ["NodeGraphNodeAPI"]
            )
            {
                uniform float rigExec:defaultWeight = 0
                uniform token rigExec:rangePolicy = "strict"
                uniform token rigExec:representation = "dense"
                uniform float[] rigExec:values = [0, 0, 0, 0, 0, 0, 0, 0, 0, 0.1429, 0.2857, 0.4286, 0.5714, 0.7143, 0.8571, 1, 0, 0, 0, 0, 0, 0, 0, 0, 0, 0.1429, 0.2857, 0.4286, 0.5714, 0.7143, 0.8571, 1, 0, 0, 0, 0, 0, 0, 0, 0, 0, 0.1429, 0.2857, 0.4286, 0.5714, 0.7143, 0.8571, 1, 0, 0, 0, 0, 0, 0, 0, 0, 0, 0.1429, 0.2857, 0.4286, 0.5714, 0.7143, 0.8571, 1]
                rel rigExec:weightTarget = </DynWeightAsset/Geom/Strip.points>
                uniform asset ui:nodegraph:node:icon = @../../icons/static_weight.png@
            }

            def RigExecDynamicWeight "KneeDriven" (
                prepend apiSchemas = ["NodeGraphNodeAPI"]
            )
            {
                float inputs:bias = 0
                float inputs:driver = 0
                float inputs:driver.spline = {
                    1001: 0; pre (0, 0); post linear,
                    1006: 1; post linear,
                    1012: 0; post linear,
                }
                float inputs:scale = 2
                rel rigExec:baseWeight = </DynWeightAsset/Rig/Weights/Paint>
                uniform token rigExec:operation = "multiply"
                uniform token rigExec:rangePolicy = "clamp"
                uniform token rigExec:representation = "dense"
                rel rigExec:weightTarget = </DynWeightAsset/Geom/Strip.points>
                uniform asset ui:nodegraph:node:icon = @../../icons/dynamic_weight.png@
            }
        }

        def Scope "Movers"
        {
            def Scope "Geometry"
            {
                def RigExecMatrixMover "Skin" (
                    prepend apiSchemas = ["RigExecMoverAPI", "NodeGraphNodeAPI"]
                )
                {
                    rel rigExec:moves = </DynWeightAsset/Geom/Strip.points>
                    rel rigExec:transform = </DynWeightAsset/Rig/Joints/Jnt>
                    uniform token rigExec:transformReadPhase = "final"
                    rel rigExec:weightObject = </DynWeightAsset/Rig/Weights/KneeDriven>
                    uniform asset ui:nodegraph:node:icon = @../../icons/matrix_mover.png@
                }
            }
        }
    }

    def Scope "Geom"
    {
        def Mesh "Strip"
        {
            color3f[] primvars:displayColor = [(0.55, 0.55, 0.55)]
            float3[] extent = [(0, 0, -0.75), (7.5, 0, 0.75)]
            int[] faceVertexCounts = [4, 4, 4, 4, 4, 4, 4, 4, 4, 4, 4, 4, 4, 4, 4, 4, 4, 4, 4, 4, 4, 4, 4, 4, 4, 4, 4, 4, 4, 4, 4, 4, 4, 4, 4, 4, 4, 4, 4, 4, 4, 4, 4, 4, 4]
            int[] faceVertexIndices = [0, 16, 17, 1, 1, 17, 18, 2, 2, 18, 19, 3, 3, 19, 20, 4, 4, 20, 21, 5, 5, 21, 22, 6, 6, 22, 23, 7, 7, 23, 24, 8, 8, 24, 25, 9, 9, 25, 26, 10, 10, 26, 27, 11, 11, 27, 28, 12, 12, 28, 29, 13, 13, 29, 30, 14, 14, 30, 31, 15, 16, 32, 33, 17, 17, 33, 34, 18, 18, 34, 35, 19, 19, 35, 36, 20, 20, 36, 37, 21, 21, 37, 38, 22, 22, 38, 39, 23, 23, 39, 40, 24, 24, 40, 41, 25, 25, 41, 42, 26, 26, 42, 43, 27, 27, 43, 44, 28, 28, 44, 45, 29, 29, 45, 46, 30, 30, 46, 47, 31, 32, 48, 49, 33, 33, 49, 50, 34, 34, 50, 51, 35, 35, 51, 52, 36, 36, 52, 53, 37, 37, 53, 54, 38, 38, 54, 55, 39, 39, 55, 56, 40, 40, 56, 57, 41, 41, 57, 58, 42, 42, 58, 59, 43, 43, 59, 60, 44, 44, 60, 61, 45, 45, 61, 62, 46, 46, 62, 63, 47]
            normal3f[] normals = [(0, 1, 0), (0, 1, 0), (0, 1, 0), (0, 1, 0), (0, 1, 0), (0, 1, 0), (0, 1, 0), (0, 1, 0), (0, 1, 0), (0, 1, 0), (0, 1, 0), (0, 1, 0), (0, 1, 0), (0, 1, 0), (0, 1, 0), (0, 1, 0), (0, 1, 0), (0, 1, 0), (0, 1, 0), (0, 1, 0), (0, 1, 0), (0, 1, 0), (0, 1, 0), (0, 1, 0), (0, 1, 0), (0, 1, 0), (0, 1, 0), (0, 1, 0), (0, 1, 0), (0, 1, 0), (0, 1, 0), (0, 1, 0), (0, 1, 0), (0, 1, 0), (0, 1, 0), (0, 1, 0), (0, 1, 0), (0, 1, 0), (0, 1, 0), (0, 1, 0), (0, 1, 0), (0, 1, 0), (0, 1, 0), (0, 1, 0), (0, 1, 0), (0, 1, 0), (0, 1, 0), (0, 1, 0), (0, 1, 0), (0, 1, 0), (0, 1, 0), (0, 1, 0), (0, 1, 0), (0, 1, 0), (0, 1, 0), (0, 1, 0), (0, 1, 0), (0, 1, 0), (0, 1, 0), (0, 1, 0), (0, 1, 0), (0, 1, 0), (0, 1, 0), (0, 1, 0)] (
                interpolation = "vertex"
            )
            point3f[] points = [(0, 0, -0.75), (0.5, 0, -0.75), (1, 0, -0.75), (1.5, 0, -0.75), (2, 0, -0.75), (2.5, 0, -0.75), (3, 0, -0.75), (3.5, 0, -0.75), (4, 0, -0.75), (4.5, 0, -0.75), (5, 0, -0.75), (5.5, 0, -0.75), (6, 0, -0.75), (6.5, 0, -0.75), (7, 0, -0.75), (7.5, 0, -0.75), (0, 0, -0.25), (0.5, 0, -0.25), (1, 0, -0.25), (1.5, 0, -0.25), (2, 0, -0.25), (2.5, 0, -0.25), (3, 0, -0.25), (3.5, 0, -0.25), (4, 0, -0.25), (4.5, 0, -0.25), (5, 0, -0.25), (5.5, 0, -0.25), (6, 0, -0.25), (6.5, 0, -0.25), (7, 0, -0.25), (7.5, 0, -0.25), (0, 0, 0.25), (0.5, 0, 0.25), (1, 0, 0.25), (1.5, 0, 0.25), (2, 0, 0.25), (2.5, 0, 0.25), (3, 0, 0.25), (3.5, 0, 0.25), (4, 0, 0.25), (4.5, 0, 0.25), (5, 0, 0.25), (5.5, 0, 0.25), (6, 0, 0.25), (6.5, 0, 0.25), (7, 0, 0.25), (7.5, 0, 0.25), (0, 0, 0.75), (0.5, 0, 0.75), (1, 0, 0.75), (1.5, 0, 0.75), (2, 0, 0.75), (2.5, 0, 0.75), (3, 0, 0.75), (3.5, 0, 0.75), (4, 0, 0.75), (4.5, 0, 0.75), (5, 0, 0.75), (5.5, 0, 0.75), (6, 0, 0.75), (6.5, 0, 0.75), (7, 0, 0.75), (7.5, 0, 0.75)]
            uniform token subdivisionScheme = "none"
        }
    }

    def Camera "MainCam"
    {
        float2 clippingRange = (0.2305, 195.5)
        float focalLength = 35
        float horizontalAperture = 20.95
        float verticalAperture = 11.79
        double3 xformOp:rotateXYZ = (-20, 32, 0)
        double3 xformOp:translate = (14.92, 10.12, 18)
        uniform token[] xformOpOrder = ["xformOp:translate", "xformOp:rotateXYZ"]
    }
}
