#usda 1.0
(
    """
    Docs example: RigExecSmoothMover.

    A 12x8 sheet is authored crumpled: a fine egg-crate quilt riding on a
    broad swell. The mover's envelope ramps 0 -> 1 -> 0, so one uniform
    Laplacian step irons the quilt out and lets it crumple back. The broad
    swell survives -- one iteration takes down the high frequency and
    leaves the low.
    """
    defaultPrim = "SmoothAsset"
    endTimeCode = 1018
    metersPerUnit = 0.01
    startTimeCode = 1001
    timeCodesPerSecond = 24
    upAxis = "Y"
)

def Xform "SmoothAsset"
{
    def RigExecRoot "Rig"
    {
        uniform token rigExec:partition = "SmoothAsset"

        def Scope "Joints"
        {
            def RigExecJoint "Anchor" (
                prepend apiSchemas = ["NodeGraphNodeAPI"]
            )
            {
                matrix4d rest:space = ( (1, 0, 0, 0), (0, 1, 0, 0), (0, 0, 1, 0), (-3, 0, -2, 1) )
                uniform asset ui:nodegraph:node:icon = @../../icons/joint.png@
            }
        }

        def Scope "Movers"
        {
            def Scope "Geometry"
            {
                def RigExecSmoothMover "Relax" (
                    prepend apiSchemas = ["RigExecMoverAPI", "NodeGraphNodeAPI"]
                )
                {
                    float inputs:defaultWeight = 0
                    float inputs:defaultWeight.spline = {
                        1001: 0; pre (0, 0); post linear,
                        1008: 1; post linear,
                        1011: 1; post linear,
                        1018: 0; post linear,
                    }
                    rel rigExec:moves = </SmoothAsset/Geom/Sheet.points>
                    uniform asset ui:nodegraph:node:icon = @../../icons/smooth_mover.png@
                }
            }
        }
    }

    def Scope "Geom"
    {
        def Mesh "Sheet"
        {
            color3f[] primvars:displayColor = [(0.75, 0.35, 0.9)]
            float3[] extent = [(-3, -0.4153, -2), (3, 0.7623, 2)]
            int[] faceVertexCounts = [4, 4, 4, 4, 4, 4, 4, 4, 4, 4, 4, 4, 4, 4, 4, 4, 4, 4, 4, 4, 4, 4, 4, 4, 4, 4, 4, 4, 4, 4, 4, 4, 4, 4, 4, 4, 4, 4, 4, 4, 4, 4, 4, 4, 4, 4, 4, 4, 4, 4, 4, 4, 4, 4, 4, 4, 4, 4, 4, 4, 4, 4, 4, 4, 4, 4, 4, 4, 4, 4, 4, 4, 4, 4, 4, 4, 4, 4, 4, 4, 4, 4, 4, 4, 4, 4, 4, 4, 4, 4, 4, 4, 4, 4, 4, 4]
            int[] faceVertexIndices = [0, 13, 14, 1, 1, 14, 15, 2, 2, 15, 16, 3, 3, 16, 17, 4, 4, 17, 18, 5, 5, 18, 19, 6, 6, 19, 20, 7, 7, 20, 21, 8, 8, 21, 22, 9, 9, 22, 23, 10, 10, 23, 24, 11, 11, 24, 25, 12, 13, 26, 27, 14, 14, 27, 28, 15, 15, 28, 29, 16, 16, 29, 30, 17, 17, 30, 31, 18, 18, 31, 32, 19, 19, 32, 33, 20, 20, 33, 34, 21, 21, 34, 35, 22, 22, 35, 36, 23, 23, 36, 37, 24, 24, 37, 38, 25, 26, 39, 40, 27, 27, 40, 41, 28, 28, 41, 42, 29, 29, 42, 43, 30, 30, 43, 44, 31, 31, 44, 45, 32, 32, 45, 46, 33, 33, 46, 47, 34, 34, 47, 48, 35, 35, 48, 49, 36, 36, 49, 50, 37, 37, 50, 51, 38, 39, 52, 53, 40, 40, 53, 54, 41, 41, 54, 55, 42, 42, 55, 56, 43, 43, 56, 57, 44, 44, 57, 58, 45, 45, 58, 59, 46, 46, 59, 60, 47, 47, 60, 61, 48, 48, 61, 62, 49, 49, 62, 63, 50, 50, 63, 64, 51, 52, 65, 66, 53, 53, 66, 67, 54, 54, 67, 68, 55, 55, 68, 69, 56, 56, 69, 70, 57, 57, 70, 71, 58, 58, 71, 72, 59, 59, 72, 73, 60, 60, 73, 74, 61, 61, 74, 75, 62, 62, 75, 76, 63, 63, 76, 77, 64, 65, 78, 79, 66, 66, 79, 80, 67, 67, 80, 81, 68, 68, 81, 82, 69, 69, 82, 83, 70, 70, 83, 84, 71, 71, 84, 85, 72, 72, 85, 86, 73, 73, 86, 87, 74, 74, 87, 88, 75, 75, 88, 89, 76, 76, 89, 90, 77, 78, 91, 92, 79, 79, 92, 93, 80, 80, 93, 94, 81, 81, 94, 95, 82, 82, 95, 96, 83, 83, 96, 97, 84, 84, 97, 98, 85, 85, 98, 99, 86, 86, 99, 100, 87, 87, 100, 101, 88, 88, 101, 102, 89, 89, 102, 103, 90, 91, 104, 105, 92, 92, 105, 106, 93, 93, 106, 107, 94, 94, 107, 108, 95, 95, 108, 109, 96, 96, 109, 110, 97, 97, 110, 111, 98, 98, 111, 112, 99, 99, 112, 113, 100, 100, 113, 114, 101, 101, 114, 115, 102, 102, 115, 116, 103]
            point3f[] points = [(-3, 0, -2), (-2.5, 0, -2), (-2, 0, -2), (-1.5, 0, -2), (-1, 0, -2), (-0.5, 0, -2), (0, 0, -2), (0.5, 0, -2), (1, 0, -2), (1.5, 0, -2), (2, 0, -2), (2.5, 0, -2), (3, 0, -2), (-3, 0, -1.5), (-2.5, 0.4847, -1.5), (-2, 0.067, -1.5), (-1.5, -0.3553, -1.5), (-1, 0.116, -1.5), (-0.5, 0.5794, -1.5), (0, 0.1339, -1.5), (0.5, -0.3206, -1.5), (1, 0.116, -1.5), (1.5, 0.5447, -1.5), (2, 0.067, -1.5), (2.5, -0.4153, -1.5), (3, 0, -1.5), (-3, 0, -1), (-2.5, 0.0641, -1), (-2, 0.1237, -1), (-1.5, 0.175, -1), (-1, 0.2143, -1), (-0.5, 0.2391, -1), (0, 0.2475, -1), (0.5, 0.2391, -1), (1, 0.2143, -1), (1.5, 0.175, -1), (2, 0.1237, -1), (2.5, 0.0641, -1), (3, 0, -1), (-3, 0, -0.5), (-2.5, -0.3663, -0.5), (-2, 0.1617, -0.5), (-1.5, 0.6786, -0.5), (-1, 0.28, -0.5), (-0.5, -0.1377, -0.5), (0, 0.3234, -0.5), (0.5, 0.7623, -0.5), (1, 0.28, -0.5), (1.5, -0.2214, -0.5), (2, 0.1617, -0.5), (2.5, 0.5337, -0.5), (3, 0, -0.5), (-3, 0, 0), (-2.5, 0.0906, 0), (-2, 0.175, 0), (-1.5, 0.2475, 0), (-1, 0.3031, 0), (-0.5, 0.3381, 0), (0, 0.35, 0), (0.5, 0.3381, 0), (1, 0.3031, 0), (1.5, 0.2475, 0), (2, 0.175, 0), (2.5, 0.0906, 0), (3, 0, 0), (-3, 0, 0.5), (-2.5, 0.5337, 0.5), (-2, 0.1617, 0.5), (-1.5, -0.2214, 0.5), (-1, 0.28, 0.5), (-0.5, 0.7623, 0.5), (0, 0.3234, 0.5), (0.5, -0.1377, 0.5), (1, 0.28, 0.5), (1.5, 0.6786, 0.5), (2, 0.1617, 0.5), (2.5, -0.3663, 0.5), (3, 0, 0.5), (-3, 0, 1), (-2.5, 0.0641, 1), (-2, 0.1237, 1), (-1.5, 0.175, 1), (-1, 0.2143, 1), (-0.5, 0.2391, 1), (0, 0.2475, 1), (0.5, 0.2391, 1), (1, 0.2143, 1), (1.5, 0.175, 1), (2, 0.1237, 1), (2.5, 0.0641, 1), (3, 0, 1), (-3, 0, 1.5), (-2.5, -0.4153, 1.5), (-2, 0.067, 1.5), (-1.5, 0.5447, 1.5), (-1, 0.116, 1.5), (-0.5, -0.3206, 1.5), (0, 0.1339, 1.5), (0.5, 0.5794, 1.5), (1, 0.116, 1.5), (1.5, -0.3553, 1.5), (2, 0.067, 1.5), (2.5, 0.4847, 1.5), (3, 0, 1.5), (-3, 0, 2), (-2.5, 0, 2), (-2, 0, 2), (-1.5, 0, 2), (-1, 0, 2), (-0.5, 0, 2), (0, 0, 2), (0.5, 0, 2), (1, 0, 2), (1.5, 0, 2), (2, 0, 2), (2.5, 0, 2), (3, 0, 2)]
            uniform token subdivisionScheme = "none"
        }
    }

    def Camera "MainCam"
    {
        float2 clippingRange = (0.1615, 141.7)
        float focalLength = 35
        float horizontalAperture = 20.95
        float verticalAperture = 11.79
        double3 xformOp:rotateXYZ = (-20, 32, 0)
        double3 xformOp:translate = (7.992, 5.606, 12.79)
        uniform token[] xformOpOrder = ["xformOp:translate", "xformOp:rotateXYZ"]
    }
}
