#usda 1.0
(
    """
    Docs example: RigExecSphereWeight.

    A 24 x 14 quad plank is lifted by a single matrix mover whose joint
    holds a static one-unit rise. Nothing about that lift animates: the
    only spline in the file slides the Probe control along the plank, and
    the sphere volume authored INSIDE the probe joint rides it with no
    wiring at all, so the region the mover grabs travels and a bump walks
    back and forth. The plank is wider than the volume and the travel is
    short enough that the ball never reaches an end, so the field stays a
    complete disc of red ringed by grey at every frame.

    inputs:falloffMin is the distance at which the field is fully ON and
    inputs:falloffMax the distance at which it is fully OFF, so for a
    sphere they read directly as the inner and outer radii -- 0.6 and 1.6
    here, drawn as the two concentric red wire rings. Turn on
    Display -> Display Purposes -> Guide to see the two iso-surfaces.
    """
    defaultPrim = "SphereWeightAsset"
    endTimeCode = 1024
    metersPerUnit = 0.01
    startTimeCode = 1001
    timeCodesPerSecond = 24
    upAxis = "Y"
)

def Xform "SphereWeightAsset"
{
    def RigExecRoot "Rig"
    {
        uniform token rigExec:partition = "SphereWeightAsset"

        def Scope "Controls"
        {
            def RigExecControl "Probe" (
                prepend apiSchemas = ["RigExecControlAPI", "NodeGraphNodeAPI"]
            )
            {
                double avars:tx = 0
                double avars:tx.spline = {
                    1001: 0; pre (0, 0); post linear,
                    1012: 2.5; post linear,
                    1024: 0; post linear,
                }
                matrix4d rest:space = ( (1, 0, 0, 0), (0, 1, 0, 0), (0, 0, 1, 0), (1.75, 0, 0, 1) )
                uniform token guide:shape = "sphere"
                uniform asset ui:nodegraph:node:icon = @../../icons/control.png@
            }
        }

        def Scope "Solvers"
        {
            def RigExecFkChain "ProbeChain" (
                prepend apiSchemas = ["NodeGraphNodeAPI"]
            )
            {
                rel rigExec:controls = </SphereWeightAsset/Rig/Controls/Probe>
                rel rigExec:joints = </SphereWeightAsset/Rig/Joints/ProbeJnt>
                uniform asset ui:nodegraph:node:icon = @../../icons/fk_chain.png@
            }
        }

        def Scope "Joints"
        {
            # The travelling probe. Its only job is to carry the volume.
            def RigExecJoint "ProbeJnt" (
                prepend apiSchemas = ["NodeGraphNodeAPI"]
            )
            {
                matrix4d rest:space = ( (1, 0, 0, 0), (0, 1, 0, 0), (0, 0, 1, 0), (1.75, 0, 0, 1) )
                uniform asset ui:nodegraph:node:icon = @../../icons/joint.png@

                # Authored INSIDE the joint, with nothing wired: an
                # unwired RigExecXformable follows its namespace-parent
                # xformable's posed space, and a volume weight is one.
                # That is the whole reason RigExecVolumeWeight inherits
                # the xformable side rather than RigExecWeightObject.
                #
                # The field is radial about this placed origin: for every
                # plank point, d = |(px/sx, py/sy, pz/sz)| in the rigid
                # volume-local frame, remapped across
                # falloffMin -> falloffMax by the `linear` profile.
                def RigExecSphereWeight "Ball" (
                    prepend apiSchemas = ["NodeGraphNodeAPI"]
                )
                {
                    rel rigExec:weightTarget = </SphereWeightAsset/Geom/Plank.points>
                    uniform token rigExec:representation = "dense"
                    uniform token rigExec:rangePolicy = "clamp"
                    uniform token rigExec:falloffProfile = "linear"
                    uniform token rigExec:samplePhase = "reference"
                    float inputs:falloffMin = 0.6
                    float inputs:falloffMax = 1.6
                    float inputs:invert = 0
                    float inputs:strength = 1
                    # A true sphere: these divisors are what would make
                    # the iso-surfaces ellipsoidal, and together with the
                    # band they are the only authority on the volume's
                    # size -- a scale in the transform is orthonormalized
                    # away before the field is built.
                    float inputs:scaleX = 1
                    float inputs:scaleY = 1
                    float inputs:scaleZ = 1
                    uniform token guide:drawMode = "wire"
                    double guide:wireWidth = 0.03
                    color3f guide:displayColor = (1, 0.2, 0.2)
                    uniform asset ui:nodegraph:node:icon = @../../icons/sphere_weight.png@
                }
            }

            # The deformation itself, held still on purpose: a one-unit
            # rise that the sphere's field gates per point.
            def RigExecJoint "Lift" (
                prepend apiSchemas = ["NodeGraphNodeAPI"]
            )
            {
                double avars:ty = 1
                matrix4d rest:space = ( (1, 0, 0, 0), (0, 1, 0, 0), (0, 0, 1, 0), (0, 0, 0, 1) )
                uniform asset ui:nodegraph:node:icon = @../../icons/joint.png@
            }
        }

        def Scope "Movers"
        {
            def Scope "Geometry"
            {
                def RigExecMatrixMover "Skin" (
                    prepend apiSchemas = ["RigExecMoverAPI", "NodeGraphNodeAPI"]
                )
                {
                    rel rigExec:moves = </SphereWeightAsset/Geom/Plank.points>
                    rel rigExec:transform = </SphereWeightAsset/Rig/Joints/Lift>
                    uniform token rigExec:transformReadPhase = "final"
                    rel rigExec:weightObject = </SphereWeightAsset/Rig/Joints/ProbeJnt/Ball>
                    uniform asset ui:nodegraph:node:icon = @../../icons/matrix_mover.png@
                }
            }
        }
    }

    def Scope "Geom"
    {
        def Mesh "Plank"
        {
            color3f[] primvars:displayColor = [(0.45, 0.6, 0.8)]
            float3[] extent = [(0, 0, -1.75), (6, 1, 1.75)]
            int[] faceVertexCounts = [
                4, 4, 4, 4, 4, 4, 4, 4, 4, 4, 4, 4, 4, 4, 4, 4, 4, 4, 4, 4, 4, 4, 4, 4, 4, 4, 4, 4, 4, 4, 4, 4, 4, 4, 4, 4, 4, 4, 4, 4,
                4, 4, 4, 4, 4, 4, 4, 4, 4, 4, 4, 4, 4, 4, 4, 4, 4, 4, 4, 4, 4, 4, 4, 4, 4, 4, 4, 4, 4, 4, 4, 4, 4, 4, 4, 4, 4, 4, 4, 4,
                4, 4, 4, 4, 4, 4, 4, 4, 4, 4, 4, 4, 4, 4, 4, 4, 4, 4, 4, 4, 4, 4, 4, 4, 4, 4, 4, 4, 4, 4, 4, 4, 4, 4, 4, 4, 4, 4, 4, 4,
                4, 4, 4, 4, 4, 4, 4, 4, 4, 4, 4, 4, 4, 4, 4, 4, 4, 4, 4, 4, 4, 4, 4, 4, 4, 4, 4, 4, 4, 4, 4, 4, 4, 4, 4, 4, 4, 4, 4, 4,
                4, 4, 4, 4, 4, 4, 4, 4, 4, 4, 4, 4, 4, 4, 4, 4, 4, 4, 4, 4, 4, 4, 4, 4, 4, 4, 4, 4, 4, 4, 4, 4, 4, 4, 4, 4, 4, 4, 4, 4,
                4, 4, 4, 4, 4, 4, 4, 4, 4, 4, 4, 4, 4, 4, 4, 4, 4, 4, 4, 4, 4, 4, 4, 4, 4, 4, 4, 4, 4, 4, 4, 4, 4, 4, 4, 4, 4, 4, 4, 4,
                4, 4, 4, 4, 4, 4, 4, 4, 4, 4, 4, 4, 4, 4, 4, 4, 4, 4, 4, 4, 4, 4, 4, 4, 4, 4, 4, 4, 4, 4, 4, 4, 4, 4, 4, 4, 4, 4, 4, 4,
                4, 4, 4, 4, 4, 4, 4, 4, 4, 4, 4, 4, 4, 4, 4, 4, 4, 4, 4, 4, 4, 4, 4, 4, 4, 4, 4, 4, 4, 4, 4, 4, 4, 4, 4, 4, 4, 4, 4, 4,
                4, 4, 4, 4, 4, 4, 4, 4, 4, 4, 4, 4, 4, 4, 4, 4
            ]
            int[] faceVertexIndices = [
                0, 25, 26, 1, 1, 26, 27, 2, 2, 27, 28, 3, 3, 28, 29, 4, 4, 29, 30, 5, 5, 30, 31, 6,
                6, 31, 32, 7, 7, 32, 33, 8, 8, 33, 34, 9, 9, 34, 35, 10, 10, 35, 36, 11, 11, 36, 37, 12,
                12, 37, 38, 13, 13, 38, 39, 14, 14, 39, 40, 15, 15, 40, 41, 16, 16, 41, 42, 17, 17, 42, 43, 18,
                18, 43, 44, 19, 19, 44, 45, 20, 20, 45, 46, 21, 21, 46, 47, 22, 22, 47, 48, 23, 23, 48, 49, 24,
                25, 50, 51, 26, 26, 51, 52, 27, 27, 52, 53, 28, 28, 53, 54, 29, 29, 54, 55, 30, 30, 55, 56, 31,
                31, 56, 57, 32, 32, 57, 58, 33, 33, 58, 59, 34, 34, 59, 60, 35, 35, 60, 61, 36, 36, 61, 62, 37,
                37, 62, 63, 38, 38, 63, 64, 39, 39, 64, 65, 40, 40, 65, 66, 41, 41, 66, 67, 42, 42, 67, 68, 43,
                43, 68, 69, 44, 44, 69, 70, 45, 45, 70, 71, 46, 46, 71, 72, 47, 47, 72, 73, 48, 48, 73, 74, 49,
                50, 75, 76, 51, 51, 76, 77, 52, 52, 77, 78, 53, 53, 78, 79, 54, 54, 79, 80, 55, 55, 80, 81, 56,
                56, 81, 82, 57, 57, 82, 83, 58, 58, 83, 84, 59, 59, 84, 85, 60, 60, 85, 86, 61, 61, 86, 87, 62,
                62, 87, 88, 63, 63, 88, 89, 64, 64, 89, 90, 65, 65, 90, 91, 66, 66, 91, 92, 67, 67, 92, 93, 68,
                68, 93, 94, 69, 69, 94, 95, 70, 70, 95, 96, 71, 71, 96, 97, 72, 72, 97, 98, 73, 73, 98, 99, 74,
                75, 100, 101, 76, 76, 101, 102, 77, 77, 102, 103, 78, 78, 103, 104, 79, 79, 104, 105, 80, 80, 105, 106, 81,
                81, 106, 107, 82, 82, 107, 108, 83, 83, 108, 109, 84, 84, 109, 110, 85, 85, 110, 111, 86, 86, 111, 112, 87,
                87, 112, 113, 88, 88, 113, 114, 89, 89, 114, 115, 90, 90, 115, 116, 91, 91, 116, 117, 92, 92, 117, 118, 93,
                93, 118, 119, 94, 94, 119, 120, 95, 95, 120, 121, 96, 96, 121, 122, 97, 97, 122, 123, 98, 98, 123, 124, 99,
                100, 125, 126, 101, 101, 126, 127, 102, 102, 127, 128, 103, 103, 128, 129, 104, 104, 129, 130, 105, 105, 130, 131, 106,
                106, 131, 132, 107, 107, 132, 133, 108, 108, 133, 134, 109, 109, 134, 135, 110, 110, 135, 136, 111, 111, 136, 137, 112,
                112, 137, 138, 113, 113, 138, 139, 114, 114, 139, 140, 115, 115, 140, 141, 116, 116, 141, 142, 117, 117, 142, 143, 118,
                118, 143, 144, 119, 119, 144, 145, 120, 120, 145, 146, 121, 121, 146, 147, 122, 122, 147, 148, 123, 123, 148, 149, 124,
                125, 150, 151, 126, 126, 151, 152, 127, 127, 152, 153, 128, 128, 153, 154, 129, 129, 154, 155, 130, 130, 155, 156, 131,
                131, 156, 157, 132, 132, 157, 158, 133, 133, 158, 159, 134, 134, 159, 160, 135, 135, 160, 161, 136, 136, 161, 162, 137,
                137, 162, 163, 138, 138, 163, 164, 139, 139, 164, 165, 140, 140, 165, 166, 141, 141, 166, 167, 142, 142, 167, 168, 143,
                143, 168, 169, 144, 144, 169, 170, 145, 145, 170, 171, 146, 146, 171, 172, 147, 147, 172, 173, 148, 148, 173, 174, 149,
                150, 175, 176, 151, 151, 176, 177, 152, 152, 177, 178, 153, 153, 178, 179, 154, 154, 179, 180, 155, 155, 180, 181, 156,
                156, 181, 182, 157, 157, 182, 183, 158, 158, 183, 184, 159, 159, 184, 185, 160, 160, 185, 186, 161, 161, 186, 187, 162,
                162, 187, 188, 163, 163, 188, 189, 164, 164, 189, 190, 165, 165, 190, 191, 166, 166, 191, 192, 167, 167, 192, 193, 168,
                168, 193, 194, 169, 169, 194, 195, 170, 170, 195, 196, 171, 171, 196, 197, 172, 172, 197, 198, 173, 173, 198, 199, 174,
                175, 200, 201, 176, 176, 201, 202, 177, 177, 202, 203, 178, 178, 203, 204, 179, 179, 204, 205, 180, 180, 205, 206, 181,
                181, 206, 207, 182, 182, 207, 208, 183, 183, 208, 209, 184, 184, 209, 210, 185, 185, 210, 211, 186, 186, 211, 212, 187,
                187, 212, 213, 188, 188, 213, 214, 189, 189, 214, 215, 190, 190, 215, 216, 191, 191, 216, 217, 192, 192, 217, 218, 193,
                193, 218, 219, 194, 194, 219, 220, 195, 195, 220, 221, 196, 196, 221, 222, 197, 197, 222, 223, 198, 198, 223, 224, 199,
                200, 225, 226, 201, 201, 226, 227, 202, 202, 227, 228, 203, 203, 228, 229, 204, 204, 229, 230, 205, 205, 230, 231, 206,
                206, 231, 232, 207, 207, 232, 233, 208, 208, 233, 234, 209, 209, 234, 235, 210, 210, 235, 236, 211, 211, 236, 237, 212,
                212, 237, 238, 213, 213, 238, 239, 214, 214, 239, 240, 215, 215, 240, 241, 216, 216, 241, 242, 217, 217, 242, 243, 218,
                218, 243, 244, 219, 219, 244, 245, 220, 220, 245, 246, 221, 221, 246, 247, 222, 222, 247, 248, 223, 223, 248, 249, 224,
                225, 250, 251, 226, 226, 251, 252, 227, 227, 252, 253, 228, 228, 253, 254, 229, 229, 254, 255, 230, 230, 255, 256, 231,
                231, 256, 257, 232, 232, 257, 258, 233, 233, 258, 259, 234, 234, 259, 260, 235, 235, 260, 261, 236, 236, 261, 262, 237,
                237, 262, 263, 238, 238, 263, 264, 239, 239, 264, 265, 240, 240, 265, 266, 241, 241, 266, 267, 242, 242, 267, 268, 243,
                243, 268, 269, 244, 244, 269, 270, 245, 245, 270, 271, 246, 246, 271, 272, 247, 247, 272, 273, 248, 248, 273, 274, 249,
                250, 275, 276, 251, 251, 276, 277, 252, 252, 277, 278, 253, 253, 278, 279, 254, 254, 279, 280, 255, 255, 280, 281, 256,
                256, 281, 282, 257, 257, 282, 283, 258, 258, 283, 284, 259, 259, 284, 285, 260, 260, 285, 286, 261, 261, 286, 287, 262,
                262, 287, 288, 263, 263, 288, 289, 264, 264, 289, 290, 265, 265, 290, 291, 266, 266, 291, 292, 267, 267, 292, 293, 268,
                268, 293, 294, 269, 269, 294, 295, 270, 270, 295, 296, 271, 271, 296, 297, 272, 272, 297, 298, 273, 273, 298, 299, 274,
                275, 300, 301, 276, 276, 301, 302, 277, 277, 302, 303, 278, 278, 303, 304, 279, 279, 304, 305, 280, 280, 305, 306, 281,
                281, 306, 307, 282, 282, 307, 308, 283, 283, 308, 309, 284, 284, 309, 310, 285, 285, 310, 311, 286, 286, 311, 312, 287,
                287, 312, 313, 288, 288, 313, 314, 289, 289, 314, 315, 290, 290, 315, 316, 291, 291, 316, 317, 292, 292, 317, 318, 293,
                293, 318, 319, 294, 294, 319, 320, 295, 295, 320, 321, 296, 296, 321, 322, 297, 297, 322, 323, 298, 298, 323, 324, 299,
                300, 325, 326, 301, 301, 326, 327, 302, 302, 327, 328, 303, 303, 328, 329, 304, 304, 329, 330, 305, 305, 330, 331, 306,
                306, 331, 332, 307, 307, 332, 333, 308, 308, 333, 334, 309, 309, 334, 335, 310, 310, 335, 336, 311, 311, 336, 337, 312,
                312, 337, 338, 313, 313, 338, 339, 314, 314, 339, 340, 315, 315, 340, 341, 316, 316, 341, 342, 317, 317, 342, 343, 318,
                318, 343, 344, 319, 319, 344, 345, 320, 320, 345, 346, 321, 321, 346, 347, 322, 322, 347, 348, 323, 323, 348, 349, 324,
                325, 350, 351, 326, 326, 351, 352, 327, 327, 352, 353, 328, 328, 353, 354, 329, 329, 354, 355, 330, 330, 355, 356, 331,
                331, 356, 357, 332, 332, 357, 358, 333, 333, 358, 359, 334, 334, 359, 360, 335, 335, 360, 361, 336, 336, 361, 362, 337,
                337, 362, 363, 338, 338, 363, 364, 339, 339, 364, 365, 340, 340, 365, 366, 341, 341, 366, 367, 342, 342, 367, 368, 343,
                343, 368, 369, 344, 344, 369, 370, 345, 345, 370, 371, 346, 346, 371, 372, 347, 347, 372, 373, 348, 348, 373, 374, 349
            ]
            point3f[] points = [
                (0, 0, -1.75), (0.25, 0, -1.75), (0.5, 0, -1.75), (0.75, 0, -1.75), (1, 0, -1.75), (1.25, 0, -1.75),
                (1.5, 0, -1.75), (1.75, 0, -1.75), (2, 0, -1.75), (2.25, 0, -1.75), (2.5, 0, -1.75), (2.75, 0, -1.75),
                (3, 0, -1.75), (3.25, 0, -1.75), (3.5, 0, -1.75), (3.75, 0, -1.75), (4, 0, -1.75), (4.25, 0, -1.75),
                (4.5, 0, -1.75), (4.75, 0, -1.75), (5, 0, -1.75), (5.25, 0, -1.75), (5.5, 0, -1.75), (5.75, 0, -1.75),
                (6, 0, -1.75), (0, 0, -1.5), (0.25, 0, -1.5), (0.5, 0, -1.5), (0.75, 0, -1.5), (1, 0, -1.5),
                (1.25, 0, -1.5), (1.5, 0, -1.5), (1.75, 0, -1.5), (2, 0, -1.5), (2.25, 0, -1.5), (2.5, 0, -1.5),
                (2.75, 0, -1.5), (3, 0, -1.5), (3.25, 0, -1.5), (3.5, 0, -1.5), (3.75, 0, -1.5), (4, 0, -1.5),
                (4.25, 0, -1.5), (4.5, 0, -1.5), (4.75, 0, -1.5), (5, 0, -1.5), (5.25, 0, -1.5), (5.5, 0, -1.5),
                (5.75, 0, -1.5), (6, 0, -1.5), (0, 0, -1.25), (0.25, 0, -1.25), (0.5, 0, -1.25), (0.75, 0, -1.25),
                (1, 0, -1.25), (1.25, 0, -1.25), (1.5, 0, -1.25), (1.75, 0, -1.25), (2, 0, -1.25), (2.25, 0, -1.25),
                (2.5, 0, -1.25), (2.75, 0, -1.25), (3, 0, -1.25), (3.25, 0, -1.25), (3.5, 0, -1.25), (3.75, 0, -1.25),
                (4, 0, -1.25), (4.25, 0, -1.25), (4.5, 0, -1.25), (4.75, 0, -1.25), (5, 0, -1.25), (5.25, 0, -1.25),
                (5.5, 0, -1.25), (5.75, 0, -1.25), (6, 0, -1.25), (0, 0, -1), (0.25, 0, -1), (0.5, 0, -1),
                (0.75, 0, -1), (1, 0, -1), (1.25, 0, -1), (1.5, 0, -1), (1.75, 0, -1), (2, 0, -1),
                (2.25, 0, -1), (2.5, 0, -1), (2.75, 0, -1), (3, 0, -1), (3.25, 0, -1), (3.5, 0, -1),
                (3.75, 0, -1), (4, 0, -1), (4.25, 0, -1), (4.5, 0, -1), (4.75, 0, -1), (5, 0, -1),
                (5.25, 0, -1), (5.5, 0, -1), (5.75, 0, -1), (6, 0, -1), (0, 0, -0.75), (0.25, 0, -0.75),
                (0.5, 0, -0.75), (0.75, 0, -0.75), (1, 0, -0.75), (1.25, 0, -0.75), (1.5, 0, -0.75), (1.75, 0, -0.75),
                (2, 0, -0.75), (2.25, 0, -0.75), (2.5, 0, -0.75), (2.75, 0, -0.75), (3, 0, -0.75), (3.25, 0, -0.75),
                (3.5, 0, -0.75), (3.75, 0, -0.75), (4, 0, -0.75), (4.25, 0, -0.75), (4.5, 0, -0.75), (4.75, 0, -0.75),
                (5, 0, -0.75), (5.25, 0, -0.75), (5.5, 0, -0.75), (5.75, 0, -0.75), (6, 0, -0.75), (0, 0, -0.5),
                (0.25, 0, -0.5), (0.5, 0, -0.5), (0.75, 0, -0.5), (1, 0, -0.5), (1.25, 0, -0.5), (1.5, 0, -0.5),
                (1.75, 0, -0.5), (2, 0, -0.5), (2.25, 0, -0.5), (2.5, 0, -0.5), (2.75, 0, -0.5), (3, 0, -0.5),
                (3.25, 0, -0.5), (3.5, 0, -0.5), (3.75, 0, -0.5), (4, 0, -0.5), (4.25, 0, -0.5), (4.5, 0, -0.5),
                (4.75, 0, -0.5), (5, 0, -0.5), (5.25, 0, -0.5), (5.5, 0, -0.5), (5.75, 0, -0.5), (6, 0, -0.5),
                (0, 0, -0.25), (0.25, 0, -0.25), (0.5, 0, -0.25), (0.75, 0, -0.25), (1, 0, -0.25), (1.25, 0, -0.25),
                (1.5, 0, -0.25), (1.75, 0, -0.25), (2, 0, -0.25), (2.25, 0, -0.25), (2.5, 0, -0.25), (2.75, 0, -0.25),
                (3, 0, -0.25), (3.25, 0, -0.25), (3.5, 0, -0.25), (3.75, 0, -0.25), (4, 0, -0.25), (4.25, 0, -0.25),
                (4.5, 0, -0.25), (4.75, 0, -0.25), (5, 0, -0.25), (5.25, 0, -0.25), (5.5, 0, -0.25), (5.75, 0, -0.25),
                (6, 0, -0.25), (0, 0, 0), (0.25, 0, 0), (0.5, 0, 0), (0.75, 0, 0), (1, 0, 0),
                (1.25, 0, 0), (1.5, 0, 0), (1.75, 0, 0), (2, 0, 0), (2.25, 0, 0), (2.5, 0, 0),
                (2.75, 0, 0), (3, 0, 0), (3.25, 0, 0), (3.5, 0, 0), (3.75, 0, 0), (4, 0, 0),
                (4.25, 0, 0), (4.5, 0, 0), (4.75, 0, 0), (5, 0, 0), (5.25, 0, 0), (5.5, 0, 0),
                (5.75, 0, 0), (6, 0, 0), (0, 0, 0.25), (0.25, 0, 0.25), (0.5, 0, 0.25), (0.75, 0, 0.25),
                (1, 0, 0.25), (1.25, 0, 0.25), (1.5, 0, 0.25), (1.75, 0, 0.25), (2, 0, 0.25), (2.25, 0, 0.25),
                (2.5, 0, 0.25), (2.75, 0, 0.25), (3, 0, 0.25), (3.25, 0, 0.25), (3.5, 0, 0.25), (3.75, 0, 0.25),
                (4, 0, 0.25), (4.25, 0, 0.25), (4.5, 0, 0.25), (4.75, 0, 0.25), (5, 0, 0.25), (5.25, 0, 0.25),
                (5.5, 0, 0.25), (5.75, 0, 0.25), (6, 0, 0.25), (0, 0, 0.5), (0.25, 0, 0.5), (0.5, 0, 0.5),
                (0.75, 0, 0.5), (1, 0, 0.5), (1.25, 0, 0.5), (1.5, 0, 0.5), (1.75, 0, 0.5), (2, 0, 0.5),
                (2.25, 0, 0.5), (2.5, 0, 0.5), (2.75, 0, 0.5), (3, 0, 0.5), (3.25, 0, 0.5), (3.5, 0, 0.5),
                (3.75, 0, 0.5), (4, 0, 0.5), (4.25, 0, 0.5), (4.5, 0, 0.5), (4.75, 0, 0.5), (5, 0, 0.5),
                (5.25, 0, 0.5), (5.5, 0, 0.5), (5.75, 0, 0.5), (6, 0, 0.5), (0, 0, 0.75), (0.25, 0, 0.75),
                (0.5, 0, 0.75), (0.75, 0, 0.75), (1, 0, 0.75), (1.25, 0, 0.75), (1.5, 0, 0.75), (1.75, 0, 0.75),
                (2, 0, 0.75), (2.25, 0, 0.75), (2.5, 0, 0.75), (2.75, 0, 0.75), (3, 0, 0.75), (3.25, 0, 0.75),
                (3.5, 0, 0.75), (3.75, 0, 0.75), (4, 0, 0.75), (4.25, 0, 0.75), (4.5, 0, 0.75), (4.75, 0, 0.75),
                (5, 0, 0.75), (5.25, 0, 0.75), (5.5, 0, 0.75), (5.75, 0, 0.75), (6, 0, 0.75), (0, 0, 1),
                (0.25, 0, 1), (0.5, 0, 1), (0.75, 0, 1), (1, 0, 1), (1.25, 0, 1), (1.5, 0, 1),
                (1.75, 0, 1), (2, 0, 1), (2.25, 0, 1), (2.5, 0, 1), (2.75, 0, 1), (3, 0, 1),
                (3.25, 0, 1), (3.5, 0, 1), (3.75, 0, 1), (4, 0, 1), (4.25, 0, 1), (4.5, 0, 1),
                (4.75, 0, 1), (5, 0, 1), (5.25, 0, 1), (5.5, 0, 1), (5.75, 0, 1), (6, 0, 1),
                (0, 0, 1.25), (0.25, 0, 1.25), (0.5, 0, 1.25), (0.75, 0, 1.25), (1, 0, 1.25), (1.25, 0, 1.25),
                (1.5, 0, 1.25), (1.75, 0, 1.25), (2, 0, 1.25), (2.25, 0, 1.25), (2.5, 0, 1.25), (2.75, 0, 1.25),
                (3, 0, 1.25), (3.25, 0, 1.25), (3.5, 0, 1.25), (3.75, 0, 1.25), (4, 0, 1.25), (4.25, 0, 1.25),
                (4.5, 0, 1.25), (4.75, 0, 1.25), (5, 0, 1.25), (5.25, 0, 1.25), (5.5, 0, 1.25), (5.75, 0, 1.25),
                (6, 0, 1.25), (0, 0, 1.5), (0.25, 0, 1.5), (0.5, 0, 1.5), (0.75, 0, 1.5), (1, 0, 1.5),
                (1.25, 0, 1.5), (1.5, 0, 1.5), (1.75, 0, 1.5), (2, 0, 1.5), (2.25, 0, 1.5), (2.5, 0, 1.5),
                (2.75, 0, 1.5), (3, 0, 1.5), (3.25, 0, 1.5), (3.5, 0, 1.5), (3.75, 0, 1.5), (4, 0, 1.5),
                (4.25, 0, 1.5), (4.5, 0, 1.5), (4.75, 0, 1.5), (5, 0, 1.5), (5.25, 0, 1.5), (5.5, 0, 1.5),
                (5.75, 0, 1.5), (6, 0, 1.5), (0, 0, 1.75), (0.25, 0, 1.75), (0.5, 0, 1.75), (0.75, 0, 1.75),
                (1, 0, 1.75), (1.25, 0, 1.75), (1.5, 0, 1.75), (1.75, 0, 1.75), (2, 0, 1.75), (2.25, 0, 1.75),
                (2.5, 0, 1.75), (2.75, 0, 1.75), (3, 0, 1.75), (3.25, 0, 1.75), (3.5, 0, 1.75), (3.75, 0, 1.75),
                (4, 0, 1.75), (4.25, 0, 1.75), (4.5, 0, 1.75), (4.75, 0, 1.75), (5, 0, 1.75), (5.25, 0, 1.75),
                (5.5, 0, 1.75), (5.75, 0, 1.75), (6, 0, 1.75)
            ]
            uniform token subdivisionScheme = "none"
        }
    }

    def Camera "MainCam"
    {
        float2 clippingRange = (0.1541, 134.9)
        float focalLength = 35
        float horizontalAperture = 20.95
        float verticalAperture = 11.79
        double3 xformOp:rotateXYZ = (-20, 32, 0)
        double3 xformOp:translate = (10.62, 5.533, 12.2)
        uniform token[] xformOpOrder = ["xformOp:translate", "xformOp:rotateXYZ"]
    }
}
