#usda 1.0
(
    """
    Docs example: RigExecStaticWeight.

    One joint yaws 0 -> -32 -> 0 degrees while a painted dense field
    holds the strip's root at 0 and ramps to 1 at its tip, so the bend
    grows along the strip and the root never leaves its rest position.
    The sweep stays in the ground plane, so the strip keeps its face to
    the camera and the painted ramp stays lit through the whole swing. The
    weights are authored once on rigExec:values and never change; the
    docs renderer paints that field onto the strip, grey at weight 0 and
    red at weight 1.
    """
    defaultPrim = "WeightAsset"
    endTimeCode = 1013
    metersPerUnit = 0.01
    startTimeCode = 1001
    timeCodesPerSecond = 24
    upAxis = "Y"
)

def Xform "WeightAsset"
{
    def RigExecRoot "Rig"
    {
        uniform token rigExec:partition = "WeightAsset"

        def Scope "Controls"
        {
            def RigExecControl "Bend" (
                prepend apiSchemas = ["RigExecControlAPI", "NodeGraphNodeAPI"]
            )
            {
                double avars:ry = 0
                double avars:ry.spline = {
                    1001: 0; pre (0, 0); post linear,
                    1006: -32; post linear,
                    1007: -32; post linear,
                    1013: 0; post linear,
                }
                matrix4d rest:space = ( (1, 0, 0, 0), (0, 1, 0, 0), (0, 0, 1, 0), (-0.9, 0, 0, 1) )
                uniform asset ui:nodegraph:node:icon = @../../icons/control.png@
            }
        }

        def Scope "Solvers"
        {
            def RigExecFkChain "Chain" (
                prepend apiSchemas = ["NodeGraphNodeAPI"]
            )
            {
                rel rigExec:controls = </WeightAsset/Rig/Controls/Bend>
                rel rigExec:joints = </WeightAsset/Rig/Joints/Jnt>
                uniform asset ui:nodegraph:node:icon = @../../icons/fk_chain.png@
            }
        }

        def Scope "Joints"
        {
            def RigExecJoint "Jnt" (
                prepend apiSchemas = ["NodeGraphNodeAPI"]
            )
            {
                matrix4d rest:space = ( (1, 0, 0, 0), (0, 1, 0, 0), (0, 0, 1, 0), (0, 0, 0, 1) )
                uniform asset ui:nodegraph:node:icon = @../../icons/joint.png@
            }
        }

        def Scope "Weights"
        {
            def RigExecStaticWeight "Falloff" (
                prepend apiSchemas = ["NodeGraphNodeAPI"]
            )
            {
                uniform float rigExec:defaultWeight = 0
                uniform token rigExec:rangePolicy = "strict"
                uniform token rigExec:representation = "dense"
                uniform float[] rigExec:values = [0, 0, 0, 0, 0, 0.0526, 0.1053, 0.1579, 0.2105, 0.2632, 0.3158, 0.3684, 0.4211, 0.4737, 0.5263, 0.5789, 0.6316, 0.6842, 0.7368, 0.7895, 0.8421, 0.8947, 0.9474, 1, 0, 0, 0, 0, 0, 0.0526, 0.1053, 0.1579, 0.2105, 0.2632, 0.3158, 0.3684, 0.4211, 0.4737, 0.5263, 0.5789, 0.6316, 0.6842, 0.7368, 0.7895, 0.8421, 0.8947, 0.9474, 1, 0, 0, 0, 0, 0, 0.0526, 0.1053, 0.1579, 0.2105, 0.2632, 0.3158, 0.3684, 0.4211, 0.4737, 0.5263, 0.5789, 0.6316, 0.6842, 0.7368, 0.7895, 0.8421, 0.8947, 0.9474, 1, 0, 0, 0, 0, 0, 0.0526, 0.1053, 0.1579, 0.2105, 0.2632, 0.3158, 0.3684, 0.4211, 0.4737, 0.5263, 0.5789, 0.6316, 0.6842, 0.7368, 0.7895, 0.8421, 0.8947, 0.9474, 1]
                rel rigExec:weightTarget = </WeightAsset/Geom/Strip.points>
                uniform asset ui:nodegraph:node:icon = @../../icons/static_weight.png@
            }
        }

        def Scope "Movers"
        {
            def RigExecMatrixMover "Skin" (
                prepend apiSchemas = ["RigExecMoverAPI", "NodeGraphNodeAPI"]
            )
            {
                rel rigExec:moves = </WeightAsset/Geom/Strip.points>
                rel rigExec:transform = </WeightAsset/Rig/Joints/Jnt>
                uniform token rigExec:transformReadPhase = "final"
                rel rigExec:weightObject = </WeightAsset/Rig/Weights/Falloff>
                uniform asset ui:nodegraph:node:icon = @../../icons/matrix_mover.png@
            }
        }
    }

    def Scope "Geom"
    {
        def Mesh "Strip"
        {
            color3f[] primvars:displayColor = [(0.55, 0.55, 0.55)]
            float3[] extent = [(0, 0, -0.75), (7.5, 0, 0.75)]
            int[] faceVertexCounts = [4, 4, 4, 4, 4, 4, 4, 4, 4, 4, 4, 4, 4, 4, 4, 4, 4, 4, 4, 4, 4, 4, 4, 4, 4, 4, 4, 4, 4, 4, 4, 4, 4, 4, 4, 4, 4, 4, 4, 4, 4, 4, 4, 4, 4, 4, 4, 4, 4, 4, 4, 4, 4, 4, 4, 4, 4, 4, 4, 4, 4, 4, 4, 4, 4, 4, 4, 4, 4]
            int[] faceVertexIndices = [0, 24, 25, 1, 1, 25, 26, 2, 2, 26, 27, 3, 3, 27, 28, 4, 4, 28, 29, 5, 5, 29, 30, 6, 6, 30, 31, 7, 7, 31, 32, 8, 8, 32, 33, 9, 9, 33, 34, 10, 10, 34, 35, 11, 11, 35, 36, 12, 12, 36, 37, 13, 13, 37, 38, 14, 14, 38, 39, 15, 15, 39, 40, 16, 16, 40, 41, 17, 17, 41, 42, 18, 18, 42, 43, 19, 19, 43, 44, 20, 20, 44, 45, 21, 21, 45, 46, 22, 22, 46, 47, 23, 24, 48, 49, 25, 25, 49, 50, 26, 26, 50, 51, 27, 27, 51, 52, 28, 28, 52, 53, 29, 29, 53, 54, 30, 30, 54, 55, 31, 31, 55, 56, 32, 32, 56, 57, 33, 33, 57, 58, 34, 34, 58, 59, 35, 35, 59, 60, 36, 36, 60, 61, 37, 37, 61, 62, 38, 38, 62, 63, 39, 39, 63, 64, 40, 40, 64, 65, 41, 41, 65, 66, 42, 42, 66, 67, 43, 43, 67, 68, 44, 44, 68, 69, 45, 45, 69, 70, 46, 46, 70, 71, 47, 48, 72, 73, 49, 49, 73, 74, 50, 50, 74, 75, 51, 51, 75, 76, 52, 52, 76, 77, 53, 53, 77, 78, 54, 54, 78, 79, 55, 55, 79, 80, 56, 56, 80, 81, 57, 57, 81, 82, 58, 58, 82, 83, 59, 59, 83, 84, 60, 60, 84, 85, 61, 61, 85, 86, 62, 62, 86, 87, 63, 63, 87, 88, 64, 64, 88, 89, 65, 65, 89, 90, 66, 66, 90, 91, 67, 67, 91, 92, 68, 68, 92, 93, 69, 69, 93, 94, 70, 70, 94, 95, 71]
            point3f[] points = [(0, 0, -0.75), (0.3261, 0, -0.75), (0.6522, 0, -0.75), (0.9783, 0, -0.75), (1.3043, 0, -0.75), (1.6304, 0, -0.75), (1.9565, 0, -0.75), (2.2826, 0, -0.75), (2.6087, 0, -0.75), (2.9348, 0, -0.75), (3.2609, 0, -0.75), (3.587, 0, -0.75), (3.913, 0, -0.75), (4.2391, 0, -0.75), (4.5652, 0, -0.75), (4.8913, 0, -0.75), (5.2174, 0, -0.75), (5.5435, 0, -0.75), (5.8696, 0, -0.75), (6.1957, 0, -0.75), (6.5217, 0, -0.75), (6.8478, 0, -0.75), (7.1739, 0, -0.75), (7.5, 0, -0.75), (0, 0, -0.25), (0.3261, 0, -0.25), (0.6522, 0, -0.25), (0.9783, 0, -0.25), (1.3043, 0, -0.25), (1.6304, 0, -0.25), (1.9565, 0, -0.25), (2.2826, 0, -0.25), (2.6087, 0, -0.25), (2.9348, 0, -0.25), (3.2609, 0, -0.25), (3.587, 0, -0.25), (3.913, 0, -0.25), (4.2391, 0, -0.25), (4.5652, 0, -0.25), (4.8913, 0, -0.25), (5.2174, 0, -0.25), (5.5435, 0, -0.25), (5.8696, 0, -0.25), (6.1957, 0, -0.25), (6.5217, 0, -0.25), (6.8478, 0, -0.25), (7.1739, 0, -0.25), (7.5, 0, -0.25), (0, 0, 0.25), (0.3261, 0, 0.25), (0.6522, 0, 0.25), (0.9783, 0, 0.25), (1.3043, 0, 0.25), (1.6304, 0, 0.25), (1.9565, 0, 0.25), (2.2826, 0, 0.25), (2.6087, 0, 0.25), (2.9348, 0, 0.25), (3.2609, 0, 0.25), (3.587, 0, 0.25), (3.913, 0, 0.25), (4.2391, 0, 0.25), (4.5652, 0, 0.25), (4.8913, 0, 0.25), (5.2174, 0, 0.25), (5.5435, 0, 0.25), (5.8696, 0, 0.25), (6.1957, 0, 0.25), (6.5217, 0, 0.25), (6.8478, 0, 0.25), (7.1739, 0, 0.25), (7.5, 0, 0.25), (0, 0, 0.75), (0.3261, 0, 0.75), (0.6522, 0, 0.75), (0.9783, 0, 0.75), (1.3043, 0, 0.75), (1.6304, 0, 0.75), (1.9565, 0, 0.75), (2.2826, 0, 0.75), (2.6087, 0, 0.75), (2.9348, 0, 0.75), (3.2609, 0, 0.75), (3.587, 0, 0.75), (3.913, 0, 0.75), (4.2391, 0, 0.75), (4.5652, 0, 0.75), (4.8913, 0, 0.75), (5.2174, 0, 0.75), (5.5435, 0, 0.75), (5.8696, 0, 0.75), (6.1957, 0, 0.75), (6.5217, 0, 0.75), (6.8478, 0, 0.75), (7.1739, 0, 0.75), (7.5, 0, 0.75)]
            uniform token subdivisionScheme = "none"
        }
    }

    def Camera "MainCam"
    {
        float2 clippingRange = (0.1658, 146.8)
        float focalLength = 35
        float horizontalAperture = 20.95
        float verticalAperture = 11.79
        double3 xformOp:rotateXYZ = (-20, 32, 0)
        double3 xformOp:translate = (11.74, 5.84, 14.29)
        uniform token[] xformOpOrder = ["xformOp:translate", "xformOp:rotateXYZ"]
    }
}
