#usda 1.0
(
    """
    Docs example: RigExecSurfaceMover.

    A 6x6 quad sheet hinges up from its near edge and back. The Curl
    control poses the Hinge joint and BendSheet skins the sheet through a
    dense falloff weight. Three sticker patches share one mesh: FollowSheet
    carries them along with the same joint, then DrapeStickers projects
    them onto the sheet read at the final phase, turning that rough follow
    into exact contact. The 0.75 envelope leaves each patch a steady 0.15
    above the sheet rather than landing it coplanar.

    Two authoring points make the drape smooth instead of glitchy.
    Closest-point projection is evaluated per point with no frame-to-frame
    memory, so points far from the driver flip between near-tied facets;
    the rough follow keeps every sticker point within a facet of the sheet.
    And movers run in REVERSE composed namespace order, descendants before
    their parent, so FollowSheet is nested inside DrapeStickers and
    BendSheet is authored last in order to run first.
    """
    defaultPrim = "DrapeAsset"
    endTimeCode = 1024
    metersPerUnit = 0.01
    startTimeCode = 1001
    timeCodesPerSecond = 24
    upAxis = "Y"
)

def Xform "DrapeAsset"
{
    def RigExecRoot "Rig"
    {
        uniform token rigExec:partition = "DrapeAsset"

        def Scope "Controls"
        {
            def RigExecControl "Curl" (
                prepend apiSchemas = ["RigExecControlAPI", "NodeGraphNodeAPI"]
            )
            {
                double avars:rx = 0
                double avars:rx.spline = {
                    1001: 0; pre (0, 0); post linear,
                    1012: -24; post linear,
                    1024: 0; post linear,
                }
                matrix4d rest:space = ( (1, 0, 0, 0), (0, 1, 0, 0), (0, 0, 1, 0), (0, 0, -3, 1) )
                uniform asset ui:nodegraph:node:icon = @../../icons/control.png@
            }
        }

        def Scope "Solvers"
        {
            def RigExecFkChain "Chain" (
                prepend apiSchemas = ["NodeGraphNodeAPI"]
            )
            {
                rel rigExec:controls = </DrapeAsset/Rig/Controls/Curl>
                rel rigExec:joints = </DrapeAsset/Rig/Joints/Hinge>
                uniform asset ui:nodegraph:node:icon = @../../icons/fk_chain.png@
            }
        }

        def Scope "Joints"
        {
            def RigExecJoint "Hinge" (
                prepend apiSchemas = ["NodeGraphNodeAPI"]
            )
            {
                matrix4d rest:space = ( (1, 0, 0, 0), (0, 1, 0, 0), (0, 0, 1, 0), (0, 0, -3, 1) )
                uniform asset ui:nodegraph:node:icon = @../../icons/joint.png@
            }
        }

        def Scope "Weights"
        {
            def RigExecStaticWeight "SheetFalloff" (
                prepend apiSchemas = ["NodeGraphNodeAPI"]
            )
            {
                uniform float rigExec:defaultWeight = 0
                uniform token rigExec:rangePolicy = "strict"
                uniform token rigExec:representation = "dense"
                uniform float[] rigExec:values = [0, 0, 0, 0, 0, 0, 0, 0.0741, 0.0741, 0.0741, 0.0741, 0.0741, 0.0741, 0.0741, 0.2593, 0.2593, 0.2593, 0.2593, 0.2593, 0.2593, 0.2593, 0.5, 0.5, 0.5, 0.5, 0.5, 0.5, 0.5, 0.7407, 0.7407, 0.7407, 0.7407, 0.7407, 0.7407, 0.7407, 0.9259, 0.9259, 0.9259, 0.9259, 0.9259, 0.9259, 0.9259, 1, 1, 1, 1, 1, 1, 1]
                rel rigExec:weightTarget = </DrapeAsset/Geom/Sheet.points>
                uniform asset ui:nodegraph:node:icon = @../../icons/static_weight.png@
            }

            def RigExecStaticWeight "StickerFalloff" (
                prepend apiSchemas = ["NodeGraphNodeAPI"]
            )
            {
                uniform float rigExec:defaultWeight = 0
                uniform token rigExec:rangePolicy = "strict"
                uniform token rigExec:representation = "dense"
                uniform float[] rigExec:values = [0.784, 0.784, 0.784, 0.784, 0.8621, 0.8621, 0.8621, 0.8621, 0.9259, 0.9259, 0.9259, 0.9259, 0.972, 0.972, 0.972, 0.972, 0.5, 0.5, 0.5, 0.5, 0.5994, 0.5994, 0.5994, 0.5994, 0.6953, 0.6953, 0.6953, 0.6953, 0.784, 0.784, 0.784, 0.784, 0.1754, 0.1754, 0.1754, 0.1754, 0.2593, 0.2593, 0.2593, 0.2593, 0.352, 0.352, 0.352, 0.352, 0.4501, 0.4501, 0.4501, 0.4501]
                rel rigExec:weightTarget = </DrapeAsset/Geom/Stickers.points>
                uniform asset ui:nodegraph:node:icon = @../../icons/static_weight.png@
            }
        }

        def Scope "Movers"
        {
            def Scope "Geometry"
            {
                def RigExecSurfaceMover "DrapeStickers" (
                    prepend apiSchemas = ["RigExecMoverAPI", "NodeGraphNodeAPI"]
                )
                {
                    float inputs:defaultWeight = 0.75
                    uniform token rigExec:mode = "project"
                    rel rigExec:moves = </DrapeAsset/Geom/Stickers.points>
                    rel rigExec:surface = </DrapeAsset/Geom/Sheet>
                    uniform token rigExec:surfaceReadPhase = "final"
                    uniform asset ui:nodegraph:node:icon = @../../icons/surface_mover.png@

                    def RigExecMatrixMover "FollowSheet" (
                        prepend apiSchemas = ["RigExecMoverAPI", "NodeGraphNodeAPI"]
                    )
                    {
                        rel rigExec:moves = </DrapeAsset/Geom/Stickers.points>
                        rel rigExec:transform = </DrapeAsset/Rig/Joints/Hinge>
                        uniform token rigExec:transformReadPhase = "final"
                        rel rigExec:weightObject = </DrapeAsset/Rig/Weights/StickerFalloff>
                        uniform asset ui:nodegraph:node:icon = @../../icons/matrix_mover.png@
                    }
                }

                def RigExecMatrixMover "BendSheet" (
                    prepend apiSchemas = ["RigExecMoverAPI", "NodeGraphNodeAPI"]
                )
                {
                    rel rigExec:moves = </DrapeAsset/Geom/Sheet.points>
                    rel rigExec:transform = </DrapeAsset/Rig/Joints/Hinge>
                    uniform token rigExec:transformReadPhase = "final"
                    rel rigExec:weightObject = </DrapeAsset/Rig/Weights/SheetFalloff>
                    uniform asset ui:nodegraph:node:icon = @../../icons/matrix_mover.png@
                }
            }
        }
    }

    def Scope "Geom"
    {
        def Mesh "Sheet"
        {
            color3f[] primvars:displayColor = [(0.42, 0.47, 0.5)]
            float3[] extent = [(-3, 0, -3), (3, 0, 3)]
            int[] faceVertexCounts = [4, 4, 4, 4, 4, 4, 4, 4, 4, 4, 4, 4, 4, 4, 4, 4, 4, 4, 4, 4, 4, 4, 4, 4, 4, 4, 4, 4, 4, 4, 4, 4, 4, 4, 4, 4]
            int[] faceVertexIndices = [0, 7, 8, 1, 1, 8, 9, 2, 2, 9, 10, 3, 3, 10, 11, 4, 4, 11, 12, 5, 5, 12, 13, 6, 7, 14, 15, 8, 8, 15, 16, 9, 9, 16, 17, 10, 10, 17, 18, 11, 11, 18, 19, 12, 12, 19, 20, 13, 14, 21, 22, 15, 15, 22, 23, 16, 16, 23, 24, 17, 17, 24, 25, 18, 18, 25, 26, 19, 19, 26, 27, 20, 21, 28, 29, 22, 22, 29, 30, 23, 23, 30, 31, 24, 24, 31, 32, 25, 25, 32, 33, 26, 26, 33, 34, 27, 28, 35, 36, 29, 29, 36, 37, 30, 30, 37, 38, 31, 31, 38, 39, 32, 32, 39, 40, 33, 33, 40, 41, 34, 35, 42, 43, 36, 36, 43, 44, 37, 37, 44, 45, 38, 38, 45, 46, 39, 39, 46, 47, 40, 40, 47, 48, 41]
            point3f[] points = [(-3, 0, -3), (-2, 0, -3), (-1, 0, -3), (0, 0, -3), (1, 0, -3), (2, 0, -3), (3, 0, -3), (-3, 0, -2), (-2, 0, -2), (-1, 0, -2), (0, 0, -2), (1, 0, -2), (2, 0, -2), (3, 0, -2), (-3, 0, -1), (-2, 0, -1), (-1, 0, -1), (0, 0, -1), (1, 0, -1), (2, 0, -1), (3, 0, -1), (-3, 0, 0), (-2, 0, 0), (-1, 0, 0), (0, 0, 0), (1, 0, 0), (2, 0, 0), (3, 0, 0), (-3, 0, 1), (-2, 0, 1), (-1, 0, 1), (0, 0, 1), (1, 0, 1), (2, 0, 1), (3, 0, 1), (-3, 0, 2), (-2, 0, 2), (-1, 0, 2), (0, 0, 2), (1, 0, 2), (2, 0, 2), (3, 0, 2), (-3, 0, 3), (-2, 0, 3), (-1, 0, 3), (0, 0, 3), (1, 0, 3), (2, 0, 3), (3, 0, 3)]
            uniform token subdivisionScheme = "none"
        }

        def Mesh "Stickers"
        {
            color3f[] primvars:displayColor = [(0.95, 0.55, 0.15)]
            float3[] extent = [(-2.2, 0.6, -1.4), (1.5, 0.6, 2.4)]
            int[] faceVertexCounts = [4, 4, 4, 4, 4, 4, 4, 4, 4, 4, 4, 4, 4, 4, 4, 4, 4, 4, 4, 4, 4, 4, 4, 4, 4, 4, 4]
            int[] faceVertexIndices = [0, 4, 5, 1, 1, 5, 6, 2, 2, 6, 7, 3, 4, 8, 9, 5, 5, 9, 10, 6, 6, 10, 11, 7, 8, 12, 13, 9, 9, 13, 14, 10, 10, 14, 15, 11, 16, 20, 21, 17, 17, 21, 22, 18, 18, 22, 23, 19, 20, 24, 25, 21, 21, 25, 26, 22, 22, 26, 27, 23, 24, 28, 29, 25, 25, 29, 30, 26, 26, 30, 31, 27, 32, 36, 37, 33, 33, 37, 38, 34, 34, 38, 39, 35, 36, 40, 41, 37, 37, 41, 42, 38, 38, 42, 43, 39, 40, 44, 45, 41, 41, 45, 46, 42, 42, 46, 47, 43]
            point3f[] points = [(-2.2, 0.6, 1.2), (-1.8, 0.6, 1.2), (-1.4, 0.6, 1.2), (-1, 0.6, 1.2), (-2.2, 0.6, 1.6), (-1.8, 0.6, 1.6), (-1.4, 0.6, 1.6), (-1, 0.6, 1.6), (-2.2, 0.6, 2), (-1.8, 0.6, 2), (-1.4, 0.6, 2), (-1, 0.6, 2), (-2.2, 0.6, 2.4), (-1.8, 0.6, 2.4), (-1.4, 0.6, 2.4), (-1, 0.6, 2.4), (0.3, 0.6, 0), (0.7, 0.6, 0), (1.1, 0.6, 0), (1.5, 0.6, 0), (0.3, 0.6, 0.4), (0.7, 0.6, 0.4), (1.1, 0.6, 0.4), (1.5, 0.6, 0.4), (0.3, 0.6, 0.8), (0.7, 0.6, 0.8), (1.1, 0.6, 0.8), (1.5, 0.6, 0.8), (0.3, 0.6, 1.2), (0.7, 0.6, 1.2), (1.1, 0.6, 1.2), (1.5, 0.6, 1.2), (-1.3, 0.6, -1.4), (-0.9, 0.6, -1.4), (-0.5, 0.6, -1.4), (-0.1, 0.6, -1.4), (-1.3, 0.6, -1), (-0.9, 0.6, -1), (-0.5, 0.6, -1), (-0.1, 0.6, -1), (-1.3, 0.6, -0.6), (-0.9, 0.6, -0.6), (-0.5, 0.6, -0.6), (-0.1, 0.6, -0.6), (-1.3, 0.6, -0.2), (-0.9, 0.6, -0.2), (-0.5, 0.6, -0.2), (-0.1, 0.6, -0.2)]
            uniform token subdivisionScheme = "none"
        }
    }

    def Camera "MainCam"
    {
        float2 clippingRange = (0.1901, 168.5)
        float focalLength = 35
        float horizontalAperture = 20.95
        float verticalAperture = 11.79
        double3 xformOp:rotateXYZ = (-20, 32, 0)
        double3 xformOp:translate = (9.517, 6.856, 15.23)
        uniform token[] xformOpOrder = ["xformOp:translate", "xformOp:rotateXYZ"]
    }
}
