#usda 1.0
(
    """
    Docs example: RigExecCurvenet and the Profile Mover family.

    A net of 28 cubic splines over 76 pooled control points profiles a
    144-quad capped tube -- seven rows of twenty-four, the outer pair a
    tenth of a unit in from each end so the two end caps shade flat instead
    of reading as a hole -- profiled by three profile rings joined by four
    longitudinal rails.
    Every ring knot is named by two ring spans and two rails, so index
    sharing alone builds the connectivity -- no normals, tangent frames or
    twists are authored anywhere.

    Two things animate. The Bend control swings a joint, and an ORDINARY
    matrix mover carries the net's knots with a painted field, because
    RigExecCurvenet is a UsdGeomPointBased and its pool is an exact native
    point3f[]. The RingPush adjustment then pushes one middle-ring knot out
    through the Adjuster Mover, in a frame that rides the preceding
    deformation. The Profile Mover propagates the whole articulated net onto
    the tube, enveloped by a RigExecCurvenetWeight painted on the same 76
    pool points -- the tube's 168 vertices appear nowhere in the rig.

    Scrub 1001-1036. The bend and the push are deliberately out of step:
    the same push (RingPush avars:tx = 1.8) is keyed at 1005 with the rig at
    rest and again at 1022 under a bend held at 45 degrees from 1018 to 1030,
    and the knot leaves the surface the same way both times. The ring the
    handle sits on carries NetBend weight 0.45, so the push is the only thing
    that moves it out of the profile.

    Hand-maintained. examples/build_curvenet_example.py generates the full-size
    sibling examples/12_CurvenetProfile.usda; this docs-sized variant is edited
    in place.
    """
    defaultPrim = "CurvenetAsset"
    endTimeCode = 1036
    metersPerUnit = 0.01
    startTimeCode = 1001
    timeCodesPerSecond = 24
    upAxis = "Y"
)

def Xform "CurvenetAsset"
{
    def RigExecRoot "Rig"
    {
        uniform token rigExec:partition = "CurvenetAsset"

        def Scope "Controls"
        {
            def RigExecControl "Bend" (
                prepend apiSchemas = ["RigExecControlAPI", "NodeGraphNodeAPI"]
            )
            {
                double avars:rz = 0
                double avars:rz.spline = {
                    1001: 0; pre (0, 0); post linear,
                    1010: 0; post linear,
                    1018: 45; post linear,
                    1030: 45; post linear,
                    1036: 0; post linear,
                }
                matrix4d rest:space = ( (1, 0, 0, 0), (0, 1, 0, 0), (0, 0, 1, 0), (0, 2.5, 0, 1) )
                uniform asset ui:nodegraph:node:icon = @../../icons/control.png@
            }

            # A knot control, not a placed handle: the adjustment names a pool
            # index and the adjuster derives its frame from the net's own
            # layout, so no rest:space is authored here.
            def RigExecCurvenetAdjustment "RingPush" (
                prepend apiSchemas = ["RigExecControlAPI", "NodeGraphNodeAPI"]
            )
            {
                double avars:tx = 0
                # The SAME key twice: once at 1005 with the rig at rest, once
                # at 1022 under a bend held at 45 degrees. A deformation-
                # relative frame is what makes the two reads identical.
                double avars:tx.spline = {
                    1001: 0; pre (0, 0); post linear,
                    1005: 1.8; post linear,
                    1010: 0; post linear,
                    1022: 1.8; post linear,
                    1027: 0; post linear,
                    1036: 0; post linear,
                }
                # Drawn where the adjuster publishes the knot's frame: a small
                # diamond, not another ring among the net's rings, offset
                # outboard so it sits beside the bulge instead of over it.
                double3 guide:offset = (0.3, 0, 0)
                double guide:scaleX = 0.4
                double guide:scaleY = 0.4
                double guide:scaleZ = 0.4
                uniform token guide:shape = "diamond"
                uniform token purpose = "guide"
                rel rigExec:curvenet = </CurvenetAsset/Geom/Net>
                uniform bool rigExec:includeTangents = true
                uniform int rigExec:knotIndex = 4
                uniform token rigExec:pointKind = "knot"
                uniform asset ui:nodegraph:node:icon = @../../icons/curvenet_adjustment.png@
            }
        }

        def Scope "Solvers"
        {
            def RigExecFkChain "BendChain" (
                prepend apiSchemas = ["NodeGraphNodeAPI"]
            )
            {
                rel rigExec:controls = </CurvenetAsset/Rig/Controls/Bend>
                rel rigExec:joints = </CurvenetAsset/Rig/Joints/Bend>
                uniform asset ui:nodegraph:node:icon = @../../icons/fk_chain.png@
            }
        }

        def Scope "Joints"
        {
            def RigExecJoint "Bend" (
                prepend apiSchemas = ["NodeGraphNodeAPI"]
            )
            {
                matrix4d rest:space = ( (1, 0, 0, 0), (0, 1, 0, 0), (0, 0, 1, 0), (0, 2.5, 0, 1) )
                uniform asset ui:nodegraph:node:icon = @../../icons/joint.png@
            }
        }

        def Scope "Weights"
        {
            # Influence of the bend on each POOL POINT -- 76 numbers,
            # against 120 tube vertices the rig never mentions.
            def RigExecStaticWeight "NetBend" (
                prepend apiSchemas = ["NodeGraphNodeAPI"]
            )
            {
                uniform float rigExec:defaultWeight = 0
                uniform token rigExec:rangePolicy = "clamp"
                uniform token rigExec:representation = "dense"
                uniform float[] rigExec:values = [0, 0, 0, 0, 0.45, 0.45, 0.45, 0.45, 1, 1, 1, 1, 0, 0, 0, 0, 0, 0, 0, 0, 0.45, 0.45, 0.45, 0.45, 0.45, 0.45, 0.45, 0.45, 1, 1, 1, 1, 1, 1, 1, 1, 0, 1, 0, 0, 0.03333, 0.2417, 0.6583, 0.8667, 1, 1, 0, 1, 0, 0, 0.03333, 0.2417, 0.6583, 0.8667, 1, 1, 0, 1, 0, 0, 0.03333, 0.2417, 0.6583, 0.8667, 1, 1, 0, 1, 0, 0, 0.03333, 0.2417, 0.6583, 0.8667, 1, 1]
                rel rigExec:weightTarget = </CurvenetAsset/Geom/Net.points>
                uniform asset ui:nodegraph:node:icon = @../../icons/static_weight.png@
            }

            # The Profile Mover's envelope, painted on the NET and carried to
            # the surface by the net's own parametrization: one value per pool
            # point, solved onto every tube vertex.
            def RigExecCurvenetWeight "ProfileEnvelope" (
                prepend apiSchemas = ["NodeGraphNodeAPI"]
            )
            {
                float[] inputs:weights = [1, 1, 1, 1, 1, 1, 1, 1, 1, 1, 1, 1, 1, 1, 1, 1, 1, 1, 1, 1, 1, 1, 1, 1, 1, 1, 1, 1, 1, 1, 1, 1, 1, 1, 1, 1, 0, 1, 0.381, 0.8333, 1, 1, 1, 1, 1, 1, 0, 1, 0.381, 0.8333, 1, 1, 1, 1, 1, 1, 0, 1, 0.381, 0.8333, 1, 1, 1, 1, 1, 1, 0, 1, 0.381, 0.8333, 1, 1, 1, 1, 1, 1]
                int[] rigExec:autoSmooth = []
                uniform token rigExec:basis = "bezier"
                rel rigExec:curvenetPoints = </CurvenetAsset/Geom/Net.points>
                rel rigExec:curvenetSplineIndices = </CurvenetAsset/Geom/Net.rigExec:splineIndices>
                rel rigExec:meshFaceCounts = </CurvenetAsset/Geom/Tube.faceVertexCounts>
                rel rigExec:meshFaceIndices = </CurvenetAsset/Geom/Tube.faceVertexIndices>
                uniform token rigExec:rangePolicy = "clamp"
                uniform token rigExec:representation = "dense"
                uniform int rigExec:samplesPerSpline = 5
                float rigExec:unreachedValue = 0
                rel rigExec:weightTarget = </CurvenetAsset/Geom/Tube.points>
                uniform asset ui:nodegraph:node:icon = @../../icons/curvenet_weight.png@
            }
        }

        def Scope "Movers"
        {
            def Scope "Geometry"
            {
                # usdview presents the stack bottom-to-top, so this reorder
                # shows execution order upside down on purpose: PoseNet runs
                # first, then AdjustNet, then ProfileMover.
                reorder nameChildren = ["ProfileMover", "AdjustNet", "PoseNet"]

                # 1. Pose the net's knots with ordinary rig machinery.
                def RigExecMatrixMover "PoseNet" (
                    prepend apiSchemas = ["RigExecMoverAPI", "NodeGraphNodeAPI"]
                )
                {
                    rel rigExec:moves = </CurvenetAsset/Geom/Net.points>
                    rel rigExec:transform = </CurvenetAsset/Rig/Joints/Bend>
                    uniform token rigExec:transformReadPhase = "final"
                    rel rigExec:weightObject = </CurvenetAsset/Rig/Weights/NetBend>
                    uniform asset ui:nodegraph:node:icon = @../../icons/matrix_mover.png@
                }

                # 2. Layer the animator's knot adjustment on top of that pose.
                def RigExecCurvenetAdjusterMover "AdjustNet" (
                    prepend apiSchemas = ["RigExecMoverAPI", "NodeGraphNodeAPI"]
                )
                {
                    rel rigExec:adjustments = </CurvenetAsset/Rig/Controls/RingPush>
                    float inputs:defaultWeight = 1
                    rel rigExec:moves = </CurvenetAsset/Geom/Net.points>
                    uniform asset ui:nodegraph:node:icon = @../../icons/curvenet_adjuster_mover.png@
                }

                # 3. Propagate the finished net onto the surface.
                def RigExecCurvenetMover "ProfileMover" (
                    prepend apiSchemas = ["RigExecMoverAPI", "NodeGraphNodeAPI"]
                )
                {
                    rel rigExec:curvenet = </CurvenetAsset/Geom/Net>
                    rel rigExec:moves = </CurvenetAsset/Geom/Tube.points>
                    rel rigExec:weightObject = </CurvenetAsset/Rig/Weights/ProfileEnvelope>
                    uniform asset ui:nodegraph:node:icon = @../../icons/curvenet_mover.png@
                }
            }
        }
    }

    def Scope "Geom"
    {
        def Mesh "Tube"
        {
            color3f[] primvars:displayColor = [(0.45, 0.55, 0.68)]
            float3[] extent = [(-1.9, -0.3, -1.9), (3.4, 5.4, 1.9)]
            int[] faceVertexCounts = [4, 4, 4, 4, 4, 4, 4, 4, 4, 4, 4, 4, 4, 4, 4, 4, 4, 4, 4, 4, 4, 4, 4, 4, 4, 4, 4, 4, 4, 4, 4, 4, 4, 4, 4, 4, 4, 4, 4, 4, 4, 4, 4, 4, 4, 4, 4, 4, 4, 4, 4, 4, 4, 4, 4, 4, 4, 4, 4, 4, 4, 4, 4, 4, 4, 4, 4, 4, 4, 4, 4, 4, 4, 4, 4, 4, 4, 4, 4, 4, 4, 4, 4, 4, 4, 4, 4, 4, 4, 4, 4, 4, 4, 4, 4, 4, 4, 4, 4, 4, 4, 4, 4, 4, 4, 4, 4, 4, 4, 4, 4, 4, 4, 4, 4, 4, 4, 4, 4, 4, 4, 4, 4, 4, 4, 4, 4, 4, 4, 4, 4, 4, 4, 4, 4, 4, 4, 4, 4, 4, 4, 4, 4, 4, 24, 24]
            int[] faceVertexIndices = [0, 24, 25, 1, 1, 25, 26, 2, 2, 26, 27, 3, 3, 27, 28, 4, 4, 28, 29, 5, 5, 29, 30, 6, 6, 30, 31, 7, 7, 31, 32, 8, 8, 32, 33, 9, 9, 33, 34, 10, 10, 34, 35, 11, 11, 35, 36, 12, 12, 36, 37, 13, 13, 37, 38, 14, 14, 38, 39, 15, 15, 39, 40, 16, 16, 40, 41, 17, 17, 41, 42, 18, 18, 42, 43, 19, 19, 43, 44, 20, 20, 44, 45, 21, 21, 45, 46, 22, 22, 46, 47, 23, 23, 47, 24, 0, 24, 48, 49, 25, 25, 49, 50, 26, 26, 50, 51, 27, 27, 51, 52, 28, 28, 52, 53, 29, 29, 53, 54, 30, 30, 54, 55, 31, 31, 55, 56, 32, 32, 56, 57, 33, 33, 57, 58, 34, 34, 58, 59, 35, 35, 59, 60, 36, 36, 60, 61, 37, 37, 61, 62, 38, 38, 62, 63, 39, 39, 63, 64, 40, 40, 64, 65, 41, 41, 65, 66, 42, 42, 66, 67, 43, 43, 67, 68, 44, 44, 68, 69, 45, 45, 69, 70, 46, 46, 70, 71, 47, 47, 71, 48, 24, 48, 72, 73, 49, 49, 73, 74, 50, 50, 74, 75, 51, 51, 75, 76, 52, 52, 76, 77, 53, 53, 77, 78, 54, 54, 78, 79, 55, 55, 79, 80, 56, 56, 80, 81, 57, 57, 81, 82, 58, 58, 82, 83, 59, 59, 83, 84, 60, 60, 84, 85, 61, 61, 85, 86, 62, 62, 86, 87, 63, 63, 87, 88, 64, 64, 88, 89, 65, 65, 89, 90, 66, 66, 90, 91, 67, 67, 91, 92, 68, 68, 92, 93, 69, 69, 93, 94, 70, 70, 94, 95, 71, 71, 95, 72, 48, 72, 96, 97, 73, 73, 97, 98, 74, 74, 98, 99, 75, 75, 99, 100, 76, 76, 100, 101, 77, 77, 101, 102, 78, 78, 102, 103, 79, 79, 103, 104, 80, 80, 104, 105, 81, 81, 105, 106, 82, 82, 106, 107, 83, 83, 107, 108, 84, 84, 108, 109, 85, 85, 109, 110, 86, 86, 110, 111, 87, 87, 111, 112, 88, 88, 112, 113, 89, 89, 113, 114, 90, 90, 114, 115, 91, 91, 115, 116, 92, 92, 116, 117, 93, 93, 117, 118, 94, 94, 118, 119, 95, 95, 119, 96, 72, 96, 120, 121, 97, 97, 121, 122, 98, 98, 122, 123, 99, 99, 123, 124, 100, 100, 124, 125, 101, 101, 125, 126, 102, 102, 126, 127, 103, 103, 127, 128, 104, 104, 128, 129, 105, 105, 129, 130, 106, 106, 130, 131, 107, 107, 131, 132, 108, 108, 132, 133, 109, 109, 133, 134, 110, 110, 134, 135, 111, 111, 135, 136, 112, 112, 136, 137, 113, 113, 137, 138, 114, 114, 138, 139, 115, 115, 139, 140, 116, 116, 140, 141, 117, 117, 141, 142, 118, 118, 142, 143, 119, 119, 143, 120, 96, 120, 144, 145, 121, 121, 145, 146, 122, 122, 146, 147, 123, 123, 147, 148, 124, 124, 148, 149, 125, 125, 149, 150, 126, 126, 150, 151, 127, 127, 151, 152, 128, 128, 152, 153, 129, 129, 153, 154, 130, 130, 154, 155, 131, 131, 155, 156, 132, 132, 156, 157, 133, 133, 157, 158, 134, 134, 158, 159, 135, 135, 159, 160, 136, 136, 160, 161, 137, 137, 161, 162, 138, 138, 162, 163, 139, 139, 163, 164, 140, 140, 164, 165, 141, 141, 165, 166, 142, 142, 166, 167, 143, 143, 167, 144, 120, 0, 1, 2, 3, 4, 5, 6, 7, 8, 9, 10, 11, 12, 13, 14, 15, 16, 17, 18, 19, 20, 21, 22, 23, 167, 166, 165, 164, 163, 162, 161, 160, 159, 158, 157, 156, 155, 154, 153, 152, 151, 150, 149, 148, 147, 146, 145, 144]
            normal3f[] normals = [(0, -1, 0), (0, -1, 0), (0, -1, 0), (0, -1, 0), (0, -1, 0), (0, -1, 0), (0, -1, 0), (0, -1, 0), (0, -1, 0), (0, -1, 0), (0, -1, 0), (0, -1, 0), (0, -1, 0), (0, -1, 0), (0, -1, 0), (0, -1, 0), (0, -1, 0), (0, -1, 0), (0, -1, 0), (0, -1, 0), (0, -1, 0), (0, -1, 0), (0, -1, 0), (0, -1, 0), (1, 0, 0), (0.965926, 0, 0.258819), (0.866025, 0, 0.5), (0.707107, 0, 0.707107), (0.5, 0, 0.866025), (0.258819, 0, 0.965926), (0, 0, 1), (-0.258819, 0, 0.965926), (-0.5, 0, 0.866025), (-0.707107, 0, 0.707107), (-0.866025, 0, 0.5), (-0.965926, 0, 0.258819), (-1, 0, 0), (-0.965926, 0, -0.258819), (-0.866025, 0, -0.5), (-0.707107, 0, -0.707107), (-0.5, 0, -0.866025), (-0.258819, 0, -0.965926), (0, 0, -1), (0.258819, 0, -0.965926), (0.5, 0, -0.866025), (0.707107, 0, -0.707107), (0.866025, 0, -0.5), (0.965926, 0, -0.258819), (1, 0, 0), (0.965926, 0, 0.258819), (0.866025, 0, 0.5), (0.707107, 0, 0.707107), (0.5, 0, 0.866025), (0.258819, 0, 0.965926), (0, 0, 1), (-0.258819, 0, 0.965926), (-0.5, 0, 0.866025), (-0.707107, 0, 0.707107), (-0.866025, 0, 0.5), (-0.965926, 0, 0.258819), (-1, 0, 0), (-0.965926, 0, -0.258819), (-0.866025, 0, -0.5), (-0.707107, 0, -0.707107), (-0.5, 0, -0.866025), (-0.258819, 0, -0.965926), (0, 0, -1), (0.258819, 0, -0.965926), (0.5, 0, -0.866025), (0.707107, 0, -0.707107), (0.866025, 0, -0.5), (0.965926, 0, -0.258819), (1, 0, 0), (0.965926, 0, 0.258819), (0.866025, 0, 0.5), (0.707107, 0, 0.707107), (0.5, 0, 0.866025), (0.258819, 0, 0.965926), (0, 0, 1), (-0.258819, 0, 0.965926), (-0.5, 0, 0.866025), (-0.707107, 0, 0.707107), (-0.866025, 0, 0.5), (-0.965926, 0, 0.258819), (-1, 0, 0), (-0.965926, 0, -0.258819), (-0.866025, 0, -0.5), (-0.707107, 0, -0.707107), (-0.5, 0, -0.866025), (-0.258819, 0, -0.965926), (0, 0, -1), (0.258819, 0, -0.965926), (0.5, 0, -0.866025), (0.707107, 0, -0.707107), (0.866025, 0, -0.5), (0.965926, 0, -0.258819), (1, 0, 0), (0.965926, 0, 0.258819), (0.866025, 0, 0.5), (0.707107, 0, 0.707107), (0.5, 0, 0.866025), (0.258819, 0, 0.965926), (0, 0, 1), (-0.258819, 0, 0.965926), (-0.5, 0, 0.866025), (-0.707107, 0, 0.707107), (-0.866025, 0, 0.5), (-0.965926, 0, 0.258819), (-1, 0, 0), (-0.965926, 0, -0.258819), (-0.866025, 0, -0.5), (-0.707107, 0, -0.707107), (-0.5, 0, -0.866025), (-0.258819, 0, -0.965926), (0, 0, -1), (0.258819, 0, -0.965926), (0.5, 0, -0.866025), (0.707107, 0, -0.707107), (0.866025, 0, -0.5), (0.965926, 0, -0.258819), (1, 0, 0), (0.965926, 0, 0.258819), (0.866025, 0, 0.5), (0.707107, 0, 0.707107), (0.5, 0, 0.866025), (0.258819, 0, 0.965926), (0, 0, 1), (-0.258819, 0, 0.965926), (-0.5, 0, 0.866025), (-0.707107, 0, 0.707107), (-0.866025, 0, 0.5), (-0.965926, 0, 0.258819), (-1, 0, 0), (-0.965926, 0, -0.258819), (-0.866025, 0, -0.5), (-0.707107, 0, -0.707107), (-0.5, 0, -0.866025), (-0.258819, 0, -0.965926), (0, 0, -1), (0.258819, 0, -0.965926), (0.5, 0, -0.866025), (0.707107, 0, -0.707107), (0.866025, 0, -0.5), (0.965926, 0, -0.258819), (0, 1, 0), (0, 1, 0), (0, 1, 0), (0, 1, 0), (0, 1, 0), (0, 1, 0), (0, 1, 0), (0, 1, 0), (0, 1, 0), (0, 1, 0), (0, 1, 0), (0, 1, 0), (0, 1, 0), (0, 1, 0), (0, 1, 0), (0, 1, 0), (0, 1, 0), (0, 1, 0), (0, 1, 0), (0, 1, 0), (0, 1, 0), (0, 1, 0), (0, 1, 0), (0, 1, 0)] (
                interpolation = "vertex"
            )
            point3f[] points = [(1.1, 0, 0), (1.06252, 0, 0.284701), (0.952628, 0, 0.55), (0.777817, 0, 0.777817), (0.55, 0, 0.952628), (0.284701, 0, 1.06252), (0, 0, 1.1), (-0.284701, 0, 1.06252), (-0.55, 0, 0.952628), (-0.777817, 0, 0.777817), (-0.952628, 0, 0.55), (-1.06252, 0, 0.284701), (-1.1, 0, 0), (-1.06252, 0, -0.284701), (-0.952628, 0, -0.55), (-0.777817, 0, -0.777817), (-0.55, 0, -0.952628), (-0.284701, 0, -1.06252), (0, 0, -1.1), (0.284701, 0, -1.06252), (0.55, 0, -0.952628), (0.777817, 0, -0.777817), (0.952628, 0, -0.55), (1.06252, 0, -0.284701), (1.1, 0.1, 0), (1.06252, 0.1, 0.284701), (0.952628, 0.1, 0.55), (0.777817, 0.1, 0.777817), (0.55, 0.1, 0.952628), (0.284701, 0.1, 1.06252), (0, 0.1, 1.1), (-0.284701, 0.1, 1.06252), (-0.55, 0.1, 0.952628), (-0.777817, 0.1, 0.777817), (-0.952628, 0.1, 0.55), (-1.06252, 0.1, 0.284701), (-1.1, 0.1, 0), (-1.06252, 0.1, -0.284701), (-0.952628, 0.1, -0.55), (-0.777817, 0.1, -0.777817), (-0.55, 0.1, -0.952628), (-0.284701, 0.1, -1.06252), (0, 0.1, -1.1), (0.284701, 0.1, -1.06252), (0.55, 0.1, -0.952628), (0.777817, 0.1, -0.777817), (0.952628, 0.1, -0.55), (1.06252, 0.1, -0.284701), (1.1, 1.25, 0), (1.06252, 1.25, 0.284701), (0.952628, 1.25, 0.55), (0.777817, 1.25, 0.777817), (0.55, 1.25, 0.952628), (0.284701, 1.25, 1.06252), (0, 1.25, 1.1), (-0.284701, 1.25, 1.06252), (-0.55, 1.25, 0.952628), (-0.777817, 1.25, 0.777817), (-0.952628, 1.25, 0.55), (-1.06252, 1.25, 0.284701), (-1.1, 1.25, 0), (-1.06252, 1.25, -0.284701), (-0.952628, 1.25, -0.55), (-0.777817, 1.25, -0.777817), (-0.55, 1.25, -0.952628), (-0.284701, 1.25, -1.06252), (0, 1.25, -1.1), (0.284701, 1.25, -1.06252), (0.55, 1.25, -0.952628), (0.777817, 1.25, -0.777817), (0.952628, 1.25, -0.55), (1.06252, 1.25, -0.284701), (1.1, 2.5, 0), (1.06252, 2.5, 0.284701), (0.952628, 2.5, 0.55), (0.777817, 2.5, 0.777817), (0.55, 2.5, 0.952628), (0.284701, 2.5, 1.06252), (0, 2.5, 1.1), (-0.284701, 2.5, 1.06252), (-0.55, 2.5, 0.952628), (-0.777817, 2.5, 0.777817), (-0.952628, 2.5, 0.55), (-1.06252, 2.5, 0.284701), (-1.1, 2.5, 0), (-1.06252, 2.5, -0.284701), (-0.952628, 2.5, -0.55), (-0.777817, 2.5, -0.777817), (-0.55, 2.5, -0.952628), (-0.284701, 2.5, -1.06252), (0, 2.5, -1.1), (0.284701, 2.5, -1.06252), (0.55, 2.5, -0.952628), (0.777817, 2.5, -0.777817), (0.952628, 2.5, -0.55), (1.06252, 2.5, -0.284701), (1.1, 3.75, 0), (1.06252, 3.75, 0.284701), (0.952628, 3.75, 0.55), (0.777817, 3.75, 0.777817), (0.55, 3.75, 0.952628), (0.284701, 3.75, 1.06252), (0, 3.75, 1.1), (-0.284701, 3.75, 1.06252), (-0.55, 3.75, 0.952628), (-0.777817, 3.75, 0.777817), (-0.952628, 3.75, 0.55), (-1.06252, 3.75, 0.284701), (-1.1, 3.75, 0), (-1.06252, 3.75, -0.284701), (-0.952628, 3.75, -0.55), (-0.777817, 3.75, -0.777817), (-0.55, 3.75, -0.952628), (-0.284701, 3.75, -1.06252), (0, 3.75, -1.1), (0.284701, 3.75, -1.06252), (0.55, 3.75, -0.952628), (0.777817, 3.75, -0.777817), (0.952628, 3.75, -0.55), (1.06252, 3.75, -0.284701), (1.1, 4.9, 0), (1.06252, 4.9, 0.284701), (0.952628, 4.9, 0.55), (0.777817, 4.9, 0.777817), (0.55, 4.9, 0.952628), (0.284701, 4.9, 1.06252), (0, 4.9, 1.1), (-0.284701, 4.9, 1.06252), (-0.55, 4.9, 0.952628), (-0.777817, 4.9, 0.777817), (-0.952628, 4.9, 0.55), (-1.06252, 4.9, 0.284701), (-1.1, 4.9, 0), (-1.06252, 4.9, -0.284701), (-0.952628, 4.9, -0.55), (-0.777817, 4.9, -0.777817), (-0.55, 4.9, -0.952628), (-0.284701, 4.9, -1.06252), (0, 4.9, -1.1), (0.284701, 4.9, -1.06252), (0.55, 4.9, -0.952628), (0.777817, 4.9, -0.777817), (0.952628, 4.9, -0.55), (1.06252, 4.9, -0.284701), (1.1, 5, 0), (1.06252, 5, 0.284701), (0.952628, 5, 0.55), (0.777817, 5, 0.777817), (0.55, 5, 0.952628), (0.284701, 5, 1.06252), (0, 5, 1.1), (-0.284701, 5, 1.06252), (-0.55, 5, 0.952628), (-0.777817, 5, 0.777817), (-0.952628, 5, 0.55), (-1.06252, 5, 0.284701), (-1.1, 5, 0), (-1.06252, 5, -0.284701), (-0.952628, 5, -0.55), (-0.777817, 5, -0.777817), (-0.55, 5, -0.952628), (-0.284701, 5, -1.06252), (0, 5, -1.1), (0.284701, 5, -1.06252), (0.55, 5, -0.952628), (0.777817, 5, -0.777817), (0.952628, 5, -0.55), (1.06252, 5, -0.284701)]
            uniform token subdivisionScheme = "none"
        }

        def RigExecCurvenet "Net" (
            prepend apiSchemas = ["NodeGraphNodeAPI"]
        )
        {
            uniform token rigExec:basis = "bezier"
            uniform int rigExec:samplesPerSpline = 5
            int[] rigExec:splineIndices = [0, 12, 13, 1, 1, 14, 15, 2, 2, 16, 17, 3, 3, 18, 19, 0, 4, 20, 21, 5, 5, 22, 23, 6, 6, 24, 25, 7, 7, 26, 27, 4, 8, 28, 29, 9, 9, 30, 31, 10, 10, 32, 33, 11, 11, 34, 35, 8, 36, 38, 39, 0, 0, 40, 41, 4, 4, 42, 43, 8, 8, 44, 45, 37, 46, 48, 49, 1, 1, 50, 51, 5, 5, 52, 53, 9, 9, 54, 55, 47, 56, 58, 59, 2, 2, 60, 61, 6, 6, 62, 63, 10, 10, 64, 65, 57, 66, 68, 69, 3, 3, 70, 71, 7, 7, 72, 73, 11, 11, 74, 75, 67]
            point3f[] points = [(1.5, 1.25, 0), (0.0, 1.25, 1.5), (-1.5, 1.25, 0.0), (-0.0, 1.25, -1.5), (1.5, 2.5, 0), (0.0, 2.5, 1.5), (-1.5, 2.5, 0.0), (-0.0, 2.5, -1.5), (1.5, 3.75, 0), (0.0, 3.75, 1.5), (-1.5, 3.75, 0.0), (-0.0, 3.75, -1.5), (1.5, 1.25, 0.828427), (0.828427, 1.25, 1.5), (-0.828427, 1.25, 1.5), (-1.5, 1.25, 0.828427), (-1.5, 1.25, -0.828427), (-0.828427, 1.25, -1.5), (0.828427, 1.25, -1.5), (1.5, 1.25, -0.828427), (1.5, 2.5, 0.828427), (0.828427, 2.5, 1.5), (-0.828427, 2.5, 1.5), (-1.5, 2.5, 0.828427), (-1.5, 2.5, -0.828427), (-0.828427, 2.5, -1.5), (0.828427, 2.5, -1.5), (1.5, 2.5, -0.828427), (1.5, 3.75, 0.828427), (0.828427, 3.75, 1.5), (-0.828427, 3.75, 1.5), (-1.5, 3.75, 0.828427), (-1.5, 3.75, -0.828427), (-0.828427, 3.75, -1.5), (0.828427, 3.75, -1.5), (1.5, 3.75, -0.828427), (1.5, 0.3, 0), (1.5, 4.7, 0), (1.5, 0.616667, 0), (1.5, 0.933333, 0), (1.5, 1.66667, 0), (1.5, 2.08333, 0), (1.5, 2.91667, 0), (1.5, 3.33333, 0), (1.5, 4.06667, 0), (1.5, 4.38333, 0), (0.0, 0.3, 1.5), (0.0, 4.7, 1.5), (0.0, 0.616667, 1.5), (0.0, 0.933333, 1.5), (0.0, 1.66667, 1.5), (0.0, 2.08333, 1.5), (0.0, 2.91667, 1.5), (0.0, 3.33333, 1.5), (0.0, 4.06667, 1.5), (0.0, 4.38333, 1.5), (-1.5, 0.3, 0.0), (-1.5, 4.7, 0.0), (-1.5, 0.616667, 0.0), (-1.5, 0.933333, 0.0), (-1.5, 1.66667, 0.0), (-1.5, 2.08333, 0.0), (-1.5, 2.91667, 0.0), (-1.5, 3.33333, 0.0), (-1.5, 4.06667, 0.0), (-1.5, 4.38333, 0.0), (-0.0, 0.3, -1.5), (-0.0, 4.7, -1.5), (-0.0, 0.616667, -1.5), (-0.0, 0.933333, -1.5), (-0.0, 1.66667, -1.5), (-0.0, 2.08333, -1.5), (-0.0, 2.91667, -1.5), (-0.0, 3.33333, -1.5), (-0.0, 4.06667, -1.5), (-0.0, 4.38333, -1.5)]
            uniform asset ui:nodegraph:node:icon = @../../icons/curvenet.png@
            float[] widths = [0.1, 0.1, 0.1, 0.1, 0.1, 0.1, 0.1, 0.1, 0.1, 0.1, 0.1, 0.1, 0.1, 0.1, 0.1, 0.1, 0.1, 0.1, 0.1, 0.1, 0.1, 0.1, 0.1, 0.1, 0.1, 0.1, 0.1, 0.1, 0.1, 0.1, 0.1, 0.1, 0.1, 0.1, 0.1, 0.1, 0.1, 0.1, 0.1, 0.1, 0.1, 0.1, 0.1, 0.1, 0.1, 0.1, 0.1, 0.1, 0.1, 0.1, 0.1, 0.1, 0.1, 0.1, 0.1, 0.1, 0.1, 0.1, 0.1, 0.1, 0.1, 0.1, 0.1, 0.1, 0.1, 0.1, 0.1, 0.1, 0.1, 0.1, 0.1, 0.1, 0.1, 0.1, 0.1, 0.1]
        }
    }

    def Camera "MainCam"
    {
        float2 clippingRange = (0.1979, 167.4)
        float focalLength = 35
        float horizontalAperture = 20.95
        float verticalAperture = 11.79
        double3 xformOp:rotateXYZ = (-20, 32, 0)
        double3 xformOp:translate = (10.27, 9.355, 15.77)
        uniform token[] xformOpOrder = ["xformOp:translate", "xformOp:rotateXYZ"]
    }
}
