#usda 1.0
(
    """
    Docs example: RigExecDynamicWeight.

    The joint holds a static 35-degree bend and nothing in the rig is
    animated except this weight: inputs:driver sweeps 0.15 -> 1 -> 0.15
    into a painted ramp that climbs from the one-sixth mark to the tip.
    The driver scales the whole painted field at once, so the grey-to-red
    ramp brightens and dims -- and the strip curls further and relaxes --
    while the control and the joint never move. The docs renderer paints
    the consumed field onto the strip (grey at weight 0, red at weight 1),
    so the field and the deformation it causes are the same picture.
    """
    defaultPrim = "DynWeightAsset"
    endTimeCode = 1013
    metersPerUnit = 0.01
    startTimeCode = 1001
    timeCodesPerSecond = 24
    upAxis = "Y"
)

def Xform "DynWeightAsset"
{
    def RigExecRoot "Rig"
    {
        uniform token rigExec:partition = "DynWeightAsset"

        def Scope "Controls"
        {
            def RigExecControl "Bend" (
                prepend apiSchemas = ["RigExecControlAPI", "NodeGraphNodeAPI"]
            )
            {
                double avars:rz = 35
                uniform token guide:shape = "diamond"
                matrix4d rest:space = ( (1, 0, 0, 0), (0, 1, 0, 0), (0, 0, 1, 0), (0, 0, 0, 1) )
                uniform asset ui:nodegraph:node:icon = @../../icons/control.png@
            }
        }

        def Scope "Solvers"
        {
            def RigExecFkChain "Chain" (
                prepend apiSchemas = ["NodeGraphNodeAPI"]
            )
            {
                rel rigExec:controls = </DynWeightAsset/Rig/Controls/Bend>
                rel rigExec:joints = </DynWeightAsset/Rig/Joints/Jnt>
                uniform asset ui:nodegraph:node:icon = @../../icons/fk_chain.png@
            }
        }

        def Scope "Joints"
        {
            def RigExecJoint "Jnt" (
                prepend apiSchemas = ["NodeGraphNodeAPI"]
            )
            {
                matrix4d rest:space = ( (1, 0, 0, 0), (0, 1, 0, 0), (0, 0, 1, 0), (0, 0, 0, 1) )
                uniform asset ui:nodegraph:node:icon = @../../icons/joint.png@
            }
        }

        def Scope "Weights"
        {
            def RigExecStaticWeight "Paint" (
                prepend apiSchemas = ["NodeGraphNodeAPI"]
            )
            {
                uniform float rigExec:defaultWeight = 0
                uniform token rigExec:rangePolicy = "strict"
                uniform token rigExec:representation = "dense"
                uniform float[] rigExec:values = [0, 0, 0, 0, 0.05, 0.1, 0.15, 0.2, 0.25, 0.3, 0.35, 0.4, 0.45, 0.5, 0.55, 0.6, 0.65, 0.7, 0.75, 0.8, 0.85, 0.9, 0.95, 1, 0, 0, 0, 0, 0.05, 0.1, 0.15, 0.2, 0.25, 0.3, 0.35, 0.4, 0.45, 0.5, 0.55, 0.6, 0.65, 0.7, 0.75, 0.8, 0.85, 0.9, 0.95, 1, 0, 0, 0, 0, 0.05, 0.1, 0.15, 0.2, 0.25, 0.3, 0.35, 0.4, 0.45, 0.5, 0.55, 0.6, 0.65, 0.7, 0.75, 0.8, 0.85, 0.9, 0.95, 1, 0, 0, 0, 0, 0.05, 0.1, 0.15, 0.2, 0.25, 0.3, 0.35, 0.4, 0.45, 0.5, 0.55, 0.6, 0.65, 0.7, 0.75, 0.8, 0.85, 0.9, 0.95, 1, 0, 0, 0, 0, 0.05, 0.1, 0.15, 0.2, 0.25, 0.3, 0.35, 0.4, 0.45, 0.5, 0.55, 0.6, 0.65, 0.7, 0.75, 0.8, 0.85, 0.9, 0.95, 1, 0, 0, 0, 0, 0.05, 0.1, 0.15, 0.2, 0.25, 0.3, 0.35, 0.4, 0.45, 0.5, 0.55, 0.6, 0.65, 0.7, 0.75, 0.8, 0.85, 0.9, 0.95, 1]
                rel rigExec:weightTarget = </DynWeightAsset/Geom/Strip.points>
                uniform asset ui:nodegraph:node:icon = @../../icons/static_weight.png@
            }

            def RigExecDynamicWeight "KneeDriven" (
                prepend apiSchemas = ["NodeGraphNodeAPI"]
            )
            {
                float inputs:bias = 0
                float inputs:driver = 0.15
                float inputs:driver.spline = {
                    1001: 0.15; pre (0.15, 0); post linear,
                    1007: 1; post linear,
                    1013: 0.15; post linear,
                }
                float inputs:scale = 1
                rel rigExec:baseWeight = </DynWeightAsset/Rig/Weights/Paint>
                uniform token rigExec:operation = "multiply"
                uniform token rigExec:rangePolicy = "clamp"
                uniform token rigExec:representation = "dense"
                rel rigExec:weightTarget = </DynWeightAsset/Geom/Strip.points>
                uniform asset ui:nodegraph:node:icon = @../../icons/dynamic_weight.png@
            }
        }

        def Scope "Movers"
        {
            def Scope "Geometry"
            {
                def RigExecMatrixMover "Skin" (
                    prepend apiSchemas = ["RigExecMoverAPI", "NodeGraphNodeAPI"]
                )
                {
                    rel rigExec:moves = </DynWeightAsset/Geom/Strip.points>
                    rel rigExec:transform = </DynWeightAsset/Rig/Joints/Jnt>
                    uniform token rigExec:transformReadPhase = "final"
                    rel rigExec:weightObject = </DynWeightAsset/Rig/Weights/KneeDriven>
                    uniform asset ui:nodegraph:node:icon = @../../icons/matrix_mover.png@
                }
            }
        }
    }

    def Scope "Geom"
    {
        def Mesh "Strip"
        {
            color3f[] primvars:displayColor = [(0.55, 0.55, 0.55)]
            float3[] extent = [(0, 0, -1.5), (7.5, 0, 1.5)]
            int[] faceVertexCounts = [4, 4, 4, 4, 4, 4, 4, 4, 4, 4, 4, 4, 4, 4, 4, 4, 4, 4, 4, 4, 4, 4, 4, 4, 4, 4, 4, 4, 4, 4, 4, 4, 4, 4, 4, 4, 4, 4, 4, 4, 4, 4, 4, 4, 4, 4, 4, 4, 4, 4, 4, 4, 4, 4, 4, 4, 4, 4, 4, 4, 4, 4, 4, 4, 4, 4, 4, 4, 4, 4, 4, 4, 4, 4, 4, 4, 4, 4, 4, 4, 4, 4, 4, 4, 4, 4, 4, 4, 4, 4, 4, 4, 4, 4, 4, 4, 4, 4, 4, 4, 4, 4, 4, 4, 4, 4, 4, 4, 4, 4, 4, 4, 4, 4, 4]
            int[] faceVertexIndices = [0, 24, 25, 1, 1, 25, 26, 2, 2, 26, 27, 3, 3, 27, 28, 4, 4, 28, 29, 5, 5, 29, 30, 6, 6, 30, 31, 7, 7, 31, 32, 8, 8, 32, 33, 9, 9, 33, 34, 10, 10, 34, 35, 11, 11, 35, 36, 12, 12, 36, 37, 13, 13, 37, 38, 14, 14, 38, 39, 15, 15, 39, 40, 16, 16, 40, 41, 17, 17, 41, 42, 18, 18, 42, 43, 19, 19, 43, 44, 20, 20, 44, 45, 21, 21, 45, 46, 22, 22, 46, 47, 23, 24, 48, 49, 25, 25, 49, 50, 26, 26, 50, 51, 27, 27, 51, 52, 28, 28, 52, 53, 29, 29, 53, 54, 30, 30, 54, 55, 31, 31, 55, 56, 32, 32, 56, 57, 33, 33, 57, 58, 34, 34, 58, 59, 35, 35, 59, 60, 36, 36, 60, 61, 37, 37, 61, 62, 38, 38, 62, 63, 39, 39, 63, 64, 40, 40, 64, 65, 41, 41, 65, 66, 42, 42, 66, 67, 43, 43, 67, 68, 44, 44, 68, 69, 45, 45, 69, 70, 46, 46, 70, 71, 47, 48, 72, 73, 49, 49, 73, 74, 50, 50, 74, 75, 51, 51, 75, 76, 52, 52, 76, 77, 53, 53, 77, 78, 54, 54, 78, 79, 55, 55, 79, 80, 56, 56, 80, 81, 57, 57, 81, 82, 58, 58, 82, 83, 59, 59, 83, 84, 60, 60, 84, 85, 61, 61, 85, 86, 62, 62, 86, 87, 63, 63, 87, 88, 64, 64, 88, 89, 65, 65, 89, 90, 66, 66, 90, 91, 67, 67, 91, 92, 68, 68, 92, 93, 69, 69, 93, 94, 70, 70, 94, 95, 71, 72, 96, 97, 73, 73, 97, 98, 74, 74, 98, 99, 75, 75, 99, 100, 76, 76, 100, 101, 77, 77, 101, 102, 78, 78, 102, 103, 79, 79, 103, 104, 80, 80, 104, 105, 81, 81, 105, 106, 82, 82, 106, 107, 83, 83, 107, 108, 84, 84, 108, 109, 85, 85, 109, 110, 86, 86, 110, 111, 87, 87, 111, 112, 88, 88, 112, 113, 89, 89, 113, 114, 90, 90, 114, 115, 91, 91, 115, 116, 92, 92, 116, 117, 93, 93, 117, 118, 94, 94, 118, 119, 95, 96, 120, 121, 97, 97, 121, 122, 98, 98, 122, 123, 99, 99, 123, 124, 100, 100, 124, 125, 101, 101, 125, 126, 102, 102, 126, 127, 103, 103, 127, 128, 104, 104, 128, 129, 105, 105, 129, 130, 106, 106, 130, 131, 107, 107, 131, 132, 108, 108, 132, 133, 109, 109, 133, 134, 110, 110, 134, 135, 111, 111, 135, 136, 112, 112, 136, 137, 113, 113, 137, 138, 114, 114, 138, 139, 115, 115, 139, 140, 116, 116, 140, 141, 117, 117, 141, 142, 118, 118, 142, 143, 119]
            normal3f[] normals = [(0, 1, 0), (0, 1, 0), (0, 1, 0), (0, 1, 0), (0, 1, 0), (0, 1, 0), (0, 1, 0), (0, 1, 0), (0, 1, 0), (0, 1, 0), (0, 1, 0), (0, 1, 0), (0, 1, 0), (0, 1, 0), (0, 1, 0), (0, 1, 0), (0, 1, 0), (0, 1, 0), (0, 1, 0), (0, 1, 0), (0, 1, 0), (0, 1, 0), (0, 1, 0), (0, 1, 0), (0, 1, 0), (0, 1, 0), (0, 1, 0), (0, 1, 0), (0, 1, 0), (0, 1, 0), (0, 1, 0), (0, 1, 0), (0, 1, 0), (0, 1, 0), (0, 1, 0), (0, 1, 0), (0, 1, 0), (0, 1, 0), (0, 1, 0), (0, 1, 0), (0, 1, 0), (0, 1, 0), (0, 1, 0), (0, 1, 0), (0, 1, 0), (0, 1, 0), (0, 1, 0), (0, 1, 0), (0, 1, 0), (0, 1, 0), (0, 1, 0), (0, 1, 0), (0, 1, 0), (0, 1, 0), (0, 1, 0), (0, 1, 0), (0, 1, 0), (0, 1, 0), (0, 1, 0), (0, 1, 0), (0, 1, 0), (0, 1, 0), (0, 1, 0), (0, 1, 0), (0, 1, 0), (0, 1, 0), (0, 1, 0), (0, 1, 0), (0, 1, 0), (0, 1, 0), (0, 1, 0), (0, 1, 0), (0, 1, 0), (0, 1, 0), (0, 1, 0), (0, 1, 0), (0, 1, 0), (0, 1, 0), (0, 1, 0), (0, 1, 0), (0, 1, 0), (0, 1, 0), (0, 1, 0), (0, 1, 0), (0, 1, 0), (0, 1, 0), (0, 1, 0), (0, 1, 0), (0, 1, 0), (0, 1, 0), (0, 1, 0), (0, 1, 0), (0, 1, 0), (0, 1, 0), (0, 1, 0), (0, 1, 0), (0, 1, 0), (0, 1, 0), (0, 1, 0), (0, 1, 0), (0, 1, 0), (0, 1, 0), (0, 1, 0), (0, 1, 0), (0, 1, 0), (0, 1, 0), (0, 1, 0), (0, 1, 0), (0, 1, 0), (0, 1, 0), (0, 1, 0), (0, 1, 0), (0, 1, 0), (0, 1, 0), (0, 1, 0), (0, 1, 0), (0, 1, 0), (0, 1, 0), (0, 1, 0), (0, 1, 0), (0, 1, 0), (0, 1, 0), (0, 1, 0), (0, 1, 0), (0, 1, 0), (0, 1, 0), (0, 1, 0), (0, 1, 0), (0, 1, 0), (0, 1, 0), (0, 1, 0), (0, 1, 0), (0, 1, 0), (0, 1, 0), (0, 1, 0), (0, 1, 0), (0, 1, 0), (0, 1, 0), (0, 1, 0), (0, 1, 0), (0, 1, 0), (0, 1, 0), (0, 1, 0), (0, 1, 0)] (
                interpolation = "vertex"
            )
            point3f[] points = [(0, 0, -1.5), (0.3261, 0, -1.5), (0.6522, 0, -1.5), (0.9783, 0, -1.5), (1.3043, 0, -1.5), (1.6304, 0, -1.5), (1.9565, 0, -1.5), (2.2826, 0, -1.5), (2.6087, 0, -1.5), (2.9348, 0, -1.5), (3.2609, 0, -1.5), (3.587, 0, -1.5), (3.913, 0, -1.5), (4.2391, 0, -1.5), (4.5652, 0, -1.5), (4.8913, 0, -1.5), (5.2174, 0, -1.5), (5.5435, 0, -1.5), (5.8696, 0, -1.5), (6.1957, 0, -1.5), (6.5217, 0, -1.5), (6.8478, 0, -1.5), (7.1739, 0, -1.5), (7.5, 0, -1.5), (0, 0, -0.9), (0.3261, 0, -0.9), (0.6522, 0, -0.9), (0.9783, 0, -0.9), (1.3043, 0, -0.9), (1.6304, 0, -0.9), (1.9565, 0, -0.9), (2.2826, 0, -0.9), (2.6087, 0, -0.9), (2.9348, 0, -0.9), (3.2609, 0, -0.9), (3.587, 0, -0.9), (3.913, 0, -0.9), (4.2391, 0, -0.9), (4.5652, 0, -0.9), (4.8913, 0, -0.9), (5.2174, 0, -0.9), (5.5435, 0, -0.9), (5.8696, 0, -0.9), (6.1957, 0, -0.9), (6.5217, 0, -0.9), (6.8478, 0, -0.9), (7.1739, 0, -0.9), (7.5, 0, -0.9), (0, 0, -0.3), (0.3261, 0, -0.3), (0.6522, 0, -0.3), (0.9783, 0, -0.3), (1.3043, 0, -0.3), (1.6304, 0, -0.3), (1.9565, 0, -0.3), (2.2826, 0, -0.3), (2.6087, 0, -0.3), (2.9348, 0, -0.3), (3.2609, 0, -0.3), (3.587, 0, -0.3), (3.913, 0, -0.3), (4.2391, 0, -0.3), (4.5652, 0, -0.3), (4.8913, 0, -0.3), (5.2174, 0, -0.3), (5.5435, 0, -0.3), (5.8696, 0, -0.3), (6.1957, 0, -0.3), (6.5217, 0, -0.3), (6.8478, 0, -0.3), (7.1739, 0, -0.3), (7.5, 0, -0.3), (0, 0, 0.3), (0.3261, 0, 0.3), (0.6522, 0, 0.3), (0.9783, 0, 0.3), (1.3043, 0, 0.3), (1.6304, 0, 0.3), (1.9565, 0, 0.3), (2.2826, 0, 0.3), (2.6087, 0, 0.3), (2.9348, 0, 0.3), (3.2609, 0, 0.3), (3.587, 0, 0.3), (3.913, 0, 0.3), (4.2391, 0, 0.3), (4.5652, 0, 0.3), (4.8913, 0, 0.3), (5.2174, 0, 0.3), (5.5435, 0, 0.3), (5.8696, 0, 0.3), (6.1957, 0, 0.3), (6.5217, 0, 0.3), (6.8478, 0, 0.3), (7.1739, 0, 0.3), (7.5, 0, 0.3), (0, 0, 0.9), (0.3261, 0, 0.9), (0.6522, 0, 0.9), (0.9783, 0, 0.9), (1.3043, 0, 0.9), (1.6304, 0, 0.9), (1.9565, 0, 0.9), (2.2826, 0, 0.9), (2.6087, 0, 0.9), (2.9348, 0, 0.9), (3.2609, 0, 0.9), (3.587, 0, 0.9), (3.913, 0, 0.9), (4.2391, 0, 0.9), (4.5652, 0, 0.9), (4.8913, 0, 0.9), (5.2174, 0, 0.9), (5.5435, 0, 0.9), (5.8696, 0, 0.9), (6.1957, 0, 0.9), (6.5217, 0, 0.9), (6.8478, 0, 0.9), (7.1739, 0, 0.9), (7.5, 0, 0.9), (0, 0, 1.5), (0.3261, 0, 1.5), (0.6522, 0, 1.5), (0.9783, 0, 1.5), (1.3043, 0, 1.5), (1.6304, 0, 1.5), (1.9565, 0, 1.5), (2.2826, 0, 1.5), (2.6087, 0, 1.5), (2.9348, 0, 1.5), (3.2609, 0, 1.5), (3.587, 0, 1.5), (3.913, 0, 1.5), (4.2391, 0, 1.5), (4.5652, 0, 1.5), (4.8913, 0, 1.5), (5.2174, 0, 1.5), (5.5435, 0, 1.5), (5.8696, 0, 1.5), (6.1957, 0, 1.5), (6.5217, 0, 1.5), (6.8478, 0, 1.5), (7.1739, 0, 1.5), (7.5, 0, 1.5)]
            uniform token subdivisionScheme = "none"
        }
    }

    def Camera "MainCam"
    {
        float2 clippingRange = (0.1794, 157.4)
        float focalLength = 35
        float horizontalAperture = 20.95
        float verticalAperture = 11.79
        double3 xformOp:rotateXYZ = (-20, 32, 0)
        double3 xformOp:translate = (12.48, 7.95, 14.14)
        uniform token[] xformOpOrder = ["xformOp:translate", "xformOp:rotateXYZ"]
    }
}
