#usda 1.0
(
    """
    Docs example: the rolling-ball tutorial rig (docs/concepts/
    tutorial-rolling-ball.md).

    A Luxo-style ball: a textured UV sphere of radius 1 sitting on the
    ground, carried by one matrix mover from the last joint of a
    three-joint FK chain.

    Three nested controls drive that chain. Move translates along the
    ground, Squash scales, and Roll spins. The animator keys Move alone:
    Roll's spin is DERIVED from the travel by a float math mover, so the
    ball cannot slide. rz = -tx / radius radians, which at radius 1 is
    -57.29578 degrees per unit of travel; the 8 units between 1001 and
    1049 turn the ball -458.37 degrees, one and a quarter revolutions.

    Squash sits ABOVE Roll so the squash stays vertical while the ball
    spins inside it, and about the ground plane so the contact point
    never leaves it.

    Scrub 1001-1049.
    """
    defaultPrim = "BallAsset"
    endTimeCode = 1049
    metersPerUnit = 0.01
    startTimeCode = 1001
    timeCodesPerSecond = 24
    upAxis = "Y"
)

def Xform "BallAsset"
{
    def RigExecRoot "Rig"
    {
        uniform token rigExec:partition = "BallAsset"

        def Scope "Controls"
        {
            def RigExecControl "Move" (
                prepend apiSchemas = ["RigExecControlAPI", "NodeGraphNodeAPI"]
            )
            {
                double avars:tx = 0
                double avars:tz = 0
                matrix4d rest:space = ( (1, 0, 0, 0), (0, 1, 0, 0), (0, 0, 1, 0), (0, 0, 0, 1) )
                uniform asset ui:nodegraph:node:icon = @../../icons/control.png@
                double avars:tx.spline = {
                    1001: 0; pre (0, 0); post linear,
                    1049: 8; post linear,
                }

                def RigExecControl "Squash" (
                    prepend apiSchemas = ["RigExecControlAPI", "NodeGraphNodeAPI"]
                )
                {
                    double avars:sx = 1
                    double avars:sy = 1
                    double avars:sz = 1
                    matrix4d rest:space = ( (1, 0, 0, 0), (0, 1, 0, 0), (0, 0, 1, 0), (0, 0, 0, 1) )
                    uniform asset ui:nodegraph:node:icon = @../../icons/control.png@

                    def RigExecControl "Roll" (
                        prepend apiSchemas = ["RigExecControlAPI", "NodeGraphNodeAPI"]
                    )
                    {
                        double avars:rz = -57.29578
                        matrix4d rest:space = ( (1, 0, 0, 0), (0, 1, 0, 0), (0, 0, 1, 0), (0, 1, 0, 1) )
                        uniform asset ui:nodegraph:node:icon = @../../icons/control.png@

                        def RigExecControl "Spin" (
                            prepend apiSchemas = ["RigExecControlAPI", "NodeGraphNodeAPI"]
                        )
                        {
                            double avars:rz = 0
                            matrix4d rest:space = ( (1, 0, 0, 0), (0, 1, 0, 0), (0, 0, 1, 0), (0, 0, 0, 1) )
                            uniform asset ui:nodegraph:node:icon = @../../icons/control.png@
                        }
                    }
                }
            }
        }

        def Scope "Joints"
        {
            def RigExecJoint "Root" (
                prepend apiSchemas = ["NodeGraphNodeAPI"]
            )
            {
                matrix4d rest:space = ( (1, 0, 0, 0), (0, 1, 0, 0), (0, 0, 1, 0), (0, 0, 0, 1) )
                uniform asset ui:nodegraph:node:icon = @../../icons/joint.png@

                def RigExecJoint "Squash" (
                    prepend apiSchemas = ["NodeGraphNodeAPI"]
                )
                {
                    matrix4d rest:space = ( (1, 0, 0, 0), (0, 1, 0, 0), (0, 0, 1, 0), (0, 0, 0, 1) )
                    uniform asset ui:nodegraph:node:icon = @../../icons/joint.png@

                    def RigExecJoint "Roll" (
                        prepend apiSchemas = ["NodeGraphNodeAPI"]
                    )
                    {
                        matrix4d rest:space = ( (1, 0, 0, 0), (0, 1, 0, 0), (0, 0, 1, 0), (0, 1, 0, 1) )
                        uniform asset ui:nodegraph:node:icon = @../../icons/joint.png@

                        def RigExecJoint "Spin" (
                            prepend apiSchemas = ["NodeGraphNodeAPI"]
                        )
                        {
                            matrix4d rest:space = ( (1, 0, 0, 0), (0, 1, 0, 0), (0, 0, 1, 0), (0, 0, 0, 1) )
                            uniform asset ui:nodegraph:node:icon = @../../icons/joint.png@
                        }
                    }
                }
            }
        }

        def Scope "Solvers"
        {
            def RigExecFkChain "BallChain" (
                prepend apiSchemas = ["NodeGraphNodeAPI"]
            )
            {
                rel rigExec:controls = [
                    </BallAsset/Rig/Controls/Move>,
                    </BallAsset/Rig/Controls/Move/Squash>,
                    </BallAsset/Rig/Controls/Move/Squash/Roll>,
                    </BallAsset/Rig/Controls/Move/Squash/Roll/Spin>,
                ]
                uniform token rigExec:controlSpace = "parentRelative"
                rel rigExec:joints = [
                    </BallAsset/Rig/Joints/Root>,
                    </BallAsset/Rig/Joints/Root/Squash>,
                    </BallAsset/Rig/Joints/Root/Squash/Roll>,
                    </BallAsset/Rig/Joints/Root/Squash/Roll/Spin>,
                ]
                uniform asset ui:nodegraph:node:icon = @../../icons/fk_chain.png@
            }
        }

        def Scope "Weights"
        {
            def RigExecStaticWeight "BallWeight" (
                prepend apiSchemas = ["NodeGraphNodeAPI"]
            )
            {
                # The one value on this prim that no editor in this
                # build can author: uniform float. Everything else here
                # is its schema fallback.
                uniform float rigExec:defaultWeight = 1
                rel rigExec:weightTarget = </BallAsset/Geom/Ball.points>
                uniform asset ui:nodegraph:node:icon = @../../icons/static_weight.png@
            }
        }

        def Scope "Movers"
        {
            # The no-slip wiring. A math mover reads the travel through a
            # connection on inputs:value and multiplies the roll control's
            # authored "degrees per unit" by it, so the spin is a
            # CONSEQUENCE of the travel and there is nothing to key.
            def RigExecFloatMathMover "RollFromTravelX" (
                prepend apiSchemas = ["RigExecMoverAPI", "NodeGraphNodeAPI"]
            )
            {
                float inputs:value = 0
                float inputs:value.connect = </BallAsset/Rig/Controls/Move.avars:tx>
                rel rigExec:moves = </BallAsset/Rig/Controls/Move/Squash/Roll.avars:rz>
                uniform token rigExec:operation = "multiply"
                uniform asset ui:nodegraph:node:icon = @../../icons/float_math_mover.png@
            }

            def RigExecMatrixMover "BallSkin" (
                prepend apiSchemas = ["RigExecMoverAPI", "NodeGraphNodeAPI"]
            )
            {
                rel rigExec:moves = </BallAsset/Geom/Ball.points>
                rel rigExec:transform = </BallAsset/Rig/Joints/Root/Squash/Roll/Spin>
                rel rigExec:weightObject = </BallAsset/Rig/Weights/BallWeight>
                uniform asset ui:nodegraph:node:icon = @../../icons/matrix_mover.png@
            }
        }
    }

    def Scope "Looks"
    {
        def Material "BallMaterial"
        {
            token outputs:surface.connect = </BallAsset/Looks/BallMaterial/Surface.outputs:surface>

            def Shader "Surface"
            {
                uniform token info:id = "UsdPreviewSurface"
                color3f inputs:diffuseColor.connect = </BallAsset/Looks/BallMaterial/Texture.outputs:rgb>
                color3f inputs:emissiveColor.connect = </BallAsset/Looks/BallMaterial/Flat.outputs:rgb>
                float inputs:metallic = 0
                float inputs:roughness = 0.5
                float inputs:specular = 0.35
                int inputs:useSpecularWorkflow = 0
                token outputs:surface
            }

            def Shader "Texture"
            {
                uniform token info:id = "UsdUVTexture"
                asset inputs:file = @./textures/pixar_ball.png@
                float4 inputs:scale = (0.75, 0.75, 0.75, 1)
                float2 inputs:st.connect = </BallAsset/Looks/BallMaterial/Reader.outputs:result>
                token inputs:wrapS = "repeat"
                token inputs:wrapT = "clamp"
                float3 outputs:rgb
            }

            def Shader "Flat"
            {
                uniform token info:id = "UsdUVTexture"
                asset inputs:file = @./textures/pixar_ball.png@
                float4 inputs:scale = (0.5, 0.5, 0.5, 1)
                float2 inputs:st.connect = </BallAsset/Looks/BallMaterial/Reader.outputs:result>
                token inputs:wrapS = "repeat"
                token inputs:wrapT = "clamp"
                float3 outputs:rgb
            }

            def Shader "Reader"
            {
                uniform token info:id = "UsdPrimvarReader_float2"
                token inputs:varname = "st"
                float2 outputs:result
            }
        }
    }

    def Scope "Geom"
    {
        def Mesh "Ball" (
            prepend apiSchemas = ["MaterialBindingAPI"]
        )
        {
            float3[] extent = [(-1, 0, -1), (1, 2, 1)]
            int[] faceVertexCounts = [3, 3, 3, 3, 3, 3, 3, 3, 3, 3, 3, 3, 3, 3, 3, 3, 3, 3, 3, 3, 3, 3, 3, 3, 3, 3, 3, 3, 3, 3, 3, 3, 4, 4, 4, 4, 4, 4, 4, 4, 4, 4, 4, 4, 4, 4, 4, 4, 4, 4, 4, 4, 4, 4, 4, 4, 4, 4, 4, 4, 4, 4, 4, 4, 4, 4, 4, 4, 4, 4, 4, 4, 4, 4, 4, 4, 4, 4, 4, 4, 4, 4, 4, 4, 4, 4, 4, 4, 4, 4, 4, 4, 4, 4, 4, 4, 4, 4, 4, 4, 4, 4, 4, 4, 4, 4, 4, 4, 4, 4, 4, 4, 4, 4, 4, 4, 4, 4, 4, 4, 4, 4, 4, 4, 4, 4, 4, 4, 4, 4, 4, 4, 4, 4, 4, 4, 4, 4, 4, 4, 4, 4, 4, 4, 4, 4, 4, 4, 4, 4, 4, 4, 4, 4, 4, 4, 4, 4, 4, 4, 4, 4, 4, 4, 4, 4, 4, 4, 4, 4, 4, 4, 4, 4, 4, 4, 4, 4, 4, 4, 4, 4, 4, 4, 4, 4, 4, 4, 4, 4, 4, 4, 4, 4, 4, 4, 4, 4, 4, 4, 4, 4, 4, 4, 4, 4, 4, 4, 4, 4, 4, 4, 4, 4, 4, 4, 4, 4, 4, 4, 4, 4, 4, 4, 4, 4, 4, 4, 4, 4, 4, 4, 4, 4, 4, 4, 4, 4, 4, 4, 4, 4, 4, 4, 4, 4, 4, 4, 4, 4, 4, 4, 4, 4, 4, 4, 4, 4, 4, 4, 4, 4, 4, 4, 4, 4, 4, 4, 4, 4, 4, 4, 4, 4, 4, 4, 4, 4, 4, 4, 4, 4, 4, 4, 4, 4, 4, 4, 4, 4, 4, 4, 4, 4, 4, 4, 4, 4, 4, 4, 4, 4, 4, 4, 4, 4, 4, 4, 4, 4, 4, 4, 4, 4, 4, 4, 4, 4, 4, 4, 4, 4, 4, 4, 4, 4, 4, 4, 4, 4, 4, 4, 4, 4, 4, 4, 4, 4, 4, 4, 4, 4, 4, 4, 4, 4, 4, 4, 4, 4, 4, 4, 4, 4, 4, 4, 4, 4, 4, 4, 4, 4, 4, 4, 4, 4, 4, 4, 4, 4, 4, 4, 4, 4, 4, 4, 4, 4, 4, 4, 4, 4, 4, 4, 4, 4, 4, 4, 4, 4, 4, 4, 4, 4, 4, 4, 4, 4, 4, 4, 4, 4, 4, 4, 4, 4, 4, 4, 4, 4, 4, 4, 4, 4, 4, 4, 4, 4, 4, 4, 4, 4, 4, 4, 4, 4, 4, 4, 4, 4, 4, 4, 4, 4, 4, 4, 4, 4, 4, 4, 4, 4, 4, 4, 4, 4, 4, 4, 4, 4, 4, 4, 4, 4, 4, 4, 4, 4, 4, 4, 4, 4, 4, 4, 4, 4, 4, 4, 4, 4, 4, 4, 4, 4, 4, 4, 4, 4, 4, 4, 3, 3, 3, 3, 3, 3, 3, 3, 3, 3, 3, 3, 3, 3, 3, 3, 3, 3, 3, 3, 3, 3, 3, 3, 3, 3, 3, 3, 3, 3, 3, 3]
            int[] faceVertexIndices = [0, 2, 1, 0, 3, 2, 0, 4, 3, 0, 5, 4, 0, 6, 5, 0, 7, 6, 0, 8, 7, 0, 9, 8, 0, 10, 9, 0, 11, 10, 0, 12, 11, 0, 13, 12, 0, 14, 13, 0, 15, 14, 0, 16, 15, 0, 17, 16, 0, 18, 17, 0, 19, 18, 0, 20, 19, 0, 21, 20, 0, 22, 21, 0, 23, 22, 0, 24, 23, 0, 25, 24, 0, 26, 25, 0, 27, 26, 0, 28, 27, 0, 29, 28, 0, 30, 29, 0, 31, 30, 0, 32, 31, 0, 1, 32, 1, 2, 34, 33, 2, 3, 35, 34, 3, 4, 36, 35, 4, 5, 37, 36, 5, 6, 38, 37, 6, 7, 39, 38, 7, 8, 40, 39, 8, 9, 41, 40, 9, 10, 42, 41, 10, 11, 43, 42, 11, 12, 44, 43, 12, 13, 45, 44, 13, 14, 46, 45, 14, 15, 47, 46, 15, 16, 48, 47, 16, 17, 49, 48, 17, 18, 50, 49, 18, 19, 51, 50, 19, 20, 52, 51, 20, 21, 53, 52, 21, 22, 54, 53, 22, 23, 55, 54, 23, 24, 56, 55, 24, 25, 57, 56, 25, 26, 58, 57, 26, 27, 59, 58, 27, 28, 60, 59, 28, 29, 61, 60, 29, 30, 62, 61, 30, 31, 63, 62, 31, 32, 64, 63, 32, 1, 33, 64, 33, 34, 66, 65, 34, 35, 67, 66, 35, 36, 68, 67, 36, 37, 69, 68, 37, 38, 70, 69, 38, 39, 71, 70, 39, 40, 72, 71, 40, 41, 73, 72, 41, 42, 74, 73, 42, 43, 75, 74, 43, 44, 76, 75, 44, 45, 77, 76, 45, 46, 78, 77, 46, 47, 79, 78, 47, 48, 80, 79, 48, 49, 81, 80, 49, 50, 82, 81, 50, 51, 83, 82, 51, 52, 84, 83, 52, 53, 85, 84, 53, 54, 86, 85, 54, 55, 87, 86, 55, 56, 88, 87, 56, 57, 89, 88, 57, 58, 90, 89, 58, 59, 91, 90, 59, 60, 92, 91, 60, 61, 93, 92, 61, 62, 94, 93, 62, 63, 95, 94, 63, 64, 96, 95, 64, 33, 65, 96, 65, 66, 98, 97, 66, 67, 99, 98, 67, 68, 100, 99, 68, 69, 101, 100, 69, 70, 102, 101, 70, 71, 103, 102, 71, 72, 104, 103, 72, 73, 105, 104, 73, 74, 106, 105, 74, 75, 107, 106, 75, 76, 108, 107, 76, 77, 109, 108, 77, 78, 110, 109, 78, 79, 111, 110, 79, 80, 112, 111, 80, 81, 113, 112, 81, 82, 114, 113, 82, 83, 115, 114, 83, 84, 116, 115, 84, 85, 117, 116, 85, 86, 118, 117, 86, 87, 119, 118, 87, 88, 120, 119, 88, 89, 121, 120, 89, 90, 122, 121, 90, 91, 123, 122, 91, 92, 124, 123, 92, 93, 125, 124, 93, 94, 126, 125, 94, 95, 127, 126, 95, 96, 128, 127, 96, 65, 97, 128, 97, 98, 130, 129, 98, 99, 131, 130, 99, 100, 132, 131, 100, 101, 133, 132, 101, 102, 134, 133, 102, 103, 135, 134, 103, 104, 136, 135, 104, 105, 137, 136, 105, 106, 138, 137, 106, 107, 139, 138, 107, 108, 140, 139, 108, 109, 141, 140, 109, 110, 142, 141, 110, 111, 143, 142, 111, 112, 144, 143, 112, 113, 145, 144, 113, 114, 146, 145, 114, 115, 147, 146, 115, 116, 148, 147, 116, 117, 149, 148, 117, 118, 150, 149, 118, 119, 151, 150, 119, 120, 152, 151, 120, 121, 153, 152, 121, 122, 154, 153, 122, 123, 155, 154, 123, 124, 156, 155, 124, 125, 157, 156, 125, 126, 158, 157, 126, 127, 159, 158, 127, 128, 160, 159, 128, 97, 129, 160, 129, 130, 162, 161, 130, 131, 163, 162, 131, 132, 164, 163, 132, 133, 165, 164, 133, 134, 166, 165, 134, 135, 167, 166, 135, 136, 168, 167, 136, 137, 169, 168, 137, 138, 170, 169, 138, 139, 171, 170, 139, 140, 172, 171, 140, 141, 173, 172, 141, 142, 174, 173, 142, 143, 175, 174, 143, 144, 176, 175, 144, 145, 177, 176, 145, 146, 178, 177, 146, 147, 179, 178, 147, 148, 180, 179, 148, 149, 181, 180, 149, 150, 182, 181, 150, 151, 183, 182, 151, 152, 184, 183, 152, 153, 185, 184, 153, 154, 186, 185, 154, 155, 187, 186, 155, 156, 188, 187, 156, 157, 189, 188, 157, 158, 190, 189, 158, 159, 191, 190, 159, 160, 192, 191, 160, 129, 161, 192, 161, 162, 194, 193, 162, 163, 195, 194, 163, 164, 196, 195, 164, 165, 197, 196, 165, 166, 198, 197, 166, 167, 199, 198, 167, 168, 200, 199, 168, 169, 201, 200, 169, 170, 202, 201, 170, 171, 203, 202, 171, 172, 204, 203, 172, 173, 205, 204, 173, 174, 206, 205, 174, 175, 207, 206, 175, 176, 208, 207, 176, 177, 209, 208, 177, 178, 210, 209, 178, 179, 211, 210, 179, 180, 212, 211, 180, 181, 213, 212, 181, 182, 214, 213, 182, 183, 215, 214, 183, 184, 216, 215, 184, 185, 217, 216, 185, 186, 218, 217, 186, 187, 219, 218, 187, 188, 220, 219, 188, 189, 221, 220, 189, 190, 222, 221, 190, 191, 223, 222, 191, 192, 224, 223, 192, 161, 193, 224, 193, 194, 226, 225, 194, 195, 227, 226, 195, 196, 228, 227, 196, 197, 229, 228, 197, 198, 230, 229, 198, 199, 231, 230, 199, 200, 232, 231, 200, 201, 233, 232, 201, 202, 234, 233, 202, 203, 235, 234, 203, 204, 236, 235, 204, 205, 237, 236, 205, 206, 238, 237, 206, 207, 239, 238, 207, 208, 240, 239, 208, 209, 241, 240, 209, 210, 242, 241, 210, 211, 243, 242, 211, 212, 244, 243, 212, 213, 245, 244, 213, 214, 246, 245, 214, 215, 247, 246, 215, 216, 248, 247, 216, 217, 249, 248, 217, 218, 250, 249, 218, 219, 251, 250, 219, 220, 252, 251, 220, 221, 253, 252, 221, 222, 254, 253, 222, 223, 255, 254, 223, 224, 256, 255, 224, 193, 225, 256, 225, 226, 258, 257, 226, 227, 259, 258, 227, 228, 260, 259, 228, 229, 261, 260, 229, 230, 262, 261, 230, 231, 263, 262, 231, 232, 264, 263, 232, 233, 265, 264, 233, 234, 266, 265, 234, 235, 267, 266, 235, 236, 268, 267, 236, 237, 269, 268, 237, 238, 270, 269, 238, 239, 271, 270, 239, 240, 272, 271, 240, 241, 273, 272, 241, 242, 274, 273, 242, 243, 275, 274, 243, 244, 276, 275, 244, 245, 277, 276, 245, 246, 278, 277, 246, 247, 279, 278, 247, 248, 280, 279, 248, 249, 281, 280, 249, 250, 282, 281, 250, 251, 283, 282, 251, 252, 284, 283, 252, 253, 285, 284, 253, 254, 286, 285, 254, 255, 287, 286, 255, 256, 288, 287, 256, 225, 257, 288, 257, 258, 290, 289, 258, 259, 291, 290, 259, 260, 292, 291, 260, 261, 293, 292, 261, 262, 294, 293, 262, 263, 295, 294, 263, 264, 296, 295, 264, 265, 297, 296, 265, 266, 298, 297, 266, 267, 299, 298, 267, 268, 300, 299, 268, 269, 301, 300, 269, 270, 302, 301, 270, 271, 303, 302, 271, 272, 304, 303, 272, 273, 305, 304, 273, 274, 306, 305, 274, 275, 307, 306, 275, 276, 308, 307, 276, 277, 309, 308, 277, 278, 310, 309, 278, 279, 311, 310, 279, 280, 312, 311, 280, 281, 313, 312, 281, 282, 314, 313, 282, 283, 315, 314, 283, 284, 316, 315, 284, 285, 317, 316, 285, 286, 318, 317, 286, 287, 319, 318, 287, 288, 320, 319, 288, 257, 289, 320, 289, 290, 322, 321, 290, 291, 323, 322, 291, 292, 324, 323, 292, 293, 325, 324, 293, 294, 326, 325, 294, 295, 327, 326, 295, 296, 328, 327, 296, 297, 329, 328, 297, 298, 330, 329, 298, 299, 331, 330, 299, 300, 332, 331, 300, 301, 333, 332, 301, 302, 334, 333, 302, 303, 335, 334, 303, 304, 336, 335, 304, 305, 337, 336, 305, 306, 338, 337, 306, 307, 339, 338, 307, 308, 340, 339, 308, 309, 341, 340, 309, 310, 342, 341, 310, 311, 343, 342, 311, 312, 344, 343, 312, 313, 345, 344, 313, 314, 346, 345, 314, 315, 347, 346, 315, 316, 348, 347, 316, 317, 349, 348, 317, 318, 350, 349, 318, 319, 351, 350, 319, 320, 352, 351, 320, 289, 321, 352, 321, 322, 354, 353, 322, 323, 355, 354, 323, 324, 356, 355, 324, 325, 357, 356, 325, 326, 358, 357, 326, 327, 359, 358, 327, 328, 360, 359, 328, 329, 361, 360, 329, 330, 362, 361, 330, 331, 363, 362, 331, 332, 364, 363, 332, 333, 365, 364, 333, 334, 366, 365, 334, 335, 367, 366, 335, 336, 368, 367, 336, 337, 369, 368, 337, 338, 370, 369, 338, 339, 371, 370, 339, 340, 372, 371, 340, 341, 373, 372, 341, 342, 374, 373, 342, 343, 375, 374, 343, 344, 376, 375, 344, 345, 377, 376, 345, 346, 378, 377, 346, 347, 379, 378, 347, 348, 380, 379, 348, 349, 381, 380, 349, 350, 382, 381, 350, 351, 383, 382, 351, 352, 384, 383, 352, 321, 353, 384, 353, 354, 386, 385, 354, 355, 387, 386, 355, 356, 388, 387, 356, 357, 389, 388, 357, 358, 390, 389, 358, 359, 391, 390, 359, 360, 392, 391, 360, 361, 393, 392, 361, 362, 394, 393, 362, 363, 395, 394, 363, 364, 396, 395, 364, 365, 397, 396, 365, 366, 398, 397, 366, 367, 399, 398, 367, 368, 400, 399, 368, 369, 401, 400, 369, 370, 402, 401, 370, 371, 403, 402, 371, 372, 404, 403, 372, 373, 405, 404, 373, 374, 406, 405, 374, 375, 407, 406, 375, 376, 408, 407, 376, 377, 409, 408, 377, 378, 410, 409, 378, 379, 411, 410, 379, 380, 412, 411, 380, 381, 413, 412, 381, 382, 414, 413, 382, 383, 415, 414, 383, 384, 416, 415, 384, 353, 385, 416, 385, 386, 418, 417, 386, 387, 419, 418, 387, 388, 420, 419, 388, 389, 421, 420, 389, 390, 422, 421, 390, 391, 423, 422, 391, 392, 424, 423, 392, 393, 425, 424, 393, 394, 426, 425, 394, 395, 427, 426, 395, 396, 428, 427, 396, 397, 429, 428, 397, 398, 430, 429, 398, 399, 431, 430, 399, 400, 432, 431, 400, 401, 433, 432, 401, 402, 434, 433, 402, 403, 435, 434, 403, 404, 436, 435, 404, 405, 437, 436, 405, 406, 438, 437, 406, 407, 439, 438, 407, 408, 440, 439, 408, 409, 441, 440, 409, 410, 442, 441, 410, 411, 443, 442, 411, 412, 444, 443, 412, 413, 445, 444, 413, 414, 446, 445, 414, 415, 447, 446, 415, 416, 448, 447, 416, 385, 417, 448, 417, 418, 450, 449, 418, 419, 451, 450, 419, 420, 452, 451, 420, 421, 453, 452, 421, 422, 454, 453, 422, 423, 455, 454, 423, 424, 456, 455, 424, 425, 457, 456, 425, 426, 458, 457, 426, 427, 459, 458, 427, 428, 460, 459, 428, 429, 461, 460, 429, 430, 462, 461, 430, 431, 463, 462, 431, 432, 464, 463, 432, 433, 465, 464, 433, 434, 466, 465, 434, 435, 467, 466, 435, 436, 468, 467, 436, 437, 469, 468, 437, 438, 470, 469, 438, 439, 471, 470, 439, 440, 472, 471, 440, 441, 473, 472, 441, 442, 474, 473, 442, 443, 475, 474, 443, 444, 476, 475, 444, 445, 477, 476, 445, 446, 478, 477, 446, 447, 479, 478, 447, 448, 480, 479, 448, 417, 449, 480, 449, 450, 481, 450, 451, 481, 451, 452, 481, 452, 453, 481, 453, 454, 481, 454, 455, 481, 455, 456, 481, 456, 457, 481, 457, 458, 481, 458, 459, 481, 459, 460, 481, 460, 461, 481, 461, 462, 481, 462, 463, 481, 463, 464, 481, 464, 465, 481, 465, 466, 481, 466, 467, 481, 467, 468, 481, 468, 469, 481, 469, 470, 481, 470, 471, 481, 471, 472, 481, 472, 473, 481, 473, 474, 481, 474, 475, 481, 475, 476, 481, 476, 477, 481, 477, 478, 481, 478, 479, 481, 479, 480, 481, 480, 449, 481]
            rel material:binding = </BallAsset/Looks/BallMaterial>
            point3f[] points = [(0, 2, 0), (0, 1.980785, 0.19509), (0.03806, 1.980785, 0.191342), (0.074658, 1.980785, 0.18024), (0.108386, 1.980785, 0.162212), (0.13795, 1.980785, 0.13795), (0.162212, 1.980785, 0.108386), (0.18024, 1.980785, 0.074658), (0.191342, 1.980785, 0.03806), (0.19509, 1.980785, 0), (0.191342, 1.980785, -0.03806), (0.18024, 1.980785, -0.074658), (0.162212, 1.980785, -0.108386), (0.13795, 1.980785, -0.13795), (0.108386, 1.980785, -0.162212), (0.074658, 1.980785, -0.18024), (0.03806, 1.980785, -0.191342), (0, 1.980785, -0.19509), (-0.03806, 1.980785, -0.191342), (-0.074658, 1.980785, -0.18024), (-0.108386, 1.980785, -0.162212), (-0.13795, 1.980785, -0.13795), (-0.162212, 1.980785, -0.108386), (-0.18024, 1.980785, -0.074658), (-0.191342, 1.980785, -0.03806), (-0.19509, 1.980785, 0), (-0.191342, 1.980785, 0.03806), (-0.18024, 1.980785, 0.074658), (-0.162212, 1.980785, 0.108386), (-0.13795, 1.980785, 0.13795), (-0.108386, 1.980785, 0.162212), (-0.074658, 1.980785, 0.18024), (-0.03806, 1.980785, 0.191342), (0, 1.92388, 0.382683), (0.074658, 1.92388, 0.37533), (0.146447, 1.92388, 0.353553), (0.212608, 1.92388, 0.31819), (0.270598, 1.92388, 0.270598), (0.31819, 1.92388, 0.212608), (0.353553, 1.92388, 0.146447), (0.37533, 1.92388, 0.074658), (0.382683, 1.92388, 0), (0.37533, 1.92388, -0.074658), (0.353553, 1.92388, -0.146447), (0.31819, 1.92388, -0.212608), (0.270598, 1.92388, -0.270598), (0.212608, 1.92388, -0.31819), (0.146447, 1.92388, -0.353553), (0.074658, 1.92388, -0.37533), (0, 1.92388, -0.382683), (-0.074658, 1.92388, -0.37533), (-0.146447, 1.92388, -0.353553), (-0.212608, 1.92388, -0.31819), (-0.270598, 1.92388, -0.270598), (-0.31819, 1.92388, -0.212608), (-0.353553, 1.92388, -0.146447), (-0.37533, 1.92388, -0.074658), (-0.382683, 1.92388, 0), (-0.37533, 1.92388, 0.074658), (-0.353553, 1.92388, 0.146447), (-0.31819, 1.92388, 0.212608), (-0.270598, 1.92388, 0.270598), (-0.212608, 1.92388, 0.31819), (-0.146447, 1.92388, 0.353553), (-0.074658, 1.92388, 0.37533), (0, 1.83147, 0.55557), (0.108386, 1.83147, 0.544895), (0.212608, 1.83147, 0.51328), (0.308658, 1.83147, 0.46194), (0.392847, 1.83147, 0.392847), (0.46194, 1.83147, 0.308658), (0.51328, 1.83147, 0.212608), (0.544895, 1.83147, 0.108386), (0.55557, 1.83147, 0), (0.544895, 1.83147, -0.108386), (0.51328, 1.83147, -0.212608), (0.46194, 1.83147, -0.308658), (0.392847, 1.83147, -0.392847), (0.308658, 1.83147, -0.46194), (0.212608, 1.83147, -0.51328), (0.108386, 1.83147, -0.544895), (0, 1.83147, -0.55557), (-0.108386, 1.83147, -0.544895), (-0.212608, 1.83147, -0.51328), (-0.308658, 1.83147, -0.46194), (-0.392847, 1.83147, -0.392847), (-0.46194, 1.83147, -0.308658), (-0.51328, 1.83147, -0.212608), (-0.544895, 1.83147, -0.108386), (-0.55557, 1.83147, 0), (-0.544895, 1.83147, 0.108386), (-0.51328, 1.83147, 0.212608), (-0.46194, 1.83147, 0.308658), (-0.392847, 1.83147, 0.392847), (-0.308658, 1.83147, 0.46194), (-0.212608, 1.83147, 0.51328), (-0.108386, 1.83147, 0.544895), (0, 1.707107, 0.707107), (0.13795, 1.707107, 0.69352), (0.270598, 1.707107, 0.653281), (0.392847, 1.707107, 0.587938), (0.5, 1.707107, 0.5), (0.587938, 1.707107, 0.392847), (0.653281, 1.707107, 0.270598), (0.69352, 1.707107, 0.13795), (0.707107, 1.707107, 0), (0.69352, 1.707107, -0.13795), (0.653281, 1.707107, -0.270598), (0.587938, 1.707107, -0.392847), (0.5, 1.707107, -0.5), (0.392847, 1.707107, -0.587938), (0.270598, 1.707107, -0.653281), (0.13795, 1.707107, -0.69352), (0, 1.707107, -0.707107), (-0.13795, 1.707107, -0.69352), (-0.270598, 1.707107, -0.653281), (-0.392847, 1.707107, -0.587938), (-0.5, 1.707107, -0.5), (-0.587938, 1.707107, -0.392847), (-0.653281, 1.707107, -0.270598), (-0.69352, 1.707107, -0.13795), (-0.707107, 1.707107, 0), (-0.69352, 1.707107, 0.13795), (-0.653281, 1.707107, 0.270598), (-0.587938, 1.707107, 0.392847), (-0.5, 1.707107, 0.5), (-0.392847, 1.707107, 0.587938), (-0.270598, 1.707107, 0.653281), (-0.13795, 1.707107, 0.69352), (0, 1.55557, 0.83147), (0.162212, 1.55557, 0.815493), (0.31819, 1.55557, 0.768178), (0.46194, 1.55557, 0.691342), (0.587938, 1.55557, 0.587938), (0.691342, 1.55557, 0.46194), (0.768178, 1.55557, 0.31819), (0.815493, 1.55557, 0.162212), (0.83147, 1.55557, 0), (0.815493, 1.55557, -0.162212), (0.768178, 1.55557, -0.31819), (0.691342, 1.55557, -0.46194), (0.587938, 1.55557, -0.587938), (0.46194, 1.55557, -0.691342), (0.31819, 1.55557, -0.768178), (0.162212, 1.55557, -0.815493), (0, 1.55557, -0.83147), (-0.162212, 1.55557, -0.815493), (-0.31819, 1.55557, -0.768178), (-0.46194, 1.55557, -0.691342), (-0.587938, 1.55557, -0.587938), (-0.691342, 1.55557, -0.46194), (-0.768178, 1.55557, -0.31819), (-0.815493, 1.55557, -0.162212), (-0.83147, 1.55557, 0), (-0.815493, 1.55557, 0.162212), (-0.768178, 1.55557, 0.31819), (-0.691342, 1.55557, 0.46194), (-0.587938, 1.55557, 0.587938), (-0.46194, 1.55557, 0.691342), (-0.31819, 1.55557, 0.768178), (-0.162212, 1.55557, 0.815493), (0, 1.382683, 0.92388), (0.18024, 1.382683, 0.906127), (0.353553, 1.382683, 0.853553), (0.51328, 1.382683, 0.768178), (0.653281, 1.382683, 0.653281), (0.768178, 1.382683, 0.51328), (0.853553, 1.382683, 0.353553), (0.906127, 1.382683, 0.18024), (0.92388, 1.382683, 0), (0.906127, 1.382683, -0.18024), (0.853553, 1.382683, -0.353553), (0.768178, 1.382683, -0.51328), (0.653281, 1.382683, -0.653281), (0.51328, 1.382683, -0.768178), (0.353553, 1.382683, -0.853553), (0.18024, 1.382683, -0.906127), (0, 1.382683, -0.92388), (-0.18024, 1.382683, -0.906127), (-0.353553, 1.382683, -0.853553), (-0.51328, 1.382683, -0.768178), (-0.653281, 1.382683, -0.653281), (-0.768178, 1.382683, -0.51328), (-0.853553, 1.382683, -0.353553), (-0.906127, 1.382683, -0.18024), (-0.92388, 1.382683, 0), (-0.906127, 1.382683, 0.18024), (-0.853553, 1.382683, 0.353553), (-0.768178, 1.382683, 0.51328), (-0.653281, 1.382683, 0.653281), (-0.51328, 1.382683, 0.768178), (-0.353553, 1.382683, 0.853553), (-0.18024, 1.382683, 0.906127), (0, 1.19509, 0.980785), (0.191342, 1.19509, 0.96194), (0.37533, 1.19509, 0.906127), (0.544895, 1.19509, 0.815493), (0.69352, 1.19509, 0.69352), (0.815493, 1.19509, 0.544895), (0.906127, 1.19509, 0.37533), (0.96194, 1.19509, 0.191342), (0.980785, 1.19509, 0), (0.96194, 1.19509, -0.191342), (0.906127, 1.19509, -0.37533), (0.815493, 1.19509, -0.544895), (0.69352, 1.19509, -0.69352), (0.544895, 1.19509, -0.815493), (0.37533, 1.19509, -0.906127), (0.191342, 1.19509, -0.96194), (0, 1.19509, -0.980785), (-0.191342, 1.19509, -0.96194), (-0.37533, 1.19509, -0.906127), (-0.544895, 1.19509, -0.815493), (-0.69352, 1.19509, -0.69352), (-0.815493, 1.19509, -0.544895), (-0.906127, 1.19509, -0.37533), (-0.96194, 1.19509, -0.191342), (-0.980785, 1.19509, 0), (-0.96194, 1.19509, 0.191342), (-0.906127, 1.19509, 0.37533), (-0.815493, 1.19509, 0.544895), (-0.69352, 1.19509, 0.69352), (-0.544895, 1.19509, 0.815493), (-0.37533, 1.19509, 0.906127), (-0.191342, 1.19509, 0.96194), (0, 1, 1), (0.19509, 1, 0.980785), (0.382683, 1, 0.92388), (0.55557, 1, 0.83147), (0.707107, 1, 0.707107), (0.83147, 1, 0.55557), (0.92388, 1, 0.382683), (0.980785, 1, 0.19509), (1, 1, 0), (0.980785, 1, -0.19509), (0.92388, 1, -0.382683), (0.83147, 1, -0.55557), (0.707107, 1, -0.707107), (0.55557, 1, -0.83147), (0.382683, 1, -0.92388), (0.19509, 1, -0.980785), (0, 1, -1), (-0.19509, 1, -0.980785), (-0.382683, 1, -0.92388), (-0.55557, 1, -0.83147), (-0.707107, 1, -0.707107), (-0.83147, 1, -0.55557), (-0.92388, 1, -0.382683), (-0.980785, 1, -0.19509), (-1, 1, 0), (-0.980785, 1, 0.19509), (-0.92388, 1, 0.382683), (-0.83147, 1, 0.55557), (-0.707107, 1, 0.707107), (-0.55557, 1, 0.83147), (-0.382683, 1, 0.92388), (-0.19509, 1, 0.980785), (0, 0.80491, 0.980785), (0.191342, 0.80491, 0.96194), (0.37533, 0.80491, 0.906127), (0.544895, 0.80491, 0.815493), (0.69352, 0.80491, 0.69352), (0.815493, 0.80491, 0.544895), (0.906127, 0.80491, 0.37533), (0.96194, 0.80491, 0.191342), (0.980785, 0.80491, 0), (0.96194, 0.80491, -0.191342), (0.906127, 0.80491, -0.37533), (0.815493, 0.80491, -0.544895), (0.69352, 0.80491, -0.69352), (0.544895, 0.80491, -0.815493), (0.37533, 0.80491, -0.906127), (0.191342, 0.80491, -0.96194), (0, 0.80491, -0.980785), (-0.191342, 0.80491, -0.96194), (-0.37533, 0.80491, -0.906127), (-0.544895, 0.80491, -0.815493), (-0.69352, 0.80491, -0.69352), (-0.815493, 0.80491, -0.544895), (-0.906127, 0.80491, -0.37533), (-0.96194, 0.80491, -0.191342), (-0.980785, 0.80491, 0), (-0.96194, 0.80491, 0.191342), (-0.906127, 0.80491, 0.37533), (-0.815493, 0.80491, 0.544895), (-0.69352, 0.80491, 0.69352), (-0.544895, 0.80491, 0.815493), (-0.37533, 0.80491, 0.906127), (-0.191342, 0.80491, 0.96194), (0, 0.617317, 0.92388), (0.18024, 0.617317, 0.906127), (0.353553, 0.617317, 0.853553), (0.51328, 0.617317, 0.768178), (0.653281, 0.617317, 0.653281), (0.768178, 0.617317, 0.51328), (0.853553, 0.617317, 0.353553), (0.906127, 0.617317, 0.18024), (0.92388, 0.617317, 0), (0.906127, 0.617317, -0.18024), (0.853553, 0.617317, -0.353553), (0.768178, 0.617317, -0.51328), (0.653281, 0.617317, -0.653281), (0.51328, 0.617317, -0.768178), (0.353553, 0.617317, -0.853553), (0.18024, 0.617317, -0.906127), (0, 0.617317, -0.92388), (-0.18024, 0.617317, -0.906127), (-0.353553, 0.617317, -0.853553), (-0.51328, 0.617317, -0.768178), (-0.653281, 0.617317, -0.653281), (-0.768178, 0.617317, -0.51328), (-0.853553, 0.617317, -0.353553), (-0.906127, 0.617317, -0.18024), (-0.92388, 0.617317, 0), (-0.906127, 0.617317, 0.18024), (-0.853553, 0.617317, 0.353553), (-0.768178, 0.617317, 0.51328), (-0.653281, 0.617317, 0.653281), (-0.51328, 0.617317, 0.768178), (-0.353553, 0.617317, 0.853553), (-0.18024, 0.617317, 0.906127), (0, 0.44443, 0.83147), (0.162212, 0.44443, 0.815493), (0.31819, 0.44443, 0.768178), (0.46194, 0.44443, 0.691342), (0.587938, 0.44443, 0.587938), (0.691342, 0.44443, 0.46194), (0.768178, 0.44443, 0.31819), (0.815493, 0.44443, 0.162212), (0.83147, 0.44443, 0), (0.815493, 0.44443, -0.162212), (0.768178, 0.44443, -0.31819), (0.691342, 0.44443, -0.46194), (0.587938, 0.44443, -0.587938), (0.46194, 0.44443, -0.691342), (0.31819, 0.44443, -0.768178), (0.162212, 0.44443, -0.815493), (0, 0.44443, -0.83147), (-0.162212, 0.44443, -0.815493), (-0.31819, 0.44443, -0.768178), (-0.46194, 0.44443, -0.691342), (-0.587938, 0.44443, -0.587938), (-0.691342, 0.44443, -0.46194), (-0.768178, 0.44443, -0.31819), (-0.815493, 0.44443, -0.162212), (-0.83147, 0.44443, 0), (-0.815493, 0.44443, 0.162212), (-0.768178, 0.44443, 0.31819), (-0.691342, 0.44443, 0.46194), (-0.587938, 0.44443, 0.587938), (-0.46194, 0.44443, 0.691342), (-0.31819, 0.44443, 0.768178), (-0.162212, 0.44443, 0.815493), (0, 0.292893, 0.707107), (0.13795, 0.292893, 0.69352), (0.270598, 0.292893, 0.653281), (0.392847, 0.292893, 0.587938), (0.5, 0.292893, 0.5), (0.587938, 0.292893, 0.392847), (0.653281, 0.292893, 0.270598), (0.69352, 0.292893, 0.13795), (0.707107, 0.292893, 0), (0.69352, 0.292893, -0.13795), (0.653281, 0.292893, -0.270598), (0.587938, 0.292893, -0.392847), (0.5, 0.292893, -0.5), (0.392847, 0.292893, -0.587938), (0.270598, 0.292893, -0.653281), (0.13795, 0.292893, -0.69352), (0, 0.292893, -0.707107), (-0.13795, 0.292893, -0.69352), (-0.270598, 0.292893, -0.653281), (-0.392847, 0.292893, -0.587938), (-0.5, 0.292893, -0.5), (-0.587938, 0.292893, -0.392847), (-0.653281, 0.292893, -0.270598), (-0.69352, 0.292893, -0.13795), (-0.707107, 0.292893, 0), (-0.69352, 0.292893, 0.13795), (-0.653281, 0.292893, 0.270598), (-0.587938, 0.292893, 0.392847), (-0.5, 0.292893, 0.5), (-0.392847, 0.292893, 0.587938), (-0.270598, 0.292893, 0.653281), (-0.13795, 0.292893, 0.69352), (0, 0.16853, 0.55557), (0.108386, 0.16853, 0.544895), (0.212608, 0.16853, 0.51328), (0.308658, 0.16853, 0.46194), (0.392847, 0.16853, 0.392847), (0.46194, 0.16853, 0.308658), (0.51328, 0.16853, 0.212608), (0.544895, 0.16853, 0.108386), (0.55557, 0.16853, 0), (0.544895, 0.16853, -0.108386), (0.51328, 0.16853, -0.212608), (0.46194, 0.16853, -0.308658), (0.392847, 0.16853, -0.392847), (0.308658, 0.16853, -0.46194), (0.212608, 0.16853, -0.51328), (0.108386, 0.16853, -0.544895), (0, 0.16853, -0.55557), (-0.108386, 0.16853, -0.544895), (-0.212608, 0.16853, -0.51328), (-0.308658, 0.16853, -0.46194), (-0.392847, 0.16853, -0.392847), (-0.46194, 0.16853, -0.308658), (-0.51328, 0.16853, -0.212608), (-0.544895, 0.16853, -0.108386), (-0.55557, 0.16853, 0), (-0.544895, 0.16853, 0.108386), (-0.51328, 0.16853, 0.212608), (-0.46194, 0.16853, 0.308658), (-0.392847, 0.16853, 0.392847), (-0.308658, 0.16853, 0.46194), (-0.212608, 0.16853, 0.51328), (-0.108386, 0.16853, 0.544895), (0, 0.07612, 0.382683), (0.074658, 0.07612, 0.37533), (0.146447, 0.07612, 0.353553), (0.212608, 0.07612, 0.31819), (0.270598, 0.07612, 0.270598), (0.31819, 0.07612, 0.212608), (0.353553, 0.07612, 0.146447), (0.37533, 0.07612, 0.074658), (0.382683, 0.07612, 0), (0.37533, 0.07612, -0.074658), (0.353553, 0.07612, -0.146447), (0.31819, 0.07612, -0.212608), (0.270598, 0.07612, -0.270598), (0.212608, 0.07612, -0.31819), (0.146447, 0.07612, -0.353553), (0.074658, 0.07612, -0.37533), (0, 0.07612, -0.382683), (-0.074658, 0.07612, -0.37533), (-0.146447, 0.07612, -0.353553), (-0.212608, 0.07612, -0.31819), (-0.270598, 0.07612, -0.270598), (-0.31819, 0.07612, -0.212608), (-0.353553, 0.07612, -0.146447), (-0.37533, 0.07612, -0.074658), (-0.382683, 0.07612, 0), (-0.37533, 0.07612, 0.074658), (-0.353553, 0.07612, 0.146447), (-0.31819, 0.07612, 0.212608), (-0.270598, 0.07612, 0.270598), (-0.212608, 0.07612, 0.31819), (-0.146447, 0.07612, 0.353553), (-0.074658, 0.07612, 0.37533), (0, 0.019215, 0.19509), (0.03806, 0.019215, 0.191342), (0.074658, 0.019215, 0.18024), (0.108386, 0.019215, 0.162212), (0.13795, 0.019215, 0.13795), (0.162212, 0.019215, 0.108386), (0.18024, 0.019215, 0.074658), (0.191342, 0.019215, 0.03806), (0.19509, 0.019215, 0), (0.191342, 0.019215, -0.03806), (0.18024, 0.019215, -0.074658), (0.162212, 0.019215, -0.108386), (0.13795, 0.019215, -0.13795), (0.108386, 0.019215, -0.162212), (0.074658, 0.019215, -0.18024), (0.03806, 0.019215, -0.191342), (0, 0.019215, -0.19509), (-0.03806, 0.019215, -0.191342), (-0.074658, 0.019215, -0.18024), (-0.108386, 0.019215, -0.162212), (-0.13795, 0.019215, -0.13795), (-0.162212, 0.019215, -0.108386), (-0.18024, 0.019215, -0.074658), (-0.191342, 0.019215, -0.03806), (-0.19509, 0.019215, 0), (-0.191342, 0.019215, 0.03806), (-0.18024, 0.019215, 0.074658), (-0.162212, 0.019215, 0.108386), (-0.13795, 0.019215, 0.13795), (-0.108386, 0.019215, 0.162212), (-0.074658, 0.019215, 0.18024), (-0.03806, 0.019215, 0.191342), (0, 0, 0)]
            texCoord2f[] primvars:st = [(0.515625, 1), (0.53125, 0.9375), (0.5, 0.9375), (0.546875, 1), (0.5625, 0.9375), (0.53125, 0.9375), (0.578125, 1), (0.59375, 0.9375), (0.5625, 0.9375), (0.609375, 1), (0.625, 0.9375), (0.59375, 0.9375), (0.640625, 1), (0.65625, 0.9375), (0.625, 0.9375), (0.671875, 1), (0.6875, 0.9375), (0.65625, 0.9375), (0.703125, 1), (0.71875, 0.9375), (0.6875, 0.9375), (0.734375, 1), (0.75, 0.9375), (0.71875, 0.9375), (0.765625, 1), (0.78125, 0.9375), (0.75, 0.9375), (0.796875, 1), (0.8125, 0.9375), (0.78125, 0.9375), (0.828125, 1), (0.84375, 0.9375), (0.8125, 0.9375), (0.859375, 1), (0.875, 0.9375), (0.84375, 0.9375), (0.890625, 1), (0.90625, 0.9375), (0.875, 0.9375), (0.921875, 1), (0.9375, 0.9375), (0.90625, 0.9375), (0.953125, 1), (0.96875, 0.9375), (0.9375, 0.9375), (0.984375, 1), (1, 0.9375), (0.96875, 0.9375), (1.015625, 1), (1.03125, 0.9375), (1, 0.9375), (1.046875, 1), (1.0625, 0.9375), (1.03125, 0.9375), (1.078125, 1), (1.09375, 0.9375), (1.0625, 0.9375), (1.109375, 1), (1.125, 0.9375), (1.09375, 0.9375), (1.140625, 1), (1.15625, 0.9375), (1.125, 0.9375), (1.171875, 1), (1.1875, 0.9375), (1.15625, 0.9375), (1.203125, 1), (1.21875, 0.9375), (1.1875, 0.9375), (1.234375, 1), (1.25, 0.9375), (1.21875, 0.9375), (1.265625, 1), (1.28125, 0.9375), (1.25, 0.9375), (1.296875, 1), (1.3125, 0.9375), (1.28125, 0.9375), (1.328125, 1), (1.34375, 0.9375), (1.3125, 0.9375), (1.359375, 1), (1.375, 0.9375), (1.34375, 0.9375), (1.390625, 1), (1.40625, 0.9375), (1.375, 0.9375), (1.421875, 1), (1.4375, 0.9375), (1.40625, 0.9375), (1.453125, 1), (1.46875, 0.9375), (1.4375, 0.9375), (1.484375, 1), (1.5, 0.9375), (1.46875, 0.9375), (0.5, 0.9375), (0.53125, 0.9375), (0.53125, 0.875), (0.5, 0.875), (0.53125, 0.9375), (0.5625, 0.9375), (0.5625, 0.875), (0.53125, 0.875), (0.5625, 0.9375), (0.59375, 0.9375), (0.59375, 0.875), (0.5625, 0.875), (0.59375, 0.9375), (0.625, 0.9375), (0.625, 0.875), (0.59375, 0.875), (0.625, 0.9375), (0.65625, 0.9375), (0.65625, 0.875), (0.625, 0.875), (0.65625, 0.9375), (0.6875, 0.9375), (0.6875, 0.875), (0.65625, 0.875), (0.6875, 0.9375), (0.71875, 0.9375), (0.71875, 0.875), (0.6875, 0.875), (0.71875, 0.9375), (0.75, 0.9375), (0.75, 0.875), (0.71875, 0.875), (0.75, 0.9375), (0.78125, 0.9375), (0.78125, 0.875), (0.75, 0.875), (0.78125, 0.9375), (0.8125, 0.9375), (0.8125, 0.875), (0.78125, 0.875), (0.8125, 0.9375), (0.84375, 0.9375), (0.84375, 0.875), (0.8125, 0.875), (0.84375, 0.9375), (0.875, 0.9375), (0.875, 0.875), (0.84375, 0.875), (0.875, 0.9375), (0.90625, 0.9375), (0.90625, 0.875), (0.875, 0.875), (0.90625, 0.9375), (0.9375, 0.9375), (0.9375, 0.875), (0.90625, 0.875), (0.9375, 0.9375), (0.96875, 0.9375), (0.96875, 0.875), (0.9375, 0.875), (0.96875, 0.9375), (1, 0.9375), (1, 0.875), (0.96875, 0.875), (1, 0.9375), (1.03125, 0.9375), (1.03125, 0.875), (1, 0.875), (1.03125, 0.9375), (1.0625, 0.9375), (1.0625, 0.875), (1.03125, 0.875), (1.0625, 0.9375), (1.09375, 0.9375), (1.09375, 0.875), (1.0625, 0.875), (1.09375, 0.9375), (1.125, 0.9375), (1.125, 0.875), (1.09375, 0.875), (1.125, 0.9375), (1.15625, 0.9375), (1.15625, 0.875), (1.125, 0.875), (1.15625, 0.9375), (1.1875, 0.9375), (1.1875, 0.875), (1.15625, 0.875), (1.1875, 0.9375), (1.21875, 0.9375), (1.21875, 0.875), (1.1875, 0.875), (1.21875, 0.9375), (1.25, 0.9375), (1.25, 0.875), (1.21875, 0.875), (1.25, 0.9375), (1.28125, 0.9375), (1.28125, 0.875), (1.25, 0.875), (1.28125, 0.9375), (1.3125, 0.9375), (1.3125, 0.875), (1.28125, 0.875), (1.3125, 0.9375), (1.34375, 0.9375), (1.34375, 0.875), (1.3125, 0.875), (1.34375, 0.9375), (1.375, 0.9375), (1.375, 0.875), (1.34375, 0.875), (1.375, 0.9375), (1.40625, 0.9375), (1.40625, 0.875), (1.375, 0.875), (1.40625, 0.9375), (1.4375, 0.9375), (1.4375, 0.875), (1.40625, 0.875), (1.4375, 0.9375), (1.46875, 0.9375), (1.46875, 0.875), (1.4375, 0.875), (1.46875, 0.9375), (1.5, 0.9375), (1.5, 0.875), (1.46875, 0.875), (0.5, 0.875), (0.53125, 0.875), (0.53125, 0.8125), (0.5, 0.8125), (0.53125, 0.875), (0.5625, 0.875), (0.5625, 0.8125), (0.53125, 0.8125), (0.5625, 0.875), (0.59375, 0.875), (0.59375, 0.8125), (0.5625, 0.8125), (0.59375, 0.875), (0.625, 0.875), (0.625, 0.8125), (0.59375, 0.8125), (0.625, 0.875), (0.65625, 0.875), (0.65625, 0.8125), (0.625, 0.8125), (0.65625, 0.875), (0.6875, 0.875), (0.6875, 0.8125), (0.65625, 0.8125), (0.6875, 0.875), (0.71875, 0.875), (0.71875, 0.8125), (0.6875, 0.8125), (0.71875, 0.875), (0.75, 0.875), (0.75, 0.8125), (0.71875, 0.8125), (0.75, 0.875), (0.78125, 0.875), (0.78125, 0.8125), (0.75, 0.8125), (0.78125, 0.875), (0.8125, 0.875), (0.8125, 0.8125), (0.78125, 0.8125), (0.8125, 0.875), (0.84375, 0.875), (0.84375, 0.8125), (0.8125, 0.8125), (0.84375, 0.875), (0.875, 0.875), (0.875, 0.8125), (0.84375, 0.8125), (0.875, 0.875), (0.90625, 0.875), (0.90625, 0.8125), (0.875, 0.8125), (0.90625, 0.875), (0.9375, 0.875), (0.9375, 0.8125), (0.90625, 0.8125), (0.9375, 0.875), (0.96875, 0.875), (0.96875, 0.8125), (0.9375, 0.8125), (0.96875, 0.875), (1, 0.875), (1, 0.8125), (0.96875, 0.8125), (1, 0.875), (1.03125, 0.875), (1.03125, 0.8125), (1, 0.8125), (1.03125, 0.875), (1.0625, 0.875), (1.0625, 0.8125), (1.03125, 0.8125), (1.0625, 0.875), (1.09375, 0.875), (1.09375, 0.8125), (1.0625, 0.8125), (1.09375, 0.875), (1.125, 0.875), (1.125, 0.8125), (1.09375, 0.8125), (1.125, 0.875), (1.15625, 0.875), (1.15625, 0.8125), (1.125, 0.8125), (1.15625, 0.875), (1.1875, 0.875), (1.1875, 0.8125), (1.15625, 0.8125), (1.1875, 0.875), (1.21875, 0.875), (1.21875, 0.8125), (1.1875, 0.8125), (1.21875, 0.875), (1.25, 0.875), (1.25, 0.8125), (1.21875, 0.8125), (1.25, 0.875), (1.28125, 0.875), (1.28125, 0.8125), (1.25, 0.8125), (1.28125, 0.875), (1.3125, 0.875), (1.3125, 0.8125), (1.28125, 0.8125), (1.3125, 0.875), (1.34375, 0.875), (1.34375, 0.8125), (1.3125, 0.8125), (1.34375, 0.875), (1.375, 0.875), (1.375, 0.8125), (1.34375, 0.8125), (1.375, 0.875), (1.40625, 0.875), (1.40625, 0.8125), (1.375, 0.8125), (1.40625, 0.875), (1.4375, 0.875), (1.4375, 0.8125), (1.40625, 0.8125), (1.4375, 0.875), (1.46875, 0.875), (1.46875, 0.8125), (1.4375, 0.8125), (1.46875, 0.875), (1.5, 0.875), (1.5, 0.8125), (1.46875, 0.8125), (0.5, 0.8125), (0.53125, 0.8125), (0.53125, 0.75), (0.5, 0.75), (0.53125, 0.8125), (0.5625, 0.8125), (0.5625, 0.75), (0.53125, 0.75), (0.5625, 0.8125), (0.59375, 0.8125), (0.59375, 0.75), (0.5625, 0.75), (0.59375, 0.8125), (0.625, 0.8125), (0.625, 0.75), (0.59375, 0.75), (0.625, 0.8125), (0.65625, 0.8125), (0.65625, 0.75), (0.625, 0.75), (0.65625, 0.8125), (0.6875, 0.8125), (0.6875, 0.75), (0.65625, 0.75), (0.6875, 0.8125), (0.71875, 0.8125), (0.71875, 0.75), (0.6875, 0.75), (0.71875, 0.8125), (0.75, 0.8125), (0.75, 0.75), (0.71875, 0.75), (0.75, 0.8125), (0.78125, 0.8125), (0.78125, 0.75), (0.75, 0.75), (0.78125, 0.8125), (0.8125, 0.8125), (0.8125, 0.75), (0.78125, 0.75), (0.8125, 0.8125), (0.84375, 0.8125), (0.84375, 0.75), (0.8125, 0.75), (0.84375, 0.8125), (0.875, 0.8125), (0.875, 0.75), (0.84375, 0.75), (0.875, 0.8125), (0.90625, 0.8125), (0.90625, 0.75), (0.875, 0.75), (0.90625, 0.8125), (0.9375, 0.8125), (0.9375, 0.75), (0.90625, 0.75), (0.9375, 0.8125), (0.96875, 0.8125), (0.96875, 0.75), (0.9375, 0.75), (0.96875, 0.8125), (1, 0.8125), (1, 0.75), (0.96875, 0.75), (1, 0.8125), (1.03125, 0.8125), (1.03125, 0.75), (1, 0.75), (1.03125, 0.8125), (1.0625, 0.8125), (1.0625, 0.75), (1.03125, 0.75), (1.0625, 0.8125), (1.09375, 0.8125), (1.09375, 0.75), (1.0625, 0.75), (1.09375, 0.8125), (1.125, 0.8125), (1.125, 0.75), (1.09375, 0.75), (1.125, 0.8125), (1.15625, 0.8125), (1.15625, 0.75), (1.125, 0.75), (1.15625, 0.8125), (1.1875, 0.8125), (1.1875, 0.75), (1.15625, 0.75), (1.1875, 0.8125), (1.21875, 0.8125), (1.21875, 0.75), (1.1875, 0.75), (1.21875, 0.8125), (1.25, 0.8125), (1.25, 0.75), (1.21875, 0.75), (1.25, 0.8125), (1.28125, 0.8125), (1.28125, 0.75), (1.25, 0.75), (1.28125, 0.8125), (1.3125, 0.8125), (1.3125, 0.75), (1.28125, 0.75), (1.3125, 0.8125), (1.34375, 0.8125), (1.34375, 0.75), (1.3125, 0.75), (1.34375, 0.8125), (1.375, 0.8125), (1.375, 0.75), (1.34375, 0.75), (1.375, 0.8125), (1.40625, 0.8125), (1.40625, 0.75), (1.375, 0.75), (1.40625, 0.8125), (1.4375, 0.8125), (1.4375, 0.75), (1.40625, 0.75), (1.4375, 0.8125), (1.46875, 0.8125), (1.46875, 0.75), (1.4375, 0.75), (1.46875, 0.8125), (1.5, 0.8125), (1.5, 0.75), (1.46875, 0.75), (0.5, 0.75), (0.53125, 0.75), (0.53125, 0.6875), (0.5, 0.6875), (0.53125, 0.75), (0.5625, 0.75), (0.5625, 0.6875), (0.53125, 0.6875), (0.5625, 0.75), (0.59375, 0.75), (0.59375, 0.6875), (0.5625, 0.6875), (0.59375, 0.75), (0.625, 0.75), (0.625, 0.6875), (0.59375, 0.6875), (0.625, 0.75), (0.65625, 0.75), (0.65625, 0.6875), (0.625, 0.6875), (0.65625, 0.75), (0.6875, 0.75), (0.6875, 0.6875), (0.65625, 0.6875), (0.6875, 0.75), (0.71875, 0.75), (0.71875, 0.6875), (0.6875, 0.6875), (0.71875, 0.75), (0.75, 0.75), (0.75, 0.6875), (0.71875, 0.6875), (0.75, 0.75), (0.78125, 0.75), (0.78125, 0.6875), (0.75, 0.6875), (0.78125, 0.75), (0.8125, 0.75), (0.8125, 0.6875), (0.78125, 0.6875), (0.8125, 0.75), (0.84375, 0.75), (0.84375, 0.6875), (0.8125, 0.6875), (0.84375, 0.75), (0.875, 0.75), (0.875, 0.6875), (0.84375, 0.6875), (0.875, 0.75), (0.90625, 0.75), (0.90625, 0.6875), (0.875, 0.6875), (0.90625, 0.75), (0.9375, 0.75), (0.9375, 0.6875), (0.90625, 0.6875), (0.9375, 0.75), (0.96875, 0.75), (0.96875, 0.6875), (0.9375, 0.6875), (0.96875, 0.75), (1, 0.75), (1, 0.6875), (0.96875, 0.6875), (1, 0.75), (1.03125, 0.75), (1.03125, 0.6875), (1, 0.6875), (1.03125, 0.75), (1.0625, 0.75), (1.0625, 0.6875), (1.03125, 0.6875), (1.0625, 0.75), (1.09375, 0.75), (1.09375, 0.6875), (1.0625, 0.6875), (1.09375, 0.75), (1.125, 0.75), (1.125, 0.6875), (1.09375, 0.6875), (1.125, 0.75), (1.15625, 0.75), (1.15625, 0.6875), (1.125, 0.6875), (1.15625, 0.75), (1.1875, 0.75), (1.1875, 0.6875), (1.15625, 0.6875), (1.1875, 0.75), (1.21875, 0.75), (1.21875, 0.6875), (1.1875, 0.6875), (1.21875, 0.75), (1.25, 0.75), (1.25, 0.6875), (1.21875, 0.6875), (1.25, 0.75), (1.28125, 0.75), (1.28125, 0.6875), (1.25, 0.6875), (1.28125, 0.75), (1.3125, 0.75), (1.3125, 0.6875), (1.28125, 0.6875), (1.3125, 0.75), (1.34375, 0.75), (1.34375, 0.6875), (1.3125, 0.6875), (1.34375, 0.75), (1.375, 0.75), (1.375, 0.6875), (1.34375, 0.6875), (1.375, 0.75), (1.40625, 0.75), (1.40625, 0.6875), (1.375, 0.6875), (1.40625, 0.75), (1.4375, 0.75), (1.4375, 0.6875), (1.40625, 0.6875), (1.4375, 0.75), (1.46875, 0.75), (1.46875, 0.6875), (1.4375, 0.6875), (1.46875, 0.75), (1.5, 0.75), (1.5, 0.6875), (1.46875, 0.6875), (0.5, 0.6875), (0.53125, 0.6875), (0.53125, 0.625), (0.5, 0.625), (0.53125, 0.6875), (0.5625, 0.6875), (0.5625, 0.625), (0.53125, 0.625), (0.5625, 0.6875), (0.59375, 0.6875), (0.59375, 0.625), (0.5625, 0.625), (0.59375, 0.6875), (0.625, 0.6875), (0.625, 0.625), (0.59375, 0.625), (0.625, 0.6875), (0.65625, 0.6875), (0.65625, 0.625), (0.625, 0.625), (0.65625, 0.6875), (0.6875, 0.6875), (0.6875, 0.625), (0.65625, 0.625), (0.6875, 0.6875), (0.71875, 0.6875), (0.71875, 0.625), (0.6875, 0.625), (0.71875, 0.6875), (0.75, 0.6875), (0.75, 0.625), (0.71875, 0.625), (0.75, 0.6875), (0.78125, 0.6875), (0.78125, 0.625), (0.75, 0.625), (0.78125, 0.6875), (0.8125, 0.6875), (0.8125, 0.625), (0.78125, 0.625), (0.8125, 0.6875), (0.84375, 0.6875), (0.84375, 0.625), (0.8125, 0.625), (0.84375, 0.6875), (0.875, 0.6875), (0.875, 0.625), (0.84375, 0.625), (0.875, 0.6875), (0.90625, 0.6875), (0.90625, 0.625), (0.875, 0.625), (0.90625, 0.6875), (0.9375, 0.6875), (0.9375, 0.625), (0.90625, 0.625), (0.9375, 0.6875), (0.96875, 0.6875), (0.96875, 0.625), (0.9375, 0.625), (0.96875, 0.6875), (1, 0.6875), (1, 0.625), (0.96875, 0.625), (1, 0.6875), (1.03125, 0.6875), (1.03125, 0.625), (1, 0.625), (1.03125, 0.6875), (1.0625, 0.6875), (1.0625, 0.625), (1.03125, 0.625), (1.0625, 0.6875), (1.09375, 0.6875), (1.09375, 0.625), (1.0625, 0.625), (1.09375, 0.6875), (1.125, 0.6875), (1.125, 0.625), (1.09375, 0.625), (1.125, 0.6875), (1.15625, 0.6875), (1.15625, 0.625), (1.125, 0.625), (1.15625, 0.6875), (1.1875, 0.6875), (1.1875, 0.625), (1.15625, 0.625), (1.1875, 0.6875), (1.21875, 0.6875), (1.21875, 0.625), (1.1875, 0.625), (1.21875, 0.6875), (1.25, 0.6875), (1.25, 0.625), (1.21875, 0.625), (1.25, 0.6875), (1.28125, 0.6875), (1.28125, 0.625), (1.25, 0.625), (1.28125, 0.6875), (1.3125, 0.6875), (1.3125, 0.625), (1.28125, 0.625), (1.3125, 0.6875), (1.34375, 0.6875), (1.34375, 0.625), (1.3125, 0.625), (1.34375, 0.6875), (1.375, 0.6875), (1.375, 0.625), (1.34375, 0.625), (1.375, 0.6875), (1.40625, 0.6875), (1.40625, 0.625), (1.375, 0.625), (1.40625, 0.6875), (1.4375, 0.6875), (1.4375, 0.625), (1.40625, 0.625), (1.4375, 0.6875), (1.46875, 0.6875), (1.46875, 0.625), (1.4375, 0.625), (1.46875, 0.6875), (1.5, 0.6875), (1.5, 0.625), (1.46875, 0.625), (0.5, 0.625), (0.53125, 0.625), (0.53125, 0.5625), (0.5, 0.5625), (0.53125, 0.625), (0.5625, 0.625), (0.5625, 0.5625), (0.53125, 0.5625), (0.5625, 0.625), (0.59375, 0.625), (0.59375, 0.5625), (0.5625, 0.5625), (0.59375, 0.625), (0.625, 0.625), (0.625, 0.5625), (0.59375, 0.5625), (0.625, 0.625), (0.65625, 0.625), (0.65625, 0.5625), (0.625, 0.5625), (0.65625, 0.625), (0.6875, 0.625), (0.6875, 0.5625), (0.65625, 0.5625), (0.6875, 0.625), (0.71875, 0.625), (0.71875, 0.5625), (0.6875, 0.5625), (0.71875, 0.625), (0.75, 0.625), (0.75, 0.5625), (0.71875, 0.5625), (0.75, 0.625), (0.78125, 0.625), (0.78125, 0.5625), (0.75, 0.5625), (0.78125, 0.625), (0.8125, 0.625), (0.8125, 0.5625), (0.78125, 0.5625), (0.8125, 0.625), (0.84375, 0.625), (0.84375, 0.5625), (0.8125, 0.5625), (0.84375, 0.625), (0.875, 0.625), (0.875, 0.5625), (0.84375, 0.5625), (0.875, 0.625), (0.90625, 0.625), (0.90625, 0.5625), (0.875, 0.5625), (0.90625, 0.625), (0.9375, 0.625), (0.9375, 0.5625), (0.90625, 0.5625), (0.9375, 0.625), (0.96875, 0.625), (0.96875, 0.5625), (0.9375, 0.5625), (0.96875, 0.625), (1, 0.625), (1, 0.5625), (0.96875, 0.5625), (1, 0.625), (1.03125, 0.625), (1.03125, 0.5625), (1, 0.5625), (1.03125, 0.625), (1.0625, 0.625), (1.0625, 0.5625), (1.03125, 0.5625), (1.0625, 0.625), (1.09375, 0.625), (1.09375, 0.5625), (1.0625, 0.5625), (1.09375, 0.625), (1.125, 0.625), (1.125, 0.5625), (1.09375, 0.5625), (1.125, 0.625), (1.15625, 0.625), (1.15625, 0.5625), (1.125, 0.5625), (1.15625, 0.625), (1.1875, 0.625), (1.1875, 0.5625), (1.15625, 0.5625), (1.1875, 0.625), (1.21875, 0.625), (1.21875, 0.5625), (1.1875, 0.5625), (1.21875, 0.625), (1.25, 0.625), (1.25, 0.5625), (1.21875, 0.5625), (1.25, 0.625), (1.28125, 0.625), (1.28125, 0.5625), (1.25, 0.5625), (1.28125, 0.625), (1.3125, 0.625), (1.3125, 0.5625), (1.28125, 0.5625), (1.3125, 0.625), (1.34375, 0.625), (1.34375, 0.5625), (1.3125, 0.5625), (1.34375, 0.625), (1.375, 0.625), (1.375, 0.5625), (1.34375, 0.5625), (1.375, 0.625), (1.40625, 0.625), (1.40625, 0.5625), (1.375, 0.5625), (1.40625, 0.625), (1.4375, 0.625), (1.4375, 0.5625), (1.40625, 0.5625), (1.4375, 0.625), (1.46875, 0.625), (1.46875, 0.5625), (1.4375, 0.5625), (1.46875, 0.625), (1.5, 0.625), (1.5, 0.5625), (1.46875, 0.5625), (0.5, 0.5625), (0.53125, 0.5625), (0.53125, 0.5), (0.5, 0.5), (0.53125, 0.5625), (0.5625, 0.5625), (0.5625, 0.5), (0.53125, 0.5), (0.5625, 0.5625), (0.59375, 0.5625), (0.59375, 0.5), (0.5625, 0.5), (0.59375, 0.5625), (0.625, 0.5625), (0.625, 0.5), (0.59375, 0.5), (0.625, 0.5625), (0.65625, 0.5625), (0.65625, 0.5), (0.625, 0.5), (0.65625, 0.5625), (0.6875, 0.5625), (0.6875, 0.5), (0.65625, 0.5), (0.6875, 0.5625), (0.71875, 0.5625), (0.71875, 0.5), (0.6875, 0.5), (0.71875, 0.5625), (0.75, 0.5625), (0.75, 0.5), (0.71875, 0.5), (0.75, 0.5625), (0.78125, 0.5625), (0.78125, 0.5), (0.75, 0.5), (0.78125, 0.5625), (0.8125, 0.5625), (0.8125, 0.5), (0.78125, 0.5), (0.8125, 0.5625), (0.84375, 0.5625), (0.84375, 0.5), (0.8125, 0.5), (0.84375, 0.5625), (0.875, 0.5625), (0.875, 0.5), (0.84375, 0.5), (0.875, 0.5625), (0.90625, 0.5625), (0.90625, 0.5), (0.875, 0.5), (0.90625, 0.5625), (0.9375, 0.5625), (0.9375, 0.5), (0.90625, 0.5), (0.9375, 0.5625), (0.96875, 0.5625), (0.96875, 0.5), (0.9375, 0.5), (0.96875, 0.5625), (1, 0.5625), (1, 0.5), (0.96875, 0.5), (1, 0.5625), (1.03125, 0.5625), (1.03125, 0.5), (1, 0.5), (1.03125, 0.5625), (1.0625, 0.5625), (1.0625, 0.5), (1.03125, 0.5), (1.0625, 0.5625), (1.09375, 0.5625), (1.09375, 0.5), (1.0625, 0.5), (1.09375, 0.5625), (1.125, 0.5625), (1.125, 0.5), (1.09375, 0.5), (1.125, 0.5625), (1.15625, 0.5625), (1.15625, 0.5), (1.125, 0.5), (1.15625, 0.5625), (1.1875, 0.5625), (1.1875, 0.5), (1.15625, 0.5), (1.1875, 0.5625), (1.21875, 0.5625), (1.21875, 0.5), (1.1875, 0.5), (1.21875, 0.5625), (1.25, 0.5625), (1.25, 0.5), (1.21875, 0.5), (1.25, 0.5625), (1.28125, 0.5625), (1.28125, 0.5), (1.25, 0.5), (1.28125, 0.5625), (1.3125, 0.5625), (1.3125, 0.5), (1.28125, 0.5), (1.3125, 0.5625), (1.34375, 0.5625), (1.34375, 0.5), (1.3125, 0.5), (1.34375, 0.5625), (1.375, 0.5625), (1.375, 0.5), (1.34375, 0.5), (1.375, 0.5625), (1.40625, 0.5625), (1.40625, 0.5), (1.375, 0.5), (1.40625, 0.5625), (1.4375, 0.5625), (1.4375, 0.5), (1.40625, 0.5), (1.4375, 0.5625), (1.46875, 0.5625), (1.46875, 0.5), (1.4375, 0.5), (1.46875, 0.5625), (1.5, 0.5625), (1.5, 0.5), (1.46875, 0.5), (0.5, 0.5), (0.53125, 0.5), (0.53125, 0.4375), (0.5, 0.4375), (0.53125, 0.5), (0.5625, 0.5), (0.5625, 0.4375), (0.53125, 0.4375), (0.5625, 0.5), (0.59375, 0.5), (0.59375, 0.4375), (0.5625, 0.4375), (0.59375, 0.5), (0.625, 0.5), (0.625, 0.4375), (0.59375, 0.4375), (0.625, 0.5), (0.65625, 0.5), (0.65625, 0.4375), (0.625, 0.4375), (0.65625, 0.5), (0.6875, 0.5), (0.6875, 0.4375), (0.65625, 0.4375), (0.6875, 0.5), (0.71875, 0.5), (0.71875, 0.4375), (0.6875, 0.4375), (0.71875, 0.5), (0.75, 0.5), (0.75, 0.4375), (0.71875, 0.4375), (0.75, 0.5), (0.78125, 0.5), (0.78125, 0.4375), (0.75, 0.4375), (0.78125, 0.5), (0.8125, 0.5), (0.8125, 0.4375), (0.78125, 0.4375), (0.8125, 0.5), (0.84375, 0.5), (0.84375, 0.4375), (0.8125, 0.4375), (0.84375, 0.5), (0.875, 0.5), (0.875, 0.4375), (0.84375, 0.4375), (0.875, 0.5), (0.90625, 0.5), (0.90625, 0.4375), (0.875, 0.4375), (0.90625, 0.5), (0.9375, 0.5), (0.9375, 0.4375), (0.90625, 0.4375), (0.9375, 0.5), (0.96875, 0.5), (0.96875, 0.4375), (0.9375, 0.4375), (0.96875, 0.5), (1, 0.5), (1, 0.4375), (0.96875, 0.4375), (1, 0.5), (1.03125, 0.5), (1.03125, 0.4375), (1, 0.4375), (1.03125, 0.5), (1.0625, 0.5), (1.0625, 0.4375), (1.03125, 0.4375), (1.0625, 0.5), (1.09375, 0.5), (1.09375, 0.4375), (1.0625, 0.4375), (1.09375, 0.5), (1.125, 0.5), (1.125, 0.4375), (1.09375, 0.4375), (1.125, 0.5), (1.15625, 0.5), (1.15625, 0.4375), (1.125, 0.4375), (1.15625, 0.5), (1.1875, 0.5), (1.1875, 0.4375), (1.15625, 0.4375), (1.1875, 0.5), (1.21875, 0.5), (1.21875, 0.4375), (1.1875, 0.4375), (1.21875, 0.5), (1.25, 0.5), (1.25, 0.4375), (1.21875, 0.4375), (1.25, 0.5), (1.28125, 0.5), (1.28125, 0.4375), (1.25, 0.4375), (1.28125, 0.5), (1.3125, 0.5), (1.3125, 0.4375), (1.28125, 0.4375), (1.3125, 0.5), (1.34375, 0.5), (1.34375, 0.4375), (1.3125, 0.4375), (1.34375, 0.5), (1.375, 0.5), (1.375, 0.4375), (1.34375, 0.4375), (1.375, 0.5), (1.40625, 0.5), (1.40625, 0.4375), (1.375, 0.4375), (1.40625, 0.5), (1.4375, 0.5), (1.4375, 0.4375), (1.40625, 0.4375), (1.4375, 0.5), (1.46875, 0.5), (1.46875, 0.4375), (1.4375, 0.4375), (1.46875, 0.5), (1.5, 0.5), (1.5, 0.4375), (1.46875, 0.4375), (0.5, 0.4375), (0.53125, 0.4375), (0.53125, 0.375), (0.5, 0.375), (0.53125, 0.4375), (0.5625, 0.4375), (0.5625, 0.375), (0.53125, 0.375), (0.5625, 0.4375), (0.59375, 0.4375), (0.59375, 0.375), (0.5625, 0.375), (0.59375, 0.4375), (0.625, 0.4375), (0.625, 0.375), (0.59375, 0.375), (0.625, 0.4375), (0.65625, 0.4375), (0.65625, 0.375), (0.625, 0.375), (0.65625, 0.4375), (0.6875, 0.4375), (0.6875, 0.375), (0.65625, 0.375), (0.6875, 0.4375), (0.71875, 0.4375), (0.71875, 0.375), (0.6875, 0.375), (0.71875, 0.4375), (0.75, 0.4375), (0.75, 0.375), (0.71875, 0.375), (0.75, 0.4375), (0.78125, 0.4375), (0.78125, 0.375), (0.75, 0.375), (0.78125, 0.4375), (0.8125, 0.4375), (0.8125, 0.375), (0.78125, 0.375), (0.8125, 0.4375), (0.84375, 0.4375), (0.84375, 0.375), (0.8125, 0.375), (0.84375, 0.4375), (0.875, 0.4375), (0.875, 0.375), (0.84375, 0.375), (0.875, 0.4375), (0.90625, 0.4375), (0.90625, 0.375), (0.875, 0.375), (0.90625, 0.4375), (0.9375, 0.4375), (0.9375, 0.375), (0.90625, 0.375), (0.9375, 0.4375), (0.96875, 0.4375), (0.96875, 0.375), (0.9375, 0.375), (0.96875, 0.4375), (1, 0.4375), (1, 0.375), (0.96875, 0.375), (1, 0.4375), (1.03125, 0.4375), (1.03125, 0.375), (1, 0.375), (1.03125, 0.4375), (1.0625, 0.4375), (1.0625, 0.375), (1.03125, 0.375), (1.0625, 0.4375), (1.09375, 0.4375), (1.09375, 0.375), (1.0625, 0.375), (1.09375, 0.4375), (1.125, 0.4375), (1.125, 0.375), (1.09375, 0.375), (1.125, 0.4375), (1.15625, 0.4375), (1.15625, 0.375), (1.125, 0.375), (1.15625, 0.4375), (1.1875, 0.4375), (1.1875, 0.375), (1.15625, 0.375), (1.1875, 0.4375), (1.21875, 0.4375), (1.21875, 0.375), (1.1875, 0.375), (1.21875, 0.4375), (1.25, 0.4375), (1.25, 0.375), (1.21875, 0.375), (1.25, 0.4375), (1.28125, 0.4375), (1.28125, 0.375), (1.25, 0.375), (1.28125, 0.4375), (1.3125, 0.4375), (1.3125, 0.375), (1.28125, 0.375), (1.3125, 0.4375), (1.34375, 0.4375), (1.34375, 0.375), (1.3125, 0.375), (1.34375, 0.4375), (1.375, 0.4375), (1.375, 0.375), (1.34375, 0.375), (1.375, 0.4375), (1.40625, 0.4375), (1.40625, 0.375), (1.375, 0.375), (1.40625, 0.4375), (1.4375, 0.4375), (1.4375, 0.375), (1.40625, 0.375), (1.4375, 0.4375), (1.46875, 0.4375), (1.46875, 0.375), (1.4375, 0.375), (1.46875, 0.4375), (1.5, 0.4375), (1.5, 0.375), (1.46875, 0.375), (0.5, 0.375), (0.53125, 0.375), (0.53125, 0.3125), (0.5, 0.3125), (0.53125, 0.375), (0.5625, 0.375), (0.5625, 0.3125), (0.53125, 0.3125), (0.5625, 0.375), (0.59375, 0.375), (0.59375, 0.3125), (0.5625, 0.3125), (0.59375, 0.375), (0.625, 0.375), (0.625, 0.3125), (0.59375, 0.3125), (0.625, 0.375), (0.65625, 0.375), (0.65625, 0.3125), (0.625, 0.3125), (0.65625, 0.375), (0.6875, 0.375), (0.6875, 0.3125), (0.65625, 0.3125), (0.6875, 0.375), (0.71875, 0.375), (0.71875, 0.3125), (0.6875, 0.3125), (0.71875, 0.375), (0.75, 0.375), (0.75, 0.3125), (0.71875, 0.3125), (0.75, 0.375), (0.78125, 0.375), (0.78125, 0.3125), (0.75, 0.3125), (0.78125, 0.375), (0.8125, 0.375), (0.8125, 0.3125), (0.78125, 0.3125), (0.8125, 0.375), (0.84375, 0.375), (0.84375, 0.3125), (0.8125, 0.3125), (0.84375, 0.375), (0.875, 0.375), (0.875, 0.3125), (0.84375, 0.3125), (0.875, 0.375), (0.90625, 0.375), (0.90625, 0.3125), (0.875, 0.3125), (0.90625, 0.375), (0.9375, 0.375), (0.9375, 0.3125), (0.90625, 0.3125), (0.9375, 0.375), (0.96875, 0.375), (0.96875, 0.3125), (0.9375, 0.3125), (0.96875, 0.375), (1, 0.375), (1, 0.3125), (0.96875, 0.3125), (1, 0.375), (1.03125, 0.375), (1.03125, 0.3125), (1, 0.3125), (1.03125, 0.375), (1.0625, 0.375), (1.0625, 0.3125), (1.03125, 0.3125), (1.0625, 0.375), (1.09375, 0.375), (1.09375, 0.3125), (1.0625, 0.3125), (1.09375, 0.375), (1.125, 0.375), (1.125, 0.3125), (1.09375, 0.3125), (1.125, 0.375), (1.15625, 0.375), (1.15625, 0.3125), (1.125, 0.3125), (1.15625, 0.375), (1.1875, 0.375), (1.1875, 0.3125), (1.15625, 0.3125), (1.1875, 0.375), (1.21875, 0.375), (1.21875, 0.3125), (1.1875, 0.3125), (1.21875, 0.375), (1.25, 0.375), (1.25, 0.3125), (1.21875, 0.3125), (1.25, 0.375), (1.28125, 0.375), (1.28125, 0.3125), (1.25, 0.3125), (1.28125, 0.375), (1.3125, 0.375), (1.3125, 0.3125), (1.28125, 0.3125), (1.3125, 0.375), (1.34375, 0.375), (1.34375, 0.3125), (1.3125, 0.3125), (1.34375, 0.375), (1.375, 0.375), (1.375, 0.3125), (1.34375, 0.3125), (1.375, 0.375), (1.40625, 0.375), (1.40625, 0.3125), (1.375, 0.3125), (1.40625, 0.375), (1.4375, 0.375), (1.4375, 0.3125), (1.40625, 0.3125), (1.4375, 0.375), (1.46875, 0.375), (1.46875, 0.3125), (1.4375, 0.3125), (1.46875, 0.375), (1.5, 0.375), (1.5, 0.3125), (1.46875, 0.3125), (0.5, 0.3125), (0.53125, 0.3125), (0.53125, 0.25), (0.5, 0.25), (0.53125, 0.3125), (0.5625, 0.3125), (0.5625, 0.25), (0.53125, 0.25), (0.5625, 0.3125), (0.59375, 0.3125), (0.59375, 0.25), (0.5625, 0.25), (0.59375, 0.3125), (0.625, 0.3125), (0.625, 0.25), (0.59375, 0.25), (0.625, 0.3125), (0.65625, 0.3125), (0.65625, 0.25), (0.625, 0.25), (0.65625, 0.3125), (0.6875, 0.3125), (0.6875, 0.25), (0.65625, 0.25), (0.6875, 0.3125), (0.71875, 0.3125), (0.71875, 0.25), (0.6875, 0.25), (0.71875, 0.3125), (0.75, 0.3125), (0.75, 0.25), (0.71875, 0.25), (0.75, 0.3125), (0.78125, 0.3125), (0.78125, 0.25), (0.75, 0.25), (0.78125, 0.3125), (0.8125, 0.3125), (0.8125, 0.25), (0.78125, 0.25), (0.8125, 0.3125), (0.84375, 0.3125), (0.84375, 0.25), (0.8125, 0.25), (0.84375, 0.3125), (0.875, 0.3125), (0.875, 0.25), (0.84375, 0.25), (0.875, 0.3125), (0.90625, 0.3125), (0.90625, 0.25), (0.875, 0.25), (0.90625, 0.3125), (0.9375, 0.3125), (0.9375, 0.25), (0.90625, 0.25), (0.9375, 0.3125), (0.96875, 0.3125), (0.96875, 0.25), (0.9375, 0.25), (0.96875, 0.3125), (1, 0.3125), (1, 0.25), (0.96875, 0.25), (1, 0.3125), (1.03125, 0.3125), (1.03125, 0.25), (1, 0.25), (1.03125, 0.3125), (1.0625, 0.3125), (1.0625, 0.25), (1.03125, 0.25), (1.0625, 0.3125), (1.09375, 0.3125), (1.09375, 0.25), (1.0625, 0.25), (1.09375, 0.3125), (1.125, 0.3125), (1.125, 0.25), (1.09375, 0.25), (1.125, 0.3125), (1.15625, 0.3125), (1.15625, 0.25), (1.125, 0.25), (1.15625, 0.3125), (1.1875, 0.3125), (1.1875, 0.25), (1.15625, 0.25), (1.1875, 0.3125), (1.21875, 0.3125), (1.21875, 0.25), (1.1875, 0.25), (1.21875, 0.3125), (1.25, 0.3125), (1.25, 0.25), (1.21875, 0.25), (1.25, 0.3125), (1.28125, 0.3125), (1.28125, 0.25), (1.25, 0.25), (1.28125, 0.3125), (1.3125, 0.3125), (1.3125, 0.25), (1.28125, 0.25), (1.3125, 0.3125), (1.34375, 0.3125), (1.34375, 0.25), (1.3125, 0.25), (1.34375, 0.3125), (1.375, 0.3125), (1.375, 0.25), (1.34375, 0.25), (1.375, 0.3125), (1.40625, 0.3125), (1.40625, 0.25), (1.375, 0.25), (1.40625, 0.3125), (1.4375, 0.3125), (1.4375, 0.25), (1.40625, 0.25), (1.4375, 0.3125), (1.46875, 0.3125), (1.46875, 0.25), (1.4375, 0.25), (1.46875, 0.3125), (1.5, 0.3125), (1.5, 0.25), (1.46875, 0.25), (0.5, 0.25), (0.53125, 0.25), (0.53125, 0.1875), (0.5, 0.1875), (0.53125, 0.25), (0.5625, 0.25), (0.5625, 0.1875), (0.53125, 0.1875), (0.5625, 0.25), (0.59375, 0.25), (0.59375, 0.1875), (0.5625, 0.1875), (0.59375, 0.25), (0.625, 0.25), (0.625, 0.1875), (0.59375, 0.1875), (0.625, 0.25), (0.65625, 0.25), (0.65625, 0.1875), (0.625, 0.1875), (0.65625, 0.25), (0.6875, 0.25), (0.6875, 0.1875), (0.65625, 0.1875), (0.6875, 0.25), (0.71875, 0.25), (0.71875, 0.1875), (0.6875, 0.1875), (0.71875, 0.25), (0.75, 0.25), (0.75, 0.1875), (0.71875, 0.1875), (0.75, 0.25), (0.78125, 0.25), (0.78125, 0.1875), (0.75, 0.1875), (0.78125, 0.25), (0.8125, 0.25), (0.8125, 0.1875), (0.78125, 0.1875), (0.8125, 0.25), (0.84375, 0.25), (0.84375, 0.1875), (0.8125, 0.1875), (0.84375, 0.25), (0.875, 0.25), (0.875, 0.1875), (0.84375, 0.1875), (0.875, 0.25), (0.90625, 0.25), (0.90625, 0.1875), (0.875, 0.1875), (0.90625, 0.25), (0.9375, 0.25), (0.9375, 0.1875), (0.90625, 0.1875), (0.9375, 0.25), (0.96875, 0.25), (0.96875, 0.1875), (0.9375, 0.1875), (0.96875, 0.25), (1, 0.25), (1, 0.1875), (0.96875, 0.1875), (1, 0.25), (1.03125, 0.25), (1.03125, 0.1875), (1, 0.1875), (1.03125, 0.25), (1.0625, 0.25), (1.0625, 0.1875), (1.03125, 0.1875), (1.0625, 0.25), (1.09375, 0.25), (1.09375, 0.1875), (1.0625, 0.1875), (1.09375, 0.25), (1.125, 0.25), (1.125, 0.1875), (1.09375, 0.1875), (1.125, 0.25), (1.15625, 0.25), (1.15625, 0.1875), (1.125, 0.1875), (1.15625, 0.25), (1.1875, 0.25), (1.1875, 0.1875), (1.15625, 0.1875), (1.1875, 0.25), (1.21875, 0.25), (1.21875, 0.1875), (1.1875, 0.1875), (1.21875, 0.25), (1.25, 0.25), (1.25, 0.1875), (1.21875, 0.1875), (1.25, 0.25), (1.28125, 0.25), (1.28125, 0.1875), (1.25, 0.1875), (1.28125, 0.25), (1.3125, 0.25), (1.3125, 0.1875), (1.28125, 0.1875), (1.3125, 0.25), (1.34375, 0.25), (1.34375, 0.1875), (1.3125, 0.1875), (1.34375, 0.25), (1.375, 0.25), (1.375, 0.1875), (1.34375, 0.1875), (1.375, 0.25), (1.40625, 0.25), (1.40625, 0.1875), (1.375, 0.1875), (1.40625, 0.25), (1.4375, 0.25), (1.4375, 0.1875), (1.40625, 0.1875), (1.4375, 0.25), (1.46875, 0.25), (1.46875, 0.1875), (1.4375, 0.1875), (1.46875, 0.25), (1.5, 0.25), (1.5, 0.1875), (1.46875, 0.1875), (0.5, 0.1875), (0.53125, 0.1875), (0.53125, 0.125), (0.5, 0.125), (0.53125, 0.1875), (0.5625, 0.1875), (0.5625, 0.125), (0.53125, 0.125), (0.5625, 0.1875), (0.59375, 0.1875), (0.59375, 0.125), (0.5625, 0.125), (0.59375, 0.1875), (0.625, 0.1875), (0.625, 0.125), (0.59375, 0.125), (0.625, 0.1875), (0.65625, 0.1875), (0.65625, 0.125), (0.625, 0.125), (0.65625, 0.1875), (0.6875, 0.1875), (0.6875, 0.125), (0.65625, 0.125), (0.6875, 0.1875), (0.71875, 0.1875), (0.71875, 0.125), (0.6875, 0.125), (0.71875, 0.1875), (0.75, 0.1875), (0.75, 0.125), (0.71875, 0.125), (0.75, 0.1875), (0.78125, 0.1875), (0.78125, 0.125), (0.75, 0.125), (0.78125, 0.1875), (0.8125, 0.1875), (0.8125, 0.125), (0.78125, 0.125), (0.8125, 0.1875), (0.84375, 0.1875), (0.84375, 0.125), (0.8125, 0.125), (0.84375, 0.1875), (0.875, 0.1875), (0.875, 0.125), (0.84375, 0.125), (0.875, 0.1875), (0.90625, 0.1875), (0.90625, 0.125), (0.875, 0.125), (0.90625, 0.1875), (0.9375, 0.1875), (0.9375, 0.125), (0.90625, 0.125), (0.9375, 0.1875), (0.96875, 0.1875), (0.96875, 0.125), (0.9375, 0.125), (0.96875, 0.1875), (1, 0.1875), (1, 0.125), (0.96875, 0.125), (1, 0.1875), (1.03125, 0.1875), (1.03125, 0.125), (1, 0.125), (1.03125, 0.1875), (1.0625, 0.1875), (1.0625, 0.125), (1.03125, 0.125), (1.0625, 0.1875), (1.09375, 0.1875), (1.09375, 0.125), (1.0625, 0.125), (1.09375, 0.1875), (1.125, 0.1875), (1.125, 0.125), (1.09375, 0.125), (1.125, 0.1875), (1.15625, 0.1875), (1.15625, 0.125), (1.125, 0.125), (1.15625, 0.1875), (1.1875, 0.1875), (1.1875, 0.125), (1.15625, 0.125), (1.1875, 0.1875), (1.21875, 0.1875), (1.21875, 0.125), (1.1875, 0.125), (1.21875, 0.1875), (1.25, 0.1875), (1.25, 0.125), (1.21875, 0.125), (1.25, 0.1875), (1.28125, 0.1875), (1.28125, 0.125), (1.25, 0.125), (1.28125, 0.1875), (1.3125, 0.1875), (1.3125, 0.125), (1.28125, 0.125), (1.3125, 0.1875), (1.34375, 0.1875), (1.34375, 0.125), (1.3125, 0.125), (1.34375, 0.1875), (1.375, 0.1875), (1.375, 0.125), (1.34375, 0.125), (1.375, 0.1875), (1.40625, 0.1875), (1.40625, 0.125), (1.375, 0.125), (1.40625, 0.1875), (1.4375, 0.1875), (1.4375, 0.125), (1.40625, 0.125), (1.4375, 0.1875), (1.46875, 0.1875), (1.46875, 0.125), (1.4375, 0.125), (1.46875, 0.1875), (1.5, 0.1875), (1.5, 0.125), (1.46875, 0.125), (0.5, 0.125), (0.53125, 0.125), (0.53125, 0.0625), (0.5, 0.0625), (0.53125, 0.125), (0.5625, 0.125), (0.5625, 0.0625), (0.53125, 0.0625), (0.5625, 0.125), (0.59375, 0.125), (0.59375, 0.0625), (0.5625, 0.0625), (0.59375, 0.125), (0.625, 0.125), (0.625, 0.0625), (0.59375, 0.0625), (0.625, 0.125), (0.65625, 0.125), (0.65625, 0.0625), (0.625, 0.0625), (0.65625, 0.125), (0.6875, 0.125), (0.6875, 0.0625), (0.65625, 0.0625), (0.6875, 0.125), (0.71875, 0.125), (0.71875, 0.0625), (0.6875, 0.0625), (0.71875, 0.125), (0.75, 0.125), (0.75, 0.0625), (0.71875, 0.0625), (0.75, 0.125), (0.78125, 0.125), (0.78125, 0.0625), (0.75, 0.0625), (0.78125, 0.125), (0.8125, 0.125), (0.8125, 0.0625), (0.78125, 0.0625), (0.8125, 0.125), (0.84375, 0.125), (0.84375, 0.0625), (0.8125, 0.0625), (0.84375, 0.125), (0.875, 0.125), (0.875, 0.0625), (0.84375, 0.0625), (0.875, 0.125), (0.90625, 0.125), (0.90625, 0.0625), (0.875, 0.0625), (0.90625, 0.125), (0.9375, 0.125), (0.9375, 0.0625), (0.90625, 0.0625), (0.9375, 0.125), (0.96875, 0.125), (0.96875, 0.0625), (0.9375, 0.0625), (0.96875, 0.125), (1, 0.125), (1, 0.0625), (0.96875, 0.0625), (1, 0.125), (1.03125, 0.125), (1.03125, 0.0625), (1, 0.0625), (1.03125, 0.125), (1.0625, 0.125), (1.0625, 0.0625), (1.03125, 0.0625), (1.0625, 0.125), (1.09375, 0.125), (1.09375, 0.0625), (1.0625, 0.0625), (1.09375, 0.125), (1.125, 0.125), (1.125, 0.0625), (1.09375, 0.0625), (1.125, 0.125), (1.15625, 0.125), (1.15625, 0.0625), (1.125, 0.0625), (1.15625, 0.125), (1.1875, 0.125), (1.1875, 0.0625), (1.15625, 0.0625), (1.1875, 0.125), (1.21875, 0.125), (1.21875, 0.0625), (1.1875, 0.0625), (1.21875, 0.125), (1.25, 0.125), (1.25, 0.0625), (1.21875, 0.0625), (1.25, 0.125), (1.28125, 0.125), (1.28125, 0.0625), (1.25, 0.0625), (1.28125, 0.125), (1.3125, 0.125), (1.3125, 0.0625), (1.28125, 0.0625), (1.3125, 0.125), (1.34375, 0.125), (1.34375, 0.0625), (1.3125, 0.0625), (1.34375, 0.125), (1.375, 0.125), (1.375, 0.0625), (1.34375, 0.0625), (1.375, 0.125), (1.40625, 0.125), (1.40625, 0.0625), (1.375, 0.0625), (1.40625, 0.125), (1.4375, 0.125), (1.4375, 0.0625), (1.40625, 0.0625), (1.4375, 0.125), (1.46875, 0.125), (1.46875, 0.0625), (1.4375, 0.0625), (1.46875, 0.125), (1.5, 0.125), (1.5, 0.0625), (1.46875, 0.0625), (0.5, 0.0625), (0.53125, 0.0625), (0.515625, 0), (0.53125, 0.0625), (0.5625, 0.0625), (0.546875, 0), (0.5625, 0.0625), (0.59375, 0.0625), (0.578125, 0), (0.59375, 0.0625), (0.625, 0.0625), (0.609375, 0), (0.625, 0.0625), (0.65625, 0.0625), (0.640625, 0), (0.65625, 0.0625), (0.6875, 0.0625), (0.671875, 0), (0.6875, 0.0625), (0.71875, 0.0625), (0.703125, 0), (0.71875, 0.0625), (0.75, 0.0625), (0.734375, 0), (0.75, 0.0625), (0.78125, 0.0625), (0.765625, 0), (0.78125, 0.0625), (0.8125, 0.0625), (0.796875, 0), (0.8125, 0.0625), (0.84375, 0.0625), (0.828125, 0), (0.84375, 0.0625), (0.875, 0.0625), (0.859375, 0), (0.875, 0.0625), (0.90625, 0.0625), (0.890625, 0), (0.90625, 0.0625), (0.9375, 0.0625), (0.921875, 0), (0.9375, 0.0625), (0.96875, 0.0625), (0.953125, 0), (0.96875, 0.0625), (1, 0.0625), (0.984375, 0), (1, 0.0625), (1.03125, 0.0625), (1.015625, 0), (1.03125, 0.0625), (1.0625, 0.0625), (1.046875, 0), (1.0625, 0.0625), (1.09375, 0.0625), (1.078125, 0), (1.09375, 0.0625), (1.125, 0.0625), (1.109375, 0), (1.125, 0.0625), (1.15625, 0.0625), (1.140625, 0), (1.15625, 0.0625), (1.1875, 0.0625), (1.171875, 0), (1.1875, 0.0625), (1.21875, 0.0625), (1.203125, 0), (1.21875, 0.0625), (1.25, 0.0625), (1.234375, 0), (1.25, 0.0625), (1.28125, 0.0625), (1.265625, 0), (1.28125, 0.0625), (1.3125, 0.0625), (1.296875, 0), (1.3125, 0.0625), (1.34375, 0.0625), (1.328125, 0), (1.34375, 0.0625), (1.375, 0.0625), (1.359375, 0), (1.375, 0.0625), (1.40625, 0.0625), (1.390625, 0), (1.40625, 0.0625), (1.4375, 0.0625), (1.421875, 0), (1.4375, 0.0625), (1.46875, 0.0625), (1.453125, 0), (1.46875, 0.0625), (1.5, 0.0625), (1.484375, 0)] (
                interpolation = "faceVarying"
            )
            uniform token subdivisionScheme = "catmullClark"
        }

        def Mesh "Ground"
        {
            float3[] extent = [(-3, 0, -6), (11, 0, 6)]
            uniform bool doubleSided = 1
            int[] faceVertexCounts = [4, 4, 4, 4, 4, 4, 4, 4, 4, 4, 4, 4, 4, 4, 4, 4, 4, 4, 4, 4, 4, 4, 4, 4, 4, 4, 4, 4, 4, 4, 4, 4, 4, 4, 4, 4, 4, 4, 4, 4, 4, 4, 4, 4, 4, 4, 4, 4, 4, 4, 4, 4, 4, 4, 4, 4, 4, 4, 4, 4, 4, 4, 4, 4, 4, 4, 4, 4, 4, 4, 4, 4, 4, 4, 4, 4, 4, 4, 4, 4, 4, 4, 4, 4, 4, 4, 4, 4, 4, 4, 4, 4, 4, 4, 4, 4, 4, 4, 4, 4, 4, 4, 4, 4, 4, 4, 4, 4, 4, 4, 4, 4, 4, 4, 4, 4, 4, 4, 4, 4, 4, 4, 4, 4, 4, 4, 4, 4, 4, 4, 4, 4, 4, 4, 4, 4, 4, 4, 4, 4, 4, 4, 4, 4, 4, 4, 4, 4, 4, 4, 4, 4, 4, 4, 4, 4, 4, 4, 4, 4, 4, 4, 4, 4, 4, 4, 4, 4]
            int[] faceVertexIndices = [0, 1, 16, 15, 1, 2, 17, 16, 2, 3, 18, 17, 3, 4, 19, 18, 4, 5, 20, 19, 5, 6, 21, 20, 6, 7, 22, 21, 7, 8, 23, 22, 8, 9, 24, 23, 9, 10, 25, 24, 10, 11, 26, 25, 11, 12, 27, 26, 12, 13, 28, 27, 13, 14, 29, 28, 15, 16, 31, 30, 16, 17, 32, 31, 17, 18, 33, 32, 18, 19, 34, 33, 19, 20, 35, 34, 20, 21, 36, 35, 21, 22, 37, 36, 22, 23, 38, 37, 23, 24, 39, 38, 24, 25, 40, 39, 25, 26, 41, 40, 26, 27, 42, 41, 27, 28, 43, 42, 28, 29, 44, 43, 30, 31, 46, 45, 31, 32, 47, 46, 32, 33, 48, 47, 33, 34, 49, 48, 34, 35, 50, 49, 35, 36, 51, 50, 36, 37, 52, 51, 37, 38, 53, 52, 38, 39, 54, 53, 39, 40, 55, 54, 40, 41, 56, 55, 41, 42, 57, 56, 42, 43, 58, 57, 43, 44, 59, 58, 45, 46, 61, 60, 46, 47, 62, 61, 47, 48, 63, 62, 48, 49, 64, 63, 49, 50, 65, 64, 50, 51, 66, 65, 51, 52, 67, 66, 52, 53, 68, 67, 53, 54, 69, 68, 54, 55, 70, 69, 55, 56, 71, 70, 56, 57, 72, 71, 57, 58, 73, 72, 58, 59, 74, 73, 60, 61, 76, 75, 61, 62, 77, 76, 62, 63, 78, 77, 63, 64, 79, 78, 64, 65, 80, 79, 65, 66, 81, 80, 66, 67, 82, 81, 67, 68, 83, 82, 68, 69, 84, 83, 69, 70, 85, 84, 70, 71, 86, 85, 71, 72, 87, 86, 72, 73, 88, 87, 73, 74, 89, 88, 75, 76, 91, 90, 76, 77, 92, 91, 77, 78, 93, 92, 78, 79, 94, 93, 79, 80, 95, 94, 80, 81, 96, 95, 81, 82, 97, 96, 82, 83, 98, 97, 83, 84, 99, 98, 84, 85, 100, 99, 85, 86, 101, 100, 86, 87, 102, 101, 87, 88, 103, 102, 88, 89, 104, 103, 90, 91, 106, 105, 91, 92, 107, 106, 92, 93, 108, 107, 93, 94, 109, 108, 94, 95, 110, 109, 95, 96, 111, 110, 96, 97, 112, 111, 97, 98, 113, 112, 98, 99, 114, 113, 99, 100, 115, 114, 100, 101, 116, 115, 101, 102, 117, 116, 102, 103, 118, 117, 103, 104, 119, 118, 105, 106, 121, 120, 106, 107, 122, 121, 107, 108, 123, 122, 108, 109, 124, 123, 109, 110, 125, 124, 110, 111, 126, 125, 111, 112, 127, 126, 112, 113, 128, 127, 113, 114, 129, 128, 114, 115, 130, 129, 115, 116, 131, 130, 116, 117, 132, 131, 117, 118, 133, 132, 118, 119, 134, 133, 120, 121, 136, 135, 121, 122, 137, 136, 122, 123, 138, 137, 123, 124, 139, 138, 124, 125, 140, 139, 125, 126, 141, 140, 126, 127, 142, 141, 127, 128, 143, 142, 128, 129, 144, 143, 129, 130, 145, 144, 130, 131, 146, 145, 131, 132, 147, 146, 132, 133, 148, 147, 133, 134, 149, 148, 135, 136, 151, 150, 136, 137, 152, 151, 137, 138, 153, 152, 138, 139, 154, 153, 139, 140, 155, 154, 140, 141, 156, 155, 141, 142, 157, 156, 142, 143, 158, 157, 143, 144, 159, 158, 144, 145, 160, 159, 145, 146, 161, 160, 146, 147, 162, 161, 147, 148, 163, 162, 148, 149, 164, 163, 150, 151, 166, 165, 151, 152, 167, 166, 152, 153, 168, 167, 153, 154, 169, 168, 154, 155, 170, 169, 155, 156, 171, 170, 156, 157, 172, 171, 157, 158, 173, 172, 158, 159, 174, 173, 159, 160, 175, 174, 160, 161, 176, 175, 161, 162, 177, 176, 162, 163, 178, 177, 163, 164, 179, 178, 165, 166, 181, 180, 166, 167, 182, 181, 167, 168, 183, 182, 168, 169, 184, 183, 169, 170, 185, 184, 170, 171, 186, 185, 171, 172, 187, 186, 172, 173, 188, 187, 173, 174, 189, 188, 174, 175, 190, 189, 175, 176, 191, 190, 176, 177, 192, 191, 177, 178, 193, 192, 178, 179, 194, 193]
            point3f[] points = [(-3, 0, -6), (-2, 0, -6), (-1, 0, -6), (0, 0, -6), (1, 0, -6), (2, 0, -6), (3, 0, -6), (4, 0, -6), (5, 0, -6), (6, 0, -6), (7, 0, -6), (8, 0, -6), (9, 0, -6), (10, 0, -6), (11, 0, -6), (-3, 0, -5), (-2, 0, -5), (-1, 0, -5), (0, 0, -5), (1, 0, -5), (2, 0, -5), (3, 0, -5), (4, 0, -5), (5, 0, -5), (6, 0, -5), (7, 0, -5), (8, 0, -5), (9, 0, -5), (10, 0, -5), (11, 0, -5), (-3, 0, -4), (-2, 0, -4), (-1, 0, -4), (0, 0, -4), (1, 0, -4), (2, 0, -4), (3, 0, -4), (4, 0, -4), (5, 0, -4), (6, 0, -4), (7, 0, -4), (8, 0, -4), (9, 0, -4), (10, 0, -4), (11, 0, -4), (-3, 0, -3), (-2, 0, -3), (-1, 0, -3), (0, 0, -3), (1, 0, -3), (2, 0, -3), (3, 0, -3), (4, 0, -3), (5, 0, -3), (6, 0, -3), (7, 0, -3), (8, 0, -3), (9, 0, -3), (10, 0, -3), (11, 0, -3), (-3, 0, -2), (-2, 0, -2), (-1, 0, -2), (0, 0, -2), (1, 0, -2), (2, 0, -2), (3, 0, -2), (4, 0, -2), (5, 0, -2), (6, 0, -2), (7, 0, -2), (8, 0, -2), (9, 0, -2), (10, 0, -2), (11, 0, -2), (-3, 0, -1), (-2, 0, -1), (-1, 0, -1), (0, 0, -1), (1, 0, -1), (2, 0, -1), (3, 0, -1), (4, 0, -1), (5, 0, -1), (6, 0, -1), (7, 0, -1), (8, 0, -1), (9, 0, -1), (10, 0, -1), (11, 0, -1), (-3, 0, 0), (-2, 0, 0), (-1, 0, 0), (0, 0, 0), (1, 0, 0), (2, 0, 0), (3, 0, 0), (4, 0, 0), (5, 0, 0), (6, 0, 0), (7, 0, 0), (8, 0, 0), (9, 0, 0), (10, 0, 0), (11, 0, 0), (-3, 0, 1), (-2, 0, 1), (-1, 0, 1), (0, 0, 1), (1, 0, 1), (2, 0, 1), (3, 0, 1), (4, 0, 1), (5, 0, 1), (6, 0, 1), (7, 0, 1), (8, 0, 1), (9, 0, 1), (10, 0, 1), (11, 0, 1), (-3, 0, 2), (-2, 0, 2), (-1, 0, 2), (0, 0, 2), (1, 0, 2), (2, 0, 2), (3, 0, 2), (4, 0, 2), (5, 0, 2), (6, 0, 2), (7, 0, 2), (8, 0, 2), (9, 0, 2), (10, 0, 2), (11, 0, 2), (-3, 0, 3), (-2, 0, 3), (-1, 0, 3), (0, 0, 3), (1, 0, 3), (2, 0, 3), (3, 0, 3), (4, 0, 3), (5, 0, 3), (6, 0, 3), (7, 0, 3), (8, 0, 3), (9, 0, 3), (10, 0, 3), (11, 0, 3), (-3, 0, 4), (-2, 0, 4), (-1, 0, 4), (0, 0, 4), (1, 0, 4), (2, 0, 4), (3, 0, 4), (4, 0, 4), (5, 0, 4), (6, 0, 4), (7, 0, 4), (8, 0, 4), (9, 0, 4), (10, 0, 4), (11, 0, 4), (-3, 0, 5), (-2, 0, 5), (-1, 0, 5), (0, 0, 5), (1, 0, 5), (2, 0, 5), (3, 0, 5), (4, 0, 5), (5, 0, 5), (6, 0, 5), (7, 0, 5), (8, 0, 5), (9, 0, 5), (10, 0, 5), (11, 0, 5), (-3, 0, 6), (-2, 0, 6), (-1, 0, 6), (0, 0, 6), (1, 0, 6), (2, 0, 6), (3, 0, 6), (4, 0, 6), (5, 0, 6), (6, 0, 6), (7, 0, 6), (8, 0, 6), (9, 0, 6), (10, 0, 6), (11, 0, 6)]
            color3f[] primvars:displayColor = [(0.3, 0.33, 0.37), (0.22, 0.24, 0.27), (0.3, 0.33, 0.37), (0.22, 0.24, 0.27), (0.3, 0.33, 0.37), (0.22, 0.24, 0.27), (0.3, 0.33, 0.37), (0.22, 0.24, 0.27), (0.3, 0.33, 0.37), (0.22, 0.24, 0.27), (0.3, 0.33, 0.37), (0.22, 0.24, 0.27), (0.3, 0.33, 0.37), (0.22, 0.24, 0.27), (0.22, 0.24, 0.27), (0.3, 0.33, 0.37), (0.22, 0.24, 0.27), (0.3, 0.33, 0.37), (0.22, 0.24, 0.27), (0.3, 0.33, 0.37), (0.22, 0.24, 0.27), (0.3, 0.33, 0.37), (0.22, 0.24, 0.27), (0.3, 0.33, 0.37), (0.22, 0.24, 0.27), (0.3, 0.33, 0.37), (0.22, 0.24, 0.27), (0.3, 0.33, 0.37), (0.3, 0.33, 0.37), (0.22, 0.24, 0.27), (0.3, 0.33, 0.37), (0.22, 0.24, 0.27), (0.3, 0.33, 0.37), (0.22, 0.24, 0.27), (0.3, 0.33, 0.37), (0.22, 0.24, 0.27), (0.3, 0.33, 0.37), (0.22, 0.24, 0.27), (0.3, 0.33, 0.37), (0.22, 0.24, 0.27), (0.3, 0.33, 0.37), (0.22, 0.24, 0.27), (0.22, 0.24, 0.27), (0.3, 0.33, 0.37), (0.22, 0.24, 0.27), (0.3, 0.33, 0.37), (0.22, 0.24, 0.27), (0.3, 0.33, 0.37), (0.22, 0.24, 0.27), (0.3, 0.33, 0.37), (0.22, 0.24, 0.27), (0.3, 0.33, 0.37), (0.22, 0.24, 0.27), (0.3, 0.33, 0.37), (0.22, 0.24, 0.27), (0.3, 0.33, 0.37), (0.3, 0.33, 0.37), (0.22, 0.24, 0.27), (0.3, 0.33, 0.37), (0.22, 0.24, 0.27), (0.3, 0.33, 0.37), (0.22, 0.24, 0.27), (0.3, 0.33, 0.37), (0.22, 0.24, 0.27), (0.3, 0.33, 0.37), (0.22, 0.24, 0.27), (0.3, 0.33, 0.37), (0.22, 0.24, 0.27), (0.3, 0.33, 0.37), (0.22, 0.24, 0.27), (0.22, 0.24, 0.27), (0.3, 0.33, 0.37), (0.22, 0.24, 0.27), (0.3, 0.33, 0.37), (0.22, 0.24, 0.27), (0.3, 0.33, 0.37), (0.22, 0.24, 0.27), (0.3, 0.33, 0.37), (0.22, 0.24, 0.27), (0.3, 0.33, 0.37), (0.22, 0.24, 0.27), (0.3, 0.33, 0.37), (0.22, 0.24, 0.27), (0.3, 0.33, 0.37), (0.3, 0.33, 0.37), (0.22, 0.24, 0.27), (0.3, 0.33, 0.37), (0.22, 0.24, 0.27), (0.3, 0.33, 0.37), (0.22, 0.24, 0.27), (0.3, 0.33, 0.37), (0.22, 0.24, 0.27), (0.3, 0.33, 0.37), (0.22, 0.24, 0.27), (0.3, 0.33, 0.37), (0.22, 0.24, 0.27), (0.3, 0.33, 0.37), (0.22, 0.24, 0.27), (0.22, 0.24, 0.27), (0.3, 0.33, 0.37), (0.22, 0.24, 0.27), (0.3, 0.33, 0.37), (0.22, 0.24, 0.27), (0.3, 0.33, 0.37), (0.22, 0.24, 0.27), (0.3, 0.33, 0.37), (0.22, 0.24, 0.27), (0.3, 0.33, 0.37), (0.22, 0.24, 0.27), (0.3, 0.33, 0.37), (0.22, 0.24, 0.27), (0.3, 0.33, 0.37), (0.3, 0.33, 0.37), (0.22, 0.24, 0.27), (0.3, 0.33, 0.37), (0.22, 0.24, 0.27), (0.3, 0.33, 0.37), (0.22, 0.24, 0.27), (0.3, 0.33, 0.37), (0.22, 0.24, 0.27), (0.3, 0.33, 0.37), (0.22, 0.24, 0.27), (0.3, 0.33, 0.37), (0.22, 0.24, 0.27), (0.3, 0.33, 0.37), (0.22, 0.24, 0.27), (0.22, 0.24, 0.27), (0.3, 0.33, 0.37), (0.22, 0.24, 0.27), (0.3, 0.33, 0.37), (0.22, 0.24, 0.27), (0.3, 0.33, 0.37), (0.22, 0.24, 0.27), (0.3, 0.33, 0.37), (0.22, 0.24, 0.27), (0.3, 0.33, 0.37), (0.22, 0.24, 0.27), (0.3, 0.33, 0.37), (0.22, 0.24, 0.27), (0.3, 0.33, 0.37), (0.3, 0.33, 0.37), (0.22, 0.24, 0.27), (0.3, 0.33, 0.37), (0.22, 0.24, 0.27), (0.3, 0.33, 0.37), (0.22, 0.24, 0.27), (0.3, 0.33, 0.37), (0.22, 0.24, 0.27), (0.3, 0.33, 0.37), (0.22, 0.24, 0.27), (0.3, 0.33, 0.37), (0.22, 0.24, 0.27), (0.3, 0.33, 0.37), (0.22, 0.24, 0.27), (0.22, 0.24, 0.27), (0.3, 0.33, 0.37), (0.22, 0.24, 0.27), (0.3, 0.33, 0.37), (0.22, 0.24, 0.27), (0.3, 0.33, 0.37), (0.22, 0.24, 0.27), (0.3, 0.33, 0.37), (0.22, 0.24, 0.27), (0.3, 0.33, 0.37), (0.22, 0.24, 0.27), (0.3, 0.33, 0.37), (0.22, 0.24, 0.27), (0.3, 0.33, 0.37)] (
                interpolation = "uniform"
            )
            uniform token subdivisionScheme = "none"
        }
    }

    def Camera "MainCam"
    {
        float2 clippingRange = (0.1, 200)
        float focalLength = 24
        float horizontalAperture = 20.95
        float verticalAperture = 11.79
        double3 xformOp:rotateXYZ = (-8, 0, 0)
        double3 xformOp:translate = (4, 3.6, 21)
        uniform token[] xformOpOrder = ["xformOp:translate", "xformOp:rotateXYZ"]
    }
}
