#usda 1.0
(
    "The lash proxies' deformers. Separate layer for now; fold into Biped_face_parts.usda once the eye scopes are settled."
)

over "Biped"
{
    over "Rig"
    {
        over "Weights"
        {
            def Scope "lashes"
            {
                def RigExecStaticWeight "blinkLower_l_cluster_on_lash_upper_l_proxy"
                {
                    float rigExec:defaultWeight = 0
                    int[] rigExec:indices = [0, 1, 2, 3, 4, 11, 12, 13, 14, 15, 16, 17, 18, 19, 26, 27, 28, 29, 30, 31, 46, 47, 48, 49, 63, 64, 65, 66, 67, 68, 69, 70, 71, 72, 73, 74, 88, 89, 90, 91]
                    token rigExec:representation = "sparse"
                    float[] rigExec:values = [0.54, 0.463, 0.193, 0.364, 0.007, 0.004, 0.013, 0.016, 0.024, 0.51, 0.441, 0.153, 0.337, 0.005, 0.004, 0.013, 0.016, 0.024, 0.038, 0.057, 0.024, 0.016, 0.013, 0.004, 0.005, 0.044, 0.168, 0.344, 0.447, 0.518, 0.528, 0.455, 0.355, 0.183, 0.053, 0.006, 0.004, 0.013, 0.016, 0.024]
                    custom rel rigExec:weightTarget = </Biped/Geom/lash_upper_l_proxy.points>
                }

                def RigExecStaticWeight "blinkUpper_l_cluster_on_lash_upper_l_proxy"
                {
                    float rigExec:defaultWeight = 0
                    int[] rigExec:indices = [1, 2, 3, 4, 5, 6, 7, 8, 9, 10, 11, 12, 13, 14, 15, 16, 17, 18, 19, 20, 21, 22, 23, 24, 25, 26, 27, 28, 29, 30, 31, 32, 33, 34, 35, 36, 37, 38, 39, 40, 41, 42, 43, 44, 45, 46, 47, 48, 49, 50, 51, 52, 53, 54, 55, 56, 57, 58, 59, 60, 61, 62, 63, 64, 65, 66, 67, 68, 69, 70, 71, 72, 73, 74, 75, 76, 77, 78, 79, 80, 81, 82, 83, 84, 85, 86, 87, 88, 89, 90, 91]
                    token rigExec:representation = "sparse"
                    float[] rigExec:values = [0.028, 0.272, 0.106, 0.642, 0.851, 0.886, 0.915, 0.94, 0.976, 0.962, 0.578, 0.451, 0.325, 0.24, 0.011, 0.045, 0.33, 0.132, 0.676, 0.852, 0.886, 0.915, 0.94, 0.974, 0.965, 0.58, 0.432, 0.325, 0.245, 0.537, 0.471, 0.883, 0.855, 0.962, 0.963, 0.755, 0.739, 0.786, 0.759, 0.695, 0.681, 0.806, 0.811, 0.933, 0.923, 0.242, 0.325, 0.438, 0.582, 0.692, 0.776, 0.872, 0.929, 0.964, 0.975, 0.962, 0.94, 0.915, 0.887, 0.852, 0.809, 0.75, 0.665, 0.515, 0.308, 0.125, 0.04, 0.008, 0.004, 0.034, 0.115, 0.287, 0.485, 0.649, 0.743, 0.807, 0.852, 0.886, 0.915, 0.94, 0.963, 0.976, 0.963, 0.925, 0.86, 0.764, 0.685, 0.58, 0.449, 0.325, 0.24]
                    custom rel rigExec:weightTarget = </Biped/Geom/lash_upper_l_proxy.points>
                }

                def RigExecStaticWeight "socketStretch_l_cluster_on_lash_upper_l_proxy"
                {
                    float rigExec:defaultWeight = 0
                    int[] rigExec:indices = [1, 2, 3, 4, 5, 6, 7, 8, 9, 10, 11, 12, 13, 14, 16, 17, 18, 19, 20, 21, 22, 23, 24, 25, 26, 27, 28, 29, 30, 31, 32, 33, 34, 35, 36, 37, 38, 39, 40, 41, 42, 43, 44, 45, 46, 47, 48, 49, 50, 51, 52, 53, 54, 55, 56, 57, 58, 59, 60, 61, 62, 63, 64, 65, 66, 67, 70, 71, 72, 73, 74, 75, 76, 77, 78, 79, 80, 81, 82, 83, 84, 85, 86, 87, 88, 89, 90, 91]
                    token rigExec:representation = "sparse"
                    float[] rigExec:values = [0.13, 0.436, 0.263, 0.767, 0.989, 1, 1, 1, 1, 1, 0.363, 0.224, 0.109, 0.014, 0.1, 0.454, 0.255, 0.742, 0.75, 0.726, 0.717, 0.717, 0.778, 0.789, 0.4, 0.24, 0.13, 0.059, 0.633, 0.592, 0.758, 0.791, 0.743, 1, 0.743, 0.878, 0.667, 0.636, 0.549, 0.494, 0.943, 0.762, 0.788, 0.923, 0.046, 0.125, 0.24, 0.387, 0.527, 0.661, 0.78, 0.85, 0.869, 0.863, 0.841, 0.818, 0.828, 0.837, 0.845, 0.844, 0.803, 0.759, 0.622, 0.449, 0.254, 0.111, 0.118, 0.265, 0.441, 0.602, 0.768, 0.855, 0.912, 0.944, 0.949, 0.944, 0.942, 0.946, 0.952, 0.955, 0.905, 0.791, 0.646, 0.505, 0.372, 0.23, 0.116, 0.029]
                    custom rel rigExec:weightTarget = </Biped/Geom/lash_upper_l_proxy.points>
                }

                def RigExecStaticWeight "blinkLower_r_cluster_on_lash_upper_r_proxy"
                {
                    float rigExec:defaultWeight = 0
                    int[] rigExec:indices = [0, 1, 2, 3, 4, 11, 12, 13, 14, 15, 16, 17, 18, 19, 26, 27, 28, 29, 30, 31, 46, 47, 48, 49, 63, 64, 65, 66, 67, 68, 69, 70, 71, 72, 73, 74, 88, 89, 90, 91]
                    token rigExec:representation = "sparse"
                    float[] rigExec:values = [0.54, 0.463, 0.193, 0.364, 0.007, 0.004, 0.013, 0.016, 0.024, 0.51, 0.441, 0.153, 0.337, 0.005, 0.004, 0.013, 0.016, 0.024, 0.038, 0.057, 0.024, 0.016, 0.013, 0.004, 0.005, 0.044, 0.168, 0.344, 0.447, 0.518, 0.528, 0.455, 0.355, 0.183, 0.053, 0.006, 0.004, 0.013, 0.016, 0.024]
                    custom rel rigExec:weightTarget = </Biped/Geom/lash_upper_r_proxy.points>
                }

                def RigExecStaticWeight "blinkUpper_r_cluster_on_lash_upper_r_proxy"
                {
                    float rigExec:defaultWeight = 0
                    int[] rigExec:indices = [1, 2, 3, 4, 5, 6, 7, 8, 9, 10, 11, 12, 13, 14, 15, 16, 17, 18, 19, 20, 21, 22, 23, 24, 25, 26, 27, 28, 29, 30, 31, 32, 33, 34, 35, 36, 37, 38, 39, 40, 41, 42, 43, 44, 45, 46, 47, 48, 49, 50, 51, 52, 53, 54, 55, 56, 57, 58, 59, 60, 61, 62, 63, 64, 65, 66, 67, 68, 69, 70, 71, 72, 73, 74, 75, 76, 77, 78, 79, 80, 81, 82, 83, 84, 85, 86, 87, 88, 89, 90, 91]
                    token rigExec:representation = "sparse"
                    float[] rigExec:values = [0.028, 0.272, 0.106, 0.642, 0.851, 0.886, 0.915, 0.94, 0.976, 0.962, 0.578, 0.451, 0.325, 0.24, 0.011, 0.045, 0.33, 0.132, 0.676, 0.852, 0.886, 0.915, 0.94, 0.974, 0.965, 0.58, 0.432, 0.325, 0.245, 0.537, 0.471, 0.883, 0.855, 0.962, 0.963, 0.755, 0.739, 0.786, 0.759, 0.695, 0.681, 0.806, 0.811, 0.933, 0.923, 0.242, 0.325, 0.438, 0.582, 0.692, 0.776, 0.872, 0.929, 0.964, 0.975, 0.962, 0.94, 0.915, 0.887, 0.852, 0.809, 0.75, 0.665, 0.515, 0.308, 0.125, 0.04, 0.008, 0.004, 0.034, 0.115, 0.287, 0.485, 0.649, 0.743, 0.807, 0.852, 0.886, 0.915, 0.94, 0.963, 0.976, 0.963, 0.925, 0.86, 0.764, 0.685, 0.58, 0.449, 0.325, 0.24]
                    custom rel rigExec:weightTarget = </Biped/Geom/lash_upper_r_proxy.points>
                }

                def RigExecStaticWeight "socketStretch_r_cluster_on_lash_upper_r_proxy"
                {
                    float rigExec:defaultWeight = 0
                    int[] rigExec:indices = [1, 2, 3, 4, 5, 6, 7, 8, 9, 10, 11, 12, 13, 14, 16, 17, 18, 19, 20, 21, 22, 23, 24, 25, 26, 27, 28, 29, 30, 31, 32, 33, 34, 35, 36, 37, 38, 39, 40, 41, 42, 43, 44, 45, 46, 47, 48, 49, 50, 51, 52, 53, 54, 55, 56, 57, 58, 59, 60, 61, 62, 63, 64, 65, 66, 67, 70, 71, 72, 73, 74, 75, 76, 77, 78, 79, 80, 81, 82, 83, 84, 85, 86, 87, 88, 89, 90, 91]
                    token rigExec:representation = "sparse"
                    float[] rigExec:values = [0.13, 0.436, 0.263, 0.767, 0.989, 1, 1, 1, 1, 1, 0.363, 0.224, 0.109, 0.014, 0.1, 0.454, 0.255, 0.742, 0.75, 0.726, 0.717, 0.717, 0.778, 0.789, 0.4, 0.24, 0.13, 0.059, 0.633, 0.592, 0.758, 0.791, 0.743, 1, 0.743, 0.878, 0.667, 0.636, 0.549, 0.494, 0.943, 0.762, 0.788, 0.923, 0.046, 0.125, 0.24, 0.387, 0.527, 0.661, 0.78, 0.85, 0.869, 0.863, 0.841, 0.818, 0.828, 0.837, 0.845, 0.844, 0.803, 0.759, 0.622, 0.449, 0.254, 0.111, 0.118, 0.265, 0.441, 0.602, 0.768, 0.855, 0.912, 0.944, 0.949, 0.944, 0.942, 0.946, 0.952, 0.955, 0.905, 0.791, 0.646, 0.505, 0.372, 0.23, 0.116, 0.029]
                    custom rel rigExec:weightTarget = </Biped/Geom/lash_upper_r_proxy.points>
                }
            }
        }

        over "Movers"
        {
            def Scope "lashes_geo"
            {
                reorder nameChildren = ["socketStretch_r_cluster_on_lash_upper_r_proxy", "socketStretch_l_cluster_on_lash_upper_l_proxy", "blinkUpper_l_cluster_on_lash_upper_l_proxy", "blinkUpper_r_cluster_on_lash_upper_r_proxy", "blinkLower_l_cluster_on_lash_upper_l_proxy", "blinkLower_r_cluster_on_lash_upper_r_proxy"]
                def RigExecMatrixMover "blinkLower_l_cluster_on_lash_upper_l_proxy" (
                    apiSchemas = ["RigExecMoverAPI"]
                )
                {
                    custom rel rigExec:moves = </Biped/Geom/lash_upper_l_proxy.points>
                    custom rel rigExec:transform = </Biped/Rig/Main/Shot/Aux/Controls/M_Body/M_Torso/M_Chest/M_ChestTop/M_Neck/M_Head/M_HeadGimbal/skull_follow/M_Skull/M_UpFace/L_EyeSocket/blinkLower_l_pivot>
                    token rigExec:transformReadPhase = "final"
                    custom rel rigExec:transformSpace = </Biped/Rig/Main/Shot/Aux/Controls/M_Body/M_Torso/M_Chest/M_ChestTop/M_Neck/M_Head/M_HeadGimbal/skull_follow/M_Skull/M_UpFace/L_EyeSocket>
                    token rigExec:weightBlend = "radial"
                    custom rel rigExec:weightObject = </Biped/Rig/Weights/lashes/blinkLower_l_cluster_on_lash_upper_l_proxy>
                }

                def RigExecMatrixMover "blinkUpper_l_cluster_on_lash_upper_l_proxy" (
                    apiSchemas = ["RigExecMoverAPI"]
                )
                {
                    custom rel rigExec:moves = </Biped/Geom/lash_upper_l_proxy.points>
                    custom rel rigExec:transform = </Biped/Rig/Main/Shot/Aux/Controls/M_Body/M_Torso/M_Chest/M_ChestTop/M_Neck/M_Head/M_HeadGimbal/skull_follow/M_Skull/M_UpFace/L_EyeSocket/blinkUpper_l_pivot>
                    token rigExec:transformReadPhase = "final"
                    custom rel rigExec:transformSpace = </Biped/Rig/Main/Shot/Aux/Controls/M_Body/M_Torso/M_Chest/M_ChestTop/M_Neck/M_Head/M_HeadGimbal/skull_follow/M_Skull/M_UpFace/L_EyeSocket>
                    token rigExec:weightBlend = "radial"
                    custom rel rigExec:weightObject = </Biped/Rig/Weights/lashes/blinkUpper_l_cluster_on_lash_upper_l_proxy>
                }

                def RigExecMatrixMover "socketStretch_l_cluster_on_lash_upper_l_proxy" (
                    apiSchemas = ["RigExecMoverAPI"]
                )
                {
                    custom rel rigExec:moves = </Biped/Geom/lash_upper_l_proxy.points>
                    custom rel rigExec:transform = </Biped/Rig/Main/Shot/Aux/Controls/M_Body/M_Torso/M_Chest/M_ChestTop/M_Neck/M_Head/M_HeadGimbal/skull_follow/M_Skull/M_UpFace/L_EyeSocket/socketStretch_l_pivot>
                    token rigExec:transformReadPhase = "final"
                    custom rel rigExec:transformSpace = </Biped/Rig/Main/Shot/Aux/Controls/M_Body/M_Torso/M_Chest/M_ChestTop/M_Neck/M_Head/M_HeadGimbal/skull_follow/M_Skull/M_UpFace/L_EyeSocket>
                    token rigExec:weightBlend = "radial"
                    custom rel rigExec:weightObject = </Biped/Rig/Weights/lashes/socketStretch_l_cluster_on_lash_upper_l_proxy>
                }

                def RigExecMatrixMover "blinkLower_r_cluster_on_lash_upper_r_proxy" (
                    apiSchemas = ["RigExecMoverAPI"]
                )
                {
                    custom rel rigExec:moves = </Biped/Geom/lash_upper_r_proxy.points>
                    custom rel rigExec:transform = </Biped/Rig/Main/Shot/Aux/Controls/M_Body/M_Torso/M_Chest/M_ChestTop/M_Neck/M_Head/M_HeadGimbal/skull_follow/M_Skull/M_UpFace/R_EyeSocket/blinkLower_r_pivot>
                    token rigExec:transformReadPhase = "final"
                    custom rel rigExec:transformSpace = </Biped/Rig/Main/Shot/Aux/Controls/M_Body/M_Torso/M_Chest/M_ChestTop/M_Neck/M_Head/M_HeadGimbal/skull_follow/M_Skull/M_UpFace/R_EyeSocket>
                    token rigExec:weightBlend = "radial"
                    custom rel rigExec:weightObject = </Biped/Rig/Weights/lashes/blinkLower_r_cluster_on_lash_upper_r_proxy>
                }

                def RigExecMatrixMover "blinkUpper_r_cluster_on_lash_upper_r_proxy" (
                    apiSchemas = ["RigExecMoverAPI"]
                )
                {
                    custom rel rigExec:moves = </Biped/Geom/lash_upper_r_proxy.points>
                    custom rel rigExec:transform = </Biped/Rig/Main/Shot/Aux/Controls/M_Body/M_Torso/M_Chest/M_ChestTop/M_Neck/M_Head/M_HeadGimbal/skull_follow/M_Skull/M_UpFace/R_EyeSocket/blinkUpper_r_pivot>
                    token rigExec:transformReadPhase = "final"
                    custom rel rigExec:transformSpace = </Biped/Rig/Main/Shot/Aux/Controls/M_Body/M_Torso/M_Chest/M_ChestTop/M_Neck/M_Head/M_HeadGimbal/skull_follow/M_Skull/M_UpFace/R_EyeSocket>
                    token rigExec:weightBlend = "radial"
                    custom rel rigExec:weightObject = </Biped/Rig/Weights/lashes/blinkUpper_r_cluster_on_lash_upper_r_proxy>
                }

                def RigExecMatrixMover "socketStretch_r_cluster_on_lash_upper_r_proxy" (
                    apiSchemas = ["RigExecMoverAPI"]
                )
                {
                    custom rel rigExec:moves = </Biped/Geom/lash_upper_r_proxy.points>
                    custom rel rigExec:transform = </Biped/Rig/Main/Shot/Aux/Controls/M_Body/M_Torso/M_Chest/M_ChestTop/M_Neck/M_Head/M_HeadGimbal/skull_follow/M_Skull/M_UpFace/R_EyeSocket/socketStretch_r_pivot>
                    token rigExec:transformReadPhase = "final"
                    custom rel rigExec:transformSpace = </Biped/Rig/Main/Shot/Aux/Controls/M_Body/M_Torso/M_Chest/M_ChestTop/M_Neck/M_Head/M_HeadGimbal/skull_follow/M_Skull/M_UpFace/R_EyeSocket>
                    token rigExec:weightBlend = "radial"
                    custom rel rigExec:weightObject = </Biped/Rig/Weights/lashes/socketStretch_r_cluster_on_lash_upper_r_proxy>
                }
            }
        }
    }
}

