#usda 1.0
(
    doc = """Geometry-domain constraint target: rigExec:moves names
    <prim>.points, so the constraint deforms the point set rather than
    revising the prim transform. Phase 4 of the constraint target
    unification implements this; until then the compiler reports it as an
    explicit deferral rather than a malformed target.

    The A/B partner of aimtest.usda, which is byte-identical except that it
    names the prim and therefore takes the transform domain.
"""
    endTimeCode = 100
    startTimeCode = 1
)

def Xform "World"
{
    custom float2 ui:nodegraph:node:pos = (0, 0)

    def Scope "Geom"
    {
        float2 ui:nodegraph:node:pos = (0.18350433, 0.10967577)

        def Xform "pivot"
        {
            float2 ui:nodegraph:node:pos = (0.14091375, 0.1448949)
            float3 xformOp:rotateXYZ = (0, 180, 0)
            float3 xformOp:rotateXYZ.timeSamples = {
                0: (0, 0, 0),
                1: (0, 0, 0),
                100: (0, 180, 0),
            }
            float xformOp:rotateY = 180
            float xformOp:rotateY.timeSamples = {
                0: 0,
                1: 0,
                100: 180,
            }
            uniform token[] xformOpOrder = ["xformOp:rotateY"]

            def Plane "Plane1"
            {
                float2 ui:nodegraph:node:pos = (1.5426012, -0.69274974)
                double3 xformOp:translate = (0, 0, 1)
                double3 xformOp:translate.timeSamples = {
                    0: (0, 0, 0),
                    1: (0, 0, 1),
                    100: (0, 0, 1),
                }
                uniform token[] xformOpOrder = ["xformOp:translate"]
            }
        }

        def Mesh "Sphere"
        {
            uniform bool doubleSided = 1
            float3[] extent = [(-0.5, -0.5, -0.5), (0.5, 0.5, 0.5)]
            int[] faceVertexCounts = [3, 3, 3, 3, 3, 3, 3, 3, 3, 3, 3, 3, 3, 3, 3, 3, 3, 3, 3, 3, 3, 3, 3, 3, 3, 3, 3, 3, 3, 3, 3, 3, 3, 3, 3, 3, 3, 3, 3, 3, 3, 3, 3, 3, 3, 3, 3, 3, 3, 3, 3, 3, 3, 3, 3, 3, 3, 3, 3, 3, 3, 3, 3, 3, 3, 3, 3, 3, 3, 3, 3, 3, 3, 3, 3, 3, 3, 3, 3, 3, 3, 3, 3, 3, 3, 3, 3, 3, 3, 3, 3, 3, 3, 3, 3, 3, 3, 3, 3, 3, 3, 3, 3, 3, 3, 3, 3, 3, 3, 3, 3, 3, 3, 3, 3, 3, 3, 3, 3, 3, 3, 3, 3, 3, 3, 3, 3, 3, 3, 3, 3, 3, 3, 3, 3, 3, 3, 3, 3, 3, 3, 3, 3, 3, 3, 3, 3, 3, 3, 3, 3, 3, 3, 3, 3, 3, 3, 3, 3, 3, 3, 3, 3, 3, 3, 3, 3, 3, 3, 3, 3, 3, 3, 3, 3, 3, 3, 3, 3, 3, 3, 3, 3, 3, 3, 3, 3, 3, 3, 3, 3, 3, 3, 3, 3, 3, 3, 3, 3, 3, 3, 3, 3, 3, 3, 3, 3, 3, 3, 3, 3, 3, 3, 3, 3, 3, 3, 3, 3, 3, 3, 3, 3, 3, 3, 3, 3, 3, 3, 3, 3, 3, 3, 3, 3, 3, 3, 3, 3, 3, 3, 3, 3, 3, 3, 3, 3, 3, 3, 3, 3, 3, 3, 3, 3, 3, 3, 3, 3, 3, 3, 3, 3, 3, 3, 3, 3, 3, 3, 3, 3, 3, 3, 3, 3, 3, 3, 3, 3, 3, 3, 3, 3, 3, 3, 3, 3, 3, 3, 3, 3, 3, 3, 3, 3, 3, 3, 3, 3, 3, 3, 3, 3, 3, 3, 3, 3, 3, 3, 3, 3, 3, 3, 3, 3, 3, 3, 3, 3, 3, 3, 3, 3, 3, 3, 3, 3, 3, 3, 3, 3, 3, 3, 3, 3, 3, 3, 3, 3, 3, 3, 3, 3, 3, 3, 3, 3, 3, 3, 3, 3, 3, 3, 3, 3, 3, 3, 3, 3, 3, 3, 3, 3, 3, 3, 3, 3, 3, 3, 3, 3, 3, 3, 3, 3, 3, 3, 3, 3, 3, 3, 3, 3, 3, 3, 3, 3, 3, 3, 3, 3, 3, 3, 3, 3, 3, 3, 3, 3, 3, 3, 3, 3, 3, 3, 3, 3, 3, 3, 3, 3, 3, 3, 3, 3, 3, 3, 3, 3, 3, 3, 3, 3, 3, 3, 3, 3, 3, 3, 3, 3, 3, 3, 3, 3, 3, 3, 3, 3, 3, 3, 3, 3, 3, 3, 3, 3, 3, 3, 3, 3, 3, 3, 3, 3, 3, 3, 3, 3, 3, 3, 3, 3, 3, 3, 3, 3, 3, 3, 3, 3, 3, 3, 3, 3, 3, 3, 3, 3, 3, 3, 3, 3, 3, 3, 3, 3, 3, 3, 3, 3, 3, 3, 3, 3, 3, 3, 3, 3, 3, 3, 3, 3, 3, 3, 3, 3, 3, 3, 3, 3, 3, 3, 3, 3, 3, 3, 3, 3, 3, 3, 3, 3, 3, 3, 3, 3, 3, 3, 3, 3, 3, 3, 3, 3, 3, 3, 3, 3, 3, 3, 3, 3, 3, 3, 3, 3, 3, 3, 3, 3, 3, 3, 3, 3, 3, 3, 3, 3, 3, 3, 3, 3, 3, 3, 3, 3, 3, 3, 3, 3, 3, 3, 3, 3, 3, 3, 3, 3, 3, 3, 3, 3, 3, 3, 3, 3, 3, 3, 3, 3, 3, 3, 3, 3, 3, 3, 3, 3, 3, 3, 3, 3, 3, 3, 3, 3, 3, 3, 3, 3, 3, 3, 3, 3, 3, 3, 3, 3, 3, 3, 3, 3, 3, 3, 3, 3, 3, 3, 3, 3, 3, 3, 3, 3, 3, 3, 3, 3, 3, 3, 3, 3, 3, 3, 3, 3, 3, 3, 3, 3, 3, 3, 3, 3, 3, 3, 3, 3, 3, 3, 3, 3, 3, 3, 3, 3, 3, 3, 3, 3, 3, 3, 3, 3, 3, 3, 3, 3, 3, 3, 3, 3, 3, 3, 3, 3, 3, 3, 3, 3, 3, 3, 3, 3, 3, 3, 3, 3, 3, 3, 3, 3, 3, 3, 3, 3, 3, 3, 3, 3, 3, 3, 3, 3, 3, 3, 3, 3, 3, 3, 3, 3, 3, 3, 3, 3, 3, 3, 3, 3, 3, 3, 3, 3, 3, 3, 3, 3, 3, 3, 3, 3, 3, 3, 3, 3, 3, 3, 3, 3, 3, 3, 3, 3, 3, 3, 3, 3, 3, 3, 3, 3, 3, 3, 3, 3, 3, 3, 3, 3, 3, 3, 3, 3, 3, 3, 3, 3, 3, 3, 3, 3, 3, 3, 3, 3, 3, 3, 3, 3, 3, 3, 3, 3, 3, 3, 3, 3, 3, 3, 3, 3, 3, 3, 3, 3, 3, 3, 3, 3, 3, 3, 3, 3, 3, 3, 3, 3, 3, 3, 3, 3, 3, 3, 3, 3, 3, 3, 3, 3, 3, 3, 3, 3, 3, 3, 3, 3, 3, 3, 3, 3, 3, 3, 3, 3, 3, 3, 3, 3, 3, 3, 3, 3, 3, 3, 3, 3, 3, 3, 3, 3, 3, 3, 3, 3, 3, 3, 3, 3, 3, 3, 3, 3, 3, 3, 3, 3, 3, 3, 3, 3, 3, 3, 3, 3, 3, 3, 3, 3, 3, 3, 3, 3, 3, 3, 3, 3, 3, 3, 3, 3, 3, 3, 3, 3, 3, 3, 3, 3, 3, 3, 3, 3, 3, 3, 3, 3, 3, 3, 3, 3, 3, 3, 3, 3, 3, 3, 3, 3, 3, 3, 3, 3, 3, 3, 3, 3, 3, 3, 3, 3, 3, 3, 3, 3, 3, 3, 3, 3, 3, 3, 3, 3, 3, 3, 3, 3, 3]
            int[] faceVertexIndices = [0, 1, 2, 0, 2, 3, 0, 3, 4, 0, 4, 5, 0, 5, 6, 0, 6, 7, 0, 7, 8, 0, 8, 9, 0, 9, 10, 0, 10, 11, 0, 11, 12, 0, 12, 13, 0, 13, 14, 0, 14, 15, 0, 15, 16, 0, 16, 17, 0, 17, 18, 0, 18, 19, 0, 19, 20, 0, 20, 21, 0, 21, 22, 0, 22, 23, 0, 23, 24, 0, 24, 25, 0, 25, 26, 0, 26, 27, 0, 27, 28, 0, 28, 29, 0, 29, 30, 0, 30, 31, 0, 31, 32, 0, 32, 1, 1, 2, 34, 1, 34, 33, 2, 3, 35, 2, 35, 34, 3, 4, 36, 3, 36, 35, 4, 5, 37, 4, 37, 36, 5, 6, 38, 5, 38, 37, 6, 7, 39, 6, 39, 38, 7, 8, 40, 7, 40, 39, 8, 9, 41, 8, 41, 40, 9, 10, 42, 9, 42, 41, 10, 11, 43, 10, 43, 42, 11, 12, 44, 11, 44, 43, 12, 13, 45, 12, 45, 44, 13, 14, 46, 13, 46, 45, 14, 15, 47, 14, 47, 46, 15, 16, 48, 15, 48, 47, 16, 17, 49, 16, 49, 48, 17, 18, 50, 17, 50, 49, 18, 19, 51, 18, 51, 50, 19, 20, 52, 19, 52, 51, 20, 21, 53, 20, 53, 52, 21, 22, 54, 21, 54, 53, 22, 23, 55, 22, 55, 54, 23, 24, 56, 23, 56, 55, 24, 25, 57, 24, 57, 56, 25, 26, 58, 25, 58, 57, 26, 27, 59, 26, 59, 58, 27, 28, 60, 27, 60, 59, 28, 29, 61, 28, 61, 60, 29, 30, 62, 29, 62, 61, 30, 31, 63, 30, 63, 62, 31, 32, 64, 31, 64, 63, 32, 1, 33, 32, 33, 64, 33, 34, 66, 33, 66, 65, 34, 35, 67, 34, 67, 66, 35, 36, 68, 35, 68, 67, 36, 37, 69, 36, 69, 68, 37, 38, 70, 37, 70, 69, 38, 39, 71, 38, 71, 70, 39, 40, 72, 39, 72, 71, 40, 41, 73, 40, 73, 72, 41, 42, 74, 41, 74, 73, 42, 43, 75, 42, 75, 74, 43, 44, 76, 43, 76, 75, 44, 45, 77, 44, 77, 76, 45, 46, 78, 45, 78, 77, 46, 47, 79, 46, 79, 78, 47, 48, 80, 47, 80, 79, 48, 49, 81, 48, 81, 80, 49, 50, 82, 49, 82, 81, 50, 51, 83, 50, 83, 82, 51, 52, 84, 51, 84, 83, 52, 53, 85, 52, 85, 84, 53, 54, 86, 53, 86, 85, 54, 55, 87, 54, 87, 86, 55, 56, 88, 55, 88, 87, 56, 57, 89, 56, 89, 88, 57, 58, 90, 57, 90, 89, 58, 59, 91, 58, 91, 90, 59, 60, 92, 59, 92, 91, 60, 61, 93, 60, 93, 92, 61, 62, 94, 61, 94, 93, 62, 63, 95, 62, 95, 94, 63, 64, 96, 63, 96, 95, 64, 33, 65, 64, 65, 96, 65, 66, 98, 65, 98, 97, 66, 67, 99, 66, 99, 98, 67, 68, 100, 67, 100, 99, 68, 69, 101, 68, 101, 100, 69, 70, 102, 69, 102, 101, 70, 71, 103, 70, 103, 102, 71, 72, 104, 71, 104, 103, 72, 73, 105, 72, 105, 104, 73, 74, 106, 73, 106, 105, 74, 75, 107, 74, 107, 106, 75, 76, 108, 75, 108, 107, 76, 77, 109, 76, 109, 108, 77, 78, 110, 77, 110, 109, 78, 79, 111, 78, 111, 110, 79, 80, 112, 79, 112, 111, 80, 81, 113, 80, 113, 112, 81, 82, 114, 81, 114, 113, 82, 83, 115, 82, 115, 114, 83, 84, 116, 83, 116, 115, 84, 85, 117, 84, 117, 116, 85, 86, 118, 85, 118, 117, 86, 87, 119, 86, 119, 118, 87, 88, 120, 87, 120, 119, 88, 89, 121, 88, 121, 120, 89, 90, 122, 89, 122, 121, 90, 91, 123, 90, 123, 122, 91, 92, 124, 91, 124, 123, 92, 93, 125, 92, 125, 124, 93, 94, 126, 93, 126, 125, 94, 95, 127, 94, 127, 126, 95, 96, 128, 95, 128, 127, 96, 65, 97, 96, 97, 128, 97, 98, 130, 97, 130, 129, 98, 99, 131, 98, 131, 130, 99, 100, 132, 99, 132, 131, 100, 101, 133, 100, 133, 132, 101, 102, 134, 101, 134, 133, 102, 103, 135, 102, 135, 134, 103, 104, 136, 103, 136, 135, 104, 105, 137, 104, 137, 136, 105, 106, 138, 105, 138, 137, 106, 107, 139, 106, 139, 138, 107, 108, 140, 107, 140, 139, 108, 109, 141, 108, 141, 140, 109, 110, 142, 109, 142, 141, 110, 111, 143, 110, 143, 142, 111, 112, 144, 111, 144, 143, 112, 113, 145, 112, 145, 144, 113, 114, 146, 113, 146, 145, 114, 115, 147, 114, 147, 146, 115, 116, 148, 115, 148, 147, 116, 117, 149, 116, 149, 148, 117, 118, 150, 117, 150, 149, 118, 119, 151, 118, 151, 150, 119, 120, 152, 119, 152, 151, 120, 121, 153, 120, 153, 152, 121, 122, 154, 121, 154, 153, 122, 123, 155, 122, 155, 154, 123, 124, 156, 123, 156, 155, 124, 125, 157, 124, 157, 156, 125, 126, 158, 125, 158, 157, 126, 127, 159, 126, 159, 158, 127, 128, 160, 127, 160, 159, 128, 97, 129, 128, 129, 160, 129, 130, 162, 129, 162, 161, 130, 131, 163, 130, 163, 162, 131, 132, 164, 131, 164, 163, 132, 133, 165, 132, 165, 164, 133, 134, 166, 133, 166, 165, 134, 135, 167, 134, 167, 166, 135, 136, 168, 135, 168, 167, 136, 137, 169, 136, 169, 168, 137, 138, 170, 137, 170, 169, 138, 139, 171, 138, 171, 170, 139, 140, 172, 139, 172, 171, 140, 141, 173, 140, 173, 172, 141, 142, 174, 141, 174, 173, 142, 143, 175, 142, 175, 174, 143, 144, 176, 143, 176, 175, 144, 145, 177, 144, 177, 176, 145, 146, 178, 145, 178, 177, 146, 147, 179, 146, 179, 178, 147, 148, 180, 147, 180, 179, 148, 149, 181, 148, 181, 180, 149, 150, 182, 149, 182, 181, 150, 151, 183, 150, 183, 182, 151, 152, 184, 151, 184, 183, 152, 153, 185, 152, 185, 184, 153, 154, 186, 153, 186, 185, 154, 155, 187, 154, 187, 186, 155, 156, 188, 155, 188, 187, 156, 157, 189, 156, 189, 188, 157, 158, 190, 157, 190, 189, 158, 159, 191, 158, 191, 190, 159, 160, 192, 159, 192, 191, 160, 129, 161, 160, 161, 192, 161, 162, 194, 161, 194, 193, 162, 163, 195, 162, 195, 194, 163, 164, 196, 163, 196, 195, 164, 165, 197, 164, 197, 196, 165, 166, 198, 165, 198, 197, 166, 167, 199, 166, 199, 198, 167, 168, 200, 167, 200, 199, 168, 169, 201, 168, 201, 200, 169, 170, 202, 169, 202, 201, 170, 171, 203, 170, 203, 202, 171, 172, 204, 171, 204, 203, 172, 173, 205, 172, 205, 204, 173, 174, 206, 173, 206, 205, 174, 175, 207, 174, 207, 206, 175, 176, 208, 175, 208, 207, 176, 177, 209, 176, 209, 208, 177, 178, 210, 177, 210, 209, 178, 179, 211, 178, 211, 210, 179, 180, 212, 179, 212, 211, 180, 181, 213, 180, 213, 212, 181, 182, 214, 181, 214, 213, 182, 183, 215, 182, 215, 214, 183, 184, 216, 183, 216, 215, 184, 185, 217, 184, 217, 216, 185, 186, 218, 185, 218, 217, 186, 187, 219, 186, 219, 218, 187, 188, 220, 187, 220, 219, 188, 189, 221, 188, 221, 220, 189, 190, 222, 189, 222, 221, 190, 191, 223, 190, 223, 222, 191, 192, 224, 191, 224, 223, 192, 161, 193, 192, 193, 224, 193, 194, 226, 193, 226, 225, 194, 195, 227, 194, 227, 226, 195, 196, 228, 195, 228, 227, 196, 197, 229, 196, 229, 228, 197, 198, 230, 197, 230, 229, 198, 199, 231, 198, 231, 230, 199, 200, 232, 199, 232, 231, 200, 201, 233, 200, 233, 232, 201, 202, 234, 201, 234, 233, 202, 203, 235, 202, 235, 234, 203, 204, 236, 203, 236, 235, 204, 205, 237, 204, 237, 236, 205, 206, 238, 205, 238, 237, 206, 207, 239, 206, 239, 238, 207, 208, 240, 207, 240, 239, 208, 209, 241, 208, 241, 240, 209, 210, 242, 209, 242, 241, 210, 211, 243, 210, 243, 242, 211, 212, 244, 211, 244, 243, 212, 213, 245, 212, 245, 244, 213, 214, 246, 213, 246, 245, 214, 215, 247, 214, 247, 246, 215, 216, 248, 215, 248, 247, 216, 217, 249, 216, 249, 248, 217, 218, 250, 217, 250, 249, 218, 219, 251, 218, 251, 250, 219, 220, 252, 219, 252, 251, 220, 221, 253, 220, 253, 252, 221, 222, 254, 221, 254, 253, 222, 223, 255, 222, 255, 254, 223, 224, 256, 223, 256, 255, 224, 193, 225, 224, 225, 256, 225, 226, 258, 225, 258, 257, 226, 227, 259, 226, 259, 258, 227, 228, 260, 227, 260, 259, 228, 229, 261, 228, 261, 260, 229, 230, 262, 229, 262, 261, 230, 231, 263, 230, 263, 262, 231, 232, 264, 231, 264, 263, 232, 233, 265, 232, 265, 264, 233, 234, 266, 233, 266, 265, 234, 235, 267, 234, 267, 266, 235, 236, 268, 235, 268, 267, 236, 237, 269, 236, 269, 268, 237, 238, 270, 237, 270, 269, 238, 239, 271, 238, 271, 270, 239, 240, 272, 239, 272, 271, 240, 241, 273, 240, 273, 272, 241, 242, 274, 241, 274, 273, 242, 243, 275, 242, 275, 274, 243, 244, 276, 243, 276, 275, 244, 245, 277, 244, 277, 276, 245, 246, 278, 245, 278, 277, 246, 247, 279, 246, 279, 278, 247, 248, 280, 247, 280, 279, 248, 249, 281, 248, 281, 280, 249, 250, 282, 249, 282, 281, 250, 251, 283, 250, 283, 282, 251, 252, 284, 251, 284, 283, 252, 253, 285, 252, 285, 284, 253, 254, 286, 253, 286, 285, 254, 255, 287, 254, 287, 286, 255, 256, 288, 255, 288, 287, 256, 225, 257, 256, 257, 288, 257, 258, 290, 257, 290, 289, 258, 259, 291, 258, 291, 290, 259, 260, 292, 259, 292, 291, 260, 261, 293, 260, 293, 292, 261, 262, 294, 261, 294, 293, 262, 263, 295, 262, 295, 294, 263, 264, 296, 263, 296, 295, 264, 265, 297, 264, 297, 296, 265, 266, 298, 265, 298, 297, 266, 267, 299, 266, 299, 298, 267, 268, 300, 267, 300, 299, 268, 269, 301, 268, 301, 300, 269, 270, 302, 269, 302, 301, 270, 271, 303, 270, 303, 302, 271, 272, 304, 271, 304, 303, 272, 273, 305, 272, 305, 304, 273, 274, 306, 273, 306, 305, 274, 275, 307, 274, 307, 306, 275, 276, 308, 275, 308, 307, 276, 277, 309, 276, 309, 308, 277, 278, 310, 277, 310, 309, 278, 279, 311, 278, 311, 310, 279, 280, 312, 279, 312, 311, 280, 281, 313, 280, 313, 312, 281, 282, 314, 281, 314, 313, 282, 283, 315, 282, 315, 314, 283, 284, 316, 283, 316, 315, 284, 285, 317, 284, 317, 316, 285, 286, 318, 285, 318, 317, 286, 287, 319, 286, 319, 318, 287, 288, 320, 287, 320, 319, 288, 257, 289, 288, 289, 320, 289, 290, 322, 289, 322, 321, 290, 291, 323, 290, 323, 322, 291, 292, 324, 291, 324, 323, 292, 293, 325, 292, 325, 324, 293, 294, 326, 293, 326, 325, 294, 295, 327, 294, 327, 326, 295, 296, 328, 295, 328, 327, 296, 297, 329, 296, 329, 328, 297, 298, 330, 297, 330, 329, 298, 299, 331, 298, 331, 330, 299, 300, 332, 299, 332, 331, 300, 301, 333, 300, 333, 332, 301, 302, 334, 301, 334, 333, 302, 303, 335, 302, 335, 334, 303, 304, 336, 303, 336, 335, 304, 305, 337, 304, 337, 336, 305, 306, 338, 305, 338, 337, 306, 307, 339, 306, 339, 338, 307, 308, 340, 307, 340, 339, 308, 309, 341, 308, 341, 340, 309, 310, 342, 309, 342, 341, 310, 311, 343, 310, 343, 342, 311, 312, 344, 311, 344, 343, 312, 313, 345, 312, 345, 344, 313, 314, 346, 313, 346, 345, 314, 315, 347, 314, 347, 346, 315, 316, 348, 315, 348, 347, 316, 317, 349, 316, 349, 348, 317, 318, 350, 317, 350, 349, 318, 319, 351, 318, 351, 350, 319, 320, 352, 319, 352, 351, 320, 289, 321, 320, 321, 352, 321, 322, 354, 321, 354, 353, 322, 323, 355, 322, 355, 354, 323, 324, 356, 323, 356, 355, 324, 325, 357, 324, 357, 356, 325, 326, 358, 325, 358, 357, 326, 327, 359, 326, 359, 358, 327, 328, 360, 327, 360, 359, 328, 329, 361, 328, 361, 360, 329, 330, 362, 329, 362, 361, 330, 331, 363, 330, 363, 362, 331, 332, 364, 331, 364, 363, 332, 333, 365, 332, 365, 364, 333, 334, 366, 333, 366, 365, 334, 335, 367, 334, 367, 366, 335, 336, 368, 335, 368, 367, 336, 337, 369, 336, 369, 368, 337, 338, 370, 337, 370, 369, 338, 339, 371, 338, 371, 370, 339, 340, 372, 339, 372, 371, 340, 341, 373, 340, 373, 372, 341, 342, 374, 341, 374, 373, 342, 343, 375, 342, 375, 374, 343, 344, 376, 343, 376, 375, 344, 345, 377, 344, 377, 376, 345, 346, 378, 345, 378, 377, 346, 347, 379, 346, 379, 378, 347, 348, 380, 347, 380, 379, 348, 349, 381, 348, 381, 380, 349, 350, 382, 349, 382, 381, 350, 351, 383, 350, 383, 382, 351, 352, 384, 351, 384, 383, 352, 321, 353, 352, 353, 384, 353, 354, 386, 353, 386, 385, 354, 355, 387, 354, 387, 386, 355, 356, 388, 355, 388, 387, 356, 357, 389, 356, 389, 388, 357, 358, 390, 357, 390, 389, 358, 359, 391, 358, 391, 390, 359, 360, 392, 359, 392, 391, 360, 361, 393, 360, 393, 392, 361, 362, 394, 361, 394, 393, 362, 363, 395, 362, 395, 394, 363, 364, 396, 363, 396, 395, 364, 365, 397, 364, 397, 396, 365, 366, 398, 365, 398, 397, 366, 367, 399, 366, 399, 398, 367, 368, 400, 367, 400, 399, 368, 369, 401, 368, 401, 400, 369, 370, 402, 369, 402, 401, 370, 371, 403, 370, 403, 402, 371, 372, 404, 371, 404, 403, 372, 373, 405, 372, 405, 404, 373, 374, 406, 373, 406, 405, 374, 375, 407, 374, 407, 406, 375, 376, 408, 375, 408, 407, 376, 377, 409, 376, 409, 408, 377, 378, 410, 377, 410, 409, 378, 379, 411, 378, 411, 410, 379, 380, 412, 379, 412, 411, 380, 381, 413, 380, 413, 412, 381, 382, 414, 381, 414, 413, 382, 383, 415, 382, 415, 414, 383, 384, 416, 383, 416, 415, 384, 353, 385, 384, 385, 416, 385, 386, 418, 385, 418, 417, 386, 387, 419, 386, 419, 418, 387, 388, 420, 387, 420, 419, 388, 389, 421, 388, 421, 420, 389, 390, 422, 389, 422, 421, 390, 391, 423, 390, 423, 422, 391, 392, 424, 391, 424, 423, 392, 393, 425, 392, 425, 424, 393, 394, 426, 393, 426, 425, 394, 395, 427, 394, 427, 426, 395, 396, 428, 395, 428, 427, 396, 397, 429, 396, 429, 428, 397, 398, 430, 397, 430, 429, 398, 399, 431, 398, 431, 430, 399, 400, 432, 399, 432, 431, 400, 401, 433, 400, 433, 432, 401, 402, 434, 401, 434, 433, 402, 403, 435, 402, 435, 434, 403, 404, 436, 403, 436, 435, 404, 405, 437, 404, 437, 436, 405, 406, 438, 405, 438, 437, 406, 407, 439, 406, 439, 438, 407, 408, 440, 407, 440, 439, 408, 409, 441, 408, 441, 440, 409, 410, 442, 409, 442, 441, 410, 411, 443, 410, 443, 442, 411, 412, 444, 411, 444, 443, 412, 413, 445, 412, 445, 444, 413, 414, 446, 413, 446, 445, 414, 415, 447, 414, 447, 446, 415, 416, 448, 415, 448, 447, 416, 385, 417, 416, 417, 448, 417, 418, 450, 417, 450, 449, 418, 419, 451, 418, 451, 450, 419, 420, 452, 419, 452, 451, 420, 421, 453, 420, 453, 452, 421, 422, 454, 421, 454, 453, 422, 423, 455, 422, 455, 454, 423, 424, 456, 423, 456, 455, 424, 425, 457, 424, 457, 456, 425, 426, 458, 425, 458, 457, 426, 427, 459, 426, 459, 458, 427, 428, 460, 427, 460, 459, 428, 429, 461, 428, 461, 460, 429, 430, 462, 429, 462, 461, 430, 431, 463, 430, 463, 462, 431, 432, 464, 431, 464, 463, 432, 433, 465, 432, 465, 464, 433, 434, 466, 433, 466, 465, 434, 435, 467, 434, 467, 466, 435, 436, 468, 435, 468, 467, 436, 437, 469, 436, 469, 468, 437, 438, 470, 437, 470, 469, 438, 439, 471, 438, 471, 470, 439, 440, 472, 439, 472, 471, 440, 441, 473, 440, 473, 472, 441, 442, 474, 441, 474, 473, 442, 443, 475, 442, 475, 474, 443, 444, 476, 443, 476, 475, 444, 445, 477, 444, 477, 476, 445, 446, 478, 445, 478, 477, 446, 447, 479, 446, 479, 478, 447, 448, 480, 447, 480, 479, 448, 417, 449, 448, 449, 480, 449, 450, 481, 450, 451, 481, 451, 452, 481, 452, 453, 481, 453, 454, 481, 454, 455, 481, 455, 456, 481, 456, 457, 481, 457, 458, 481, 458, 459, 481, 459, 460, 481, 460, 461, 481, 461, 462, 481, 462, 463, 481, 463, 464, 481, 464, 465, 481, 465, 466, 481, 466, 467, 481, 467, 468, 481, 468, 469, 481, 469, 470, 481, 470, 471, 481, 471, 472, 481, 472, 473, 481, 473, 474, 481, 474, 475, 481, 475, 476, 481, 476, 477, 481, 477, 478, 481, 478, 479, 481, 479, 480, 481, 480, 449, 481]
            point3f[] points = [(0, 0.5, 0), (0.09754516, 0.49039263, 0), (0.09567086, 0.49039263, 0.019030116), (0.09011998, 0.49039263, 0.037328918), (0.081105836, 0.49039263, 0.054193188), (0.068974845, 0.49039263, 0.068974845), (0.054193188, 0.49039263, 0.081105836), (0.037328918, 0.49039263, 0.09011998), (0.019030116, 0.49039263, 0.09567086), (5.9729186e-18, 0.49039263, 0.09754516), (-0.019030116, 0.49039263, 0.09567086), (-0.037328918, 0.49039263, 0.09011998), (-0.054193188, 0.49039263, 0.081105836), (-0.068974845, 0.49039263, 0.068974845), (-0.081105836, 0.49039263, 0.054193188), (-0.09011998, 0.49039263, 0.037328918), (-0.09567086, 0.49039263, 0.019030116), (-0.09754516, 0.49039263, 1.1945837e-17), (-0.09567086, 0.49039263, -0.019030116), (-0.09011998, 0.49039263, -0.037328918), (-0.081105836, 0.49039263, -0.054193188), (-0.068974845, 0.49039263, -0.068974845), (-0.054193188, 0.49039263, -0.081105836), (-0.037328918, 0.49039263, -0.09011998), (-0.019030116, 0.49039263, -0.09567086), (-1.7918755e-17, 0.49039263, -0.09754516), (0.019030116, 0.49039263, -0.09567086), (0.037328918, 0.49039263, -0.09011998), (0.054193188, 0.49039263, -0.081105836), (0.068974845, 0.49039263, -0.068974845), (0.081105836, 0.49039263, -0.054193188), (0.09011998, 0.49039263, -0.037328918), (0.09567086, 0.49039263, -0.019030116), (0.19134171, 0.46193975, 0), (0.18766513, 0.46193975, 0.037328918), (0.17677669, 0.46193975, 0.07322331), (0.15909483, 0.46193975, 0.10630376), (0.13529903, 0.46193975, 0.13529903), (0.10630376, 0.46193975, 0.15909483), (0.07322331, 0.46193975, 0.17677669), (0.037328918, 0.46193975, 0.18766513), (1.1716301e-17, 0.46193975, 0.19134171), (-0.037328918, 0.46193975, 0.18766513), (-0.07322331, 0.46193975, 0.17677669), (-0.10630376, 0.46193975, 0.15909483), (-0.13529903, 0.46193975, 0.13529903), (-0.15909483, 0.46193975, 0.10630376), (-0.17677669, 0.46193975, 0.07322331), (-0.18766513, 0.46193975, 0.037328918), (-0.19134171, 0.46193975, 2.3432602e-17), (-0.18766513, 0.46193975, -0.037328918), (-0.17677669, 0.46193975, -0.07322331), (-0.15909483, 0.46193975, -0.10630376), (-0.13529903, 0.46193975, -0.13529903), (-0.10630376, 0.46193975, -0.15909483), (-0.07322331, 0.46193975, -0.17677669), (-0.037328918, 0.46193975, -0.18766513), (-3.5148903e-17, 0.46193975, -0.19134171), (0.037328918, 0.46193975, -0.18766513), (0.07322331, 0.46193975, -0.17677669), (0.10630376, 0.46193975, -0.15909483), (0.13529903, 0.46193975, -0.13529903), (0.15909483, 0.46193975, -0.10630376), (0.17677669, 0.46193975, -0.07322331), (0.18766513, 0.46193975, -0.037328918), (0.27778512, 0.4157348, 0), (0.27244756, 0.4157348, 0.054193188), (0.25664, 0.4157348, 0.10630376), (0.23096988, 0.4157348, 0.15432914), (0.19642374, 0.4157348, 0.19642374), (0.15432914, 0.4157348, 0.23096988), (0.10630376, 0.4157348, 0.25664), (0.054193188, 0.4157348, 0.27244756), (1.7009432e-17, 0.4157348, 0.27778512), (-0.054193188, 0.4157348, 0.27244756), (-0.10630376, 0.4157348, 0.25664), (-0.15432914, 0.4157348, 0.23096988), (-0.19642374, 0.4157348, 0.19642374), (-0.23096988, 0.4157348, 0.15432914), (-0.25664, 0.4157348, 0.10630376), (-0.27244756, 0.4157348, 0.054193188), (-0.27778512, 0.4157348, 3.4018865e-17), (-0.27244756, 0.4157348, -0.054193188), (-0.25664, 0.4157348, -0.10630376), (-0.23096988, 0.4157348, -0.15432914), (-0.19642374, 0.4157348, -0.19642374), (-0.15432914, 0.4157348, -0.23096988), (-0.10630376, 0.4157348, -0.25664), (-0.054193188, 0.4157348, -0.27244756), (-5.10283e-17, 0.4157348, -0.27778512), (0.054193188, 0.4157348, -0.27244756), (0.10630376, 0.4157348, -0.25664), (0.15432914, 0.4157348, -0.23096988), (0.19642374, 0.4157348, -0.19642374), (0.23096988, 0.4157348, -0.15432914), (0.25664, 0.4157348, -0.10630376), (0.27244756, 0.4157348, -0.054193188), (0.35355338, 0.35355338, 0), (0.34675997, 0.35355338, 0.068974845), (0.32664075, 0.35355338, 0.13529903), (0.2939689, 0.35355338, 0.19642374), (0.25, 0.35355338, 0.25), (0.19642374, 0.35355338, 0.2939689), (0.13529903, 0.35355338, 0.32664075), (0.068974845, 0.35355338, 0.34675997), (2.1648902e-17, 0.35355338, 0.35355338), (-0.068974845, 0.35355338, 0.34675997), (-0.13529903, 0.35355338, 0.32664075), (-0.19642374, 0.35355338, 0.2939689), (-0.25, 0.35355338, 0.25), (-0.2939689, 0.35355338, 0.19642374), (-0.32664075, 0.35355338, 0.13529903), (-0.34675997, 0.35355338, 0.068974845), (-0.35355338, 0.35355338, 4.3297803e-17), (-0.34675997, 0.35355338, -0.068974845), (-0.32664075, 0.35355338, -0.13529903), (-0.2939689, 0.35355338, -0.19642374), (-0.25, 0.35355338, -0.25), (-0.19642374, 0.35355338, -0.2939689), (-0.13529903, 0.35355338, -0.32664075), (-0.068974845, 0.35355338, -0.34675997), (-6.49467e-17, 0.35355338, -0.35355338), (0.068974845, 0.35355338, -0.34675997), (0.13529903, 0.35355338, -0.32664075), (0.19642374, 0.35355338, -0.2939689), (0.25, 0.35355338, -0.25), (0.2939689, 0.35355338, -0.19642374), (0.32664075, 0.35355338, -0.13529903), (0.34675997, 0.35355338, -0.068974845), (0.4157348, 0.27778512, 0), (0.40774658, 0.27778512, 0.081105836), (0.38408887, 0.27778512, 0.15909483), (0.34567085, 0.27778512, 0.23096988), (0.2939689, 0.27778512, 0.2939689), (0.23096988, 0.27778512, 0.34567085), (0.15909483, 0.27778512, 0.38408887), (0.081105836, 0.27778512, 0.40774658), (2.5456416e-17, 0.27778512, 0.4157348), (-0.081105836, 0.27778512, 0.40774658), (-0.15909483, 0.27778512, 0.38408887), (-0.23096988, 0.27778512, 0.34567085), (-0.2939689, 0.27778512, 0.2939689), (-0.34567085, 0.27778512, 0.23096988), (-0.38408887, 0.27778512, 0.15909483), (-0.40774658, 0.27778512, 0.081105836), (-0.4157348, 0.27778512, 5.091283e-17), (-0.40774658, 0.27778512, -0.081105836), (-0.38408887, 0.27778512, -0.15909483), (-0.34567085, 0.27778512, -0.23096988), (-0.2939689, 0.27778512, -0.2939689), (-0.23096988, 0.27778512, -0.34567085), (-0.15909483, 0.27778512, -0.38408887), (-0.081105836, 0.27778512, -0.40774658), (-7.6369245e-17, 0.27778512, -0.4157348), (0.081105836, 0.27778512, -0.40774658), (0.15909483, 0.27778512, -0.38408887), (0.23096988, 0.27778512, -0.34567085), (0.2939689, 0.27778512, -0.2939689), (0.34567085, 0.27778512, -0.23096988), (0.38408887, 0.27778512, -0.15909483), (0.40774658, 0.27778512, -0.081105836), (0.46193975, 0.19134171, 0), (0.45306373, 0.19134171, 0.09011998), (0.4267767, 0.19134171, 0.17677669), (0.38408887, 0.19134171, 0.25664), (0.32664075, 0.19134171, 0.32664075), (0.25664, 0.19134171, 0.38408887), (0.17677669, 0.19134171, 0.4267767), (0.09011998, 0.19134171, 0.45306373), (2.8285653e-17, 0.19134171, 0.46193975), (-0.09011998, 0.19134171, 0.45306373), (-0.17677669, 0.19134171, 0.4267767), (-0.25664, 0.19134171, 0.38408887), (-0.32664075, 0.19134171, 0.32664075), (-0.38408887, 0.19134171, 0.25664), (-0.4267767, 0.19134171, 0.17677669), (-0.45306373, 0.19134171, 0.09011998), (-0.46193975, 0.19134171, 5.6571306e-17), (-0.45306373, 0.19134171, -0.09011998), (-0.4267767, 0.19134171, -0.17677669), (-0.38408887, 0.19134171, -0.25664), (-0.32664075, 0.19134171, -0.32664075), (-0.25664, 0.19134171, -0.38408887), (-0.17677669, 0.19134171, -0.4267767), (-0.09011998, 0.19134171, -0.45306373), (-8.485696e-17, 0.19134171, -0.46193975), (0.09011998, 0.19134171, -0.45306373), (0.17677669, 0.19134171, -0.4267767), (0.25664, 0.19134171, -0.38408887), (0.32664075, 0.19134171, -0.32664075), (0.38408887, 0.19134171, -0.25664), (0.4267767, 0.19134171, -0.17677669), (0.45306373, 0.19134171, -0.09011998), (0.49039263, 0.09754516, 0), (0.48096988, 0.09754516, 0.09567086), (0.45306373, 0.09754516, 0.18766513), (0.40774658, 0.09754516, 0.27244756), (0.34675997, 0.09754516, 0.34675997), (0.27244756, 0.09754516, 0.40774658), (0.18766513, 0.09754516, 0.45306373), (0.09567086, 0.09754516, 0.48096988), (3.002789e-17, 0.09754516, 0.49039263), (-0.09567086, 0.09754516, 0.48096988), (-0.18766513, 0.09754516, 0.45306373), (-0.27244756, 0.09754516, 0.40774658), (-0.34675997, 0.09754516, 0.34675997), (-0.40774658, 0.09754516, 0.27244756), (-0.45306373, 0.09754516, 0.18766513), (-0.48096988, 0.09754516, 0.09567086), (-0.49039263, 0.09754516, 6.005578e-17), (-0.48096988, 0.09754516, -0.09567086), (-0.45306373, 0.09754516, -0.18766513), (-0.40774658, 0.09754516, -0.27244756), (-0.34675997, 0.09754516, -0.34675997), (-0.27244756, 0.09754516, -0.40774658), (-0.18766513, 0.09754516, -0.45306373), (-0.09567086, 0.09754516, -0.48096988), (-9.008367e-17, 0.09754516, -0.49039263), (0.09567086, 0.09754516, -0.48096988), (0.18766513, 0.09754516, -0.45306373), (0.27244756, 0.09754516, -0.40774658), (0.34675997, 0.09754516, -0.34675997), (0.40774658, 0.09754516, -0.27244756), (0.45306373, 0.09754516, -0.18766513), (0.48096988, 0.09754516, -0.09567086), (0.5, 3.061617e-17, 0), (0.49039263, 3.061617e-17, 0.09754516), (0.46193975, 3.061617e-17, 0.19134171), (0.4157348, 3.061617e-17, 0.27778512), (0.35355338, 3.061617e-17, 0.35355338), (0.27778512, 3.061617e-17, 0.4157348), (0.19134171, 3.061617e-17, 0.46193975), (0.09754516, 3.061617e-17, 0.49039263), (3.061617e-17, 3.061617e-17, 0.5), (-0.09754516, 3.061617e-17, 0.49039263), (-0.19134171, 3.061617e-17, 0.46193975), (-0.27778512, 3.061617e-17, 0.4157348), (-0.35355338, 3.061617e-17, 0.35355338), (-0.4157348, 3.061617e-17, 0.27778512), (-0.46193975, 3.061617e-17, 0.19134171), (-0.49039263, 3.061617e-17, 0.09754516), (-0.5, 3.061617e-17, 6.123234e-17), (-0.49039263, 3.061617e-17, -0.09754516), (-0.46193975, 3.061617e-17, -0.19134171), (-0.4157348, 3.061617e-17, -0.27778512), (-0.35355338, 3.061617e-17, -0.35355338), (-0.27778512, 3.061617e-17, -0.4157348), (-0.19134171, 3.061617e-17, -0.46193975), (-0.09754516, 3.061617e-17, -0.49039263), (-9.184851e-17, 3.061617e-17, -0.5), (0.09754516, 3.061617e-17, -0.49039263), (0.19134171, 3.061617e-17, -0.46193975), (0.27778512, 3.061617e-17, -0.4157348), (0.35355338, 3.061617e-17, -0.35355338), (0.4157348, 3.061617e-17, -0.27778512), (0.46193975, 3.061617e-17, -0.19134171), (0.49039263, 3.061617e-17, -0.09754516), (0.49039263, -0.09754516, 0), (0.48096988, -0.09754516, 0.09567086), (0.45306373, -0.09754516, 0.18766513), (0.40774658, -0.09754516, 0.27244756), (0.34675997, -0.09754516, 0.34675997), (0.27244756, -0.09754516, 0.40774658), (0.18766513, -0.09754516, 0.45306373), (0.09567086, -0.09754516, 0.48096988), (3.002789e-17, -0.09754516, 0.49039263), (-0.09567086, -0.09754516, 0.48096988), (-0.18766513, -0.09754516, 0.45306373), (-0.27244756, -0.09754516, 0.40774658), (-0.34675997, -0.09754516, 0.34675997), (-0.40774658, -0.09754516, 0.27244756), (-0.45306373, -0.09754516, 0.18766513), (-0.48096988, -0.09754516, 0.09567086), (-0.49039263, -0.09754516, 6.005578e-17), (-0.48096988, -0.09754516, -0.09567086), (-0.45306373, -0.09754516, -0.18766513), (-0.40774658, -0.09754516, -0.27244756), (-0.34675997, -0.09754516, -0.34675997), (-0.27244756, -0.09754516, -0.40774658), (-0.18766513, -0.09754516, -0.45306373), (-0.09567086, -0.09754516, -0.48096988), (-9.008367e-17, -0.09754516, -0.49039263), (0.09567086, -0.09754516, -0.48096988), (0.18766513, -0.09754516, -0.45306373), (0.27244756, -0.09754516, -0.40774658), (0.34675997, -0.09754516, -0.34675997), (0.40774658, -0.09754516, -0.27244756), (0.45306373, -0.09754516, -0.18766513), (0.48096988, -0.09754516, -0.09567086), (0.46193975, -0.19134171, 0), (0.45306373, -0.19134171, 0.09011998), (0.4267767, -0.19134171, 0.17677669), (0.38408887, -0.19134171, 0.25664), (0.32664075, -0.19134171, 0.32664075), (0.25664, -0.19134171, 0.38408887), (0.17677669, -0.19134171, 0.4267767), (0.09011998, -0.19134171, 0.45306373), (2.8285653e-17, -0.19134171, 0.46193975), (-0.09011998, -0.19134171, 0.45306373), (-0.17677669, -0.19134171, 0.4267767), (-0.25664, -0.19134171, 0.38408887), (-0.32664075, -0.19134171, 0.32664075), (-0.38408887, -0.19134171, 0.25664), (-0.4267767, -0.19134171, 0.17677669), (-0.45306373, -0.19134171, 0.09011998), (-0.46193975, -0.19134171, 5.6571306e-17), (-0.45306373, -0.19134171, -0.09011998), (-0.4267767, -0.19134171, -0.17677669), (-0.38408887, -0.19134171, -0.25664), (-0.32664075, -0.19134171, -0.32664075), (-0.25664, -0.19134171, -0.38408887), (-0.17677669, -0.19134171, -0.4267767), (-0.09011998, -0.19134171, -0.45306373), (-8.485696e-17, -0.19134171, -0.46193975), (0.09011998, -0.19134171, -0.45306373), (0.17677669, -0.19134171, -0.4267767), (0.25664, -0.19134171, -0.38408887), (0.32664075, -0.19134171, -0.32664075), (0.38408887, -0.19134171, -0.25664), (0.4267767, -0.19134171, -0.17677669), (0.45306373, -0.19134171, -0.09011998), (0.4157348, -0.27778512, 0), (0.40774658, -0.27778512, 0.081105836), (0.38408887, -0.27778512, 0.15909483), (0.34567085, -0.27778512, 0.23096988), (0.2939689, -0.27778512, 0.2939689), (0.23096988, -0.27778512, 0.34567085), (0.15909483, -0.27778512, 0.38408887), (0.081105836, -0.27778512, 0.40774658), (2.5456416e-17, -0.27778512, 0.4157348), (-0.081105836, -0.27778512, 0.40774658), (-0.15909483, -0.27778512, 0.38408887), (-0.23096988, -0.27778512, 0.34567085), (-0.2939689, -0.27778512, 0.2939689), (-0.34567085, -0.27778512, 0.23096988), (-0.38408887, -0.27778512, 0.15909483), (-0.40774658, -0.27778512, 0.081105836), (-0.4157348, -0.27778512, 5.091283e-17), (-0.40774658, -0.27778512, -0.081105836), (-0.38408887, -0.27778512, -0.15909483), (-0.34567085, -0.27778512, -0.23096988), (-0.2939689, -0.27778512, -0.2939689), (-0.23096988, -0.27778512, -0.34567085), (-0.15909483, -0.27778512, -0.38408887), (-0.081105836, -0.27778512, -0.40774658), (-7.6369245e-17, -0.27778512, -0.4157348), (0.081105836, -0.27778512, -0.40774658), (0.15909483, -0.27778512, -0.38408887), (0.23096988, -0.27778512, -0.34567085), (0.2939689, -0.27778512, -0.2939689), (0.34567085, -0.27778512, -0.23096988), (0.38408887, -0.27778512, -0.15909483), (0.40774658, -0.27778512, -0.081105836), (0.35355338, -0.35355338, 0), (0.34675997, -0.35355338, 0.068974845), (0.32664075, -0.35355338, 0.13529903), (0.2939689, -0.35355338, 0.19642374), (0.25, -0.35355338, 0.25), (0.19642374, -0.35355338, 0.2939689), (0.13529903, -0.35355338, 0.32664075), (0.068974845, -0.35355338, 0.34675997), (2.1648902e-17, -0.35355338, 0.35355338), (-0.068974845, -0.35355338, 0.34675997), (-0.13529903, -0.35355338, 0.32664075), (-0.19642374, -0.35355338, 0.2939689), (-0.25, -0.35355338, 0.25), (-0.2939689, -0.35355338, 0.19642374), (-0.32664075, -0.35355338, 0.13529903), (-0.34675997, -0.35355338, 0.068974845), (-0.35355338, -0.35355338, 4.3297803e-17), (-0.34675997, -0.35355338, -0.068974845), (-0.32664075, -0.35355338, -0.13529903), (-0.2939689, -0.35355338, -0.19642374), (-0.25, -0.35355338, -0.25), (-0.19642374, -0.35355338, -0.2939689), (-0.13529903, -0.35355338, -0.32664075), (-0.068974845, -0.35355338, -0.34675997), (-6.49467e-17, -0.35355338, -0.35355338), (0.068974845, -0.35355338, -0.34675997), (0.13529903, -0.35355338, -0.32664075), (0.19642374, -0.35355338, -0.2939689), (0.25, -0.35355338, -0.25), (0.2939689, -0.35355338, -0.19642374), (0.32664075, -0.35355338, -0.13529903), (0.34675997, -0.35355338, -0.068974845), (0.27778512, -0.4157348, 0), (0.27244756, -0.4157348, 0.054193188), (0.25664, -0.4157348, 0.10630376), (0.23096988, -0.4157348, 0.15432914), (0.19642374, -0.4157348, 0.19642374), (0.15432914, -0.4157348, 0.23096988), (0.10630376, -0.4157348, 0.25664), (0.054193188, -0.4157348, 0.27244756), (1.7009432e-17, -0.4157348, 0.27778512), (-0.054193188, -0.4157348, 0.27244756), (-0.10630376, -0.4157348, 0.25664), (-0.15432914, -0.4157348, 0.23096988), (-0.19642374, -0.4157348, 0.19642374), (-0.23096988, -0.4157348, 0.15432914), (-0.25664, -0.4157348, 0.10630376), (-0.27244756, -0.4157348, 0.054193188), (-0.27778512, -0.4157348, 3.4018865e-17), (-0.27244756, -0.4157348, -0.054193188), (-0.25664, -0.4157348, -0.10630376), (-0.23096988, -0.4157348, -0.15432914), (-0.19642374, -0.4157348, -0.19642374), (-0.15432914, -0.4157348, -0.23096988), (-0.10630376, -0.4157348, -0.25664), (-0.054193188, -0.4157348, -0.27244756), (-5.10283e-17, -0.4157348, -0.27778512), (0.054193188, -0.4157348, -0.27244756), (0.10630376, -0.4157348, -0.25664), (0.15432914, -0.4157348, -0.23096988), (0.19642374, -0.4157348, -0.19642374), (0.23096988, -0.4157348, -0.15432914), (0.25664, -0.4157348, -0.10630376), (0.27244756, -0.4157348, -0.054193188), (0.19134171, -0.46193975, 0), (0.18766513, -0.46193975, 0.037328918), (0.17677669, -0.46193975, 0.07322331), (0.15909483, -0.46193975, 0.10630376), (0.13529903, -0.46193975, 0.13529903), (0.10630376, -0.46193975, 0.15909483), (0.07322331, -0.46193975, 0.17677669), (0.037328918, -0.46193975, 0.18766513), (1.1716301e-17, -0.46193975, 0.19134171), (-0.037328918, -0.46193975, 0.18766513), (-0.07322331, -0.46193975, 0.17677669), (-0.10630376, -0.46193975, 0.15909483), (-0.13529903, -0.46193975, 0.13529903), (-0.15909483, -0.46193975, 0.10630376), (-0.17677669, -0.46193975, 0.07322331), (-0.18766513, -0.46193975, 0.037328918), (-0.19134171, -0.46193975, 2.3432602e-17), (-0.18766513, -0.46193975, -0.037328918), (-0.17677669, -0.46193975, -0.07322331), (-0.15909483, -0.46193975, -0.10630376), (-0.13529903, -0.46193975, -0.13529903), (-0.10630376, -0.46193975, -0.15909483), (-0.07322331, -0.46193975, -0.17677669), (-0.037328918, -0.46193975, -0.18766513), (-3.5148903e-17, -0.46193975, -0.19134171), (0.037328918, -0.46193975, -0.18766513), (0.07322331, -0.46193975, -0.17677669), (0.10630376, -0.46193975, -0.15909483), (0.13529903, -0.46193975, -0.13529903), (0.15909483, -0.46193975, -0.10630376), (0.17677669, -0.46193975, -0.07322331), (0.18766513, -0.46193975, -0.037328918), (0.09754516, -0.49039263, 0), (0.09567086, -0.49039263, 0.019030116), (0.09011998, -0.49039263, 0.037328918), (0.081105836, -0.49039263, 0.054193188), (0.068974845, -0.49039263, 0.068974845), (0.054193188, -0.49039263, 0.081105836), (0.037328918, -0.49039263, 0.09011998), (0.019030116, -0.49039263, 0.09567086), (5.9729186e-18, -0.49039263, 0.09754516), (-0.019030116, -0.49039263, 0.09567086), (-0.037328918, -0.49039263, 0.09011998), (-0.054193188, -0.49039263, 0.081105836), (-0.068974845, -0.49039263, 0.068974845), (-0.081105836, -0.49039263, 0.054193188), (-0.09011998, -0.49039263, 0.037328918), (-0.09567086, -0.49039263, 0.019030116), (-0.09754516, -0.49039263, 1.1945837e-17), (-0.09567086, -0.49039263, -0.019030116), (-0.09011998, -0.49039263, -0.037328918), (-0.081105836, -0.49039263, -0.054193188), (-0.068974845, -0.49039263, -0.068974845), (-0.054193188, -0.49039263, -0.081105836), (-0.037328918, -0.49039263, -0.09011998), (-0.019030116, -0.49039263, -0.09567086), (-1.7918755e-17, -0.49039263, -0.09754516), (0.019030116, -0.49039263, -0.09567086), (0.037328918, -0.49039263, -0.09011998), (0.054193188, -0.49039263, -0.081105836), (0.068974845, -0.49039263, -0.068974845), (0.081105836, -0.49039263, -0.054193188), (0.09011998, -0.49039263, -0.037328918), (0.09567086, -0.49039263, -0.019030116), (0, -0.5, 0)]
            uniform token subdivisionScheme = "none"
            custom float2 ui:nodegraph:node:pos = (-0.005490388, 0.73267204)
        }
    }

    def RigExecRoot "RigRoot"
    {
        float2 ui:nodegraph:node:pos = (0.34076184, 0.12933296)

        def Scope "Movers"
        {
            float2 ui:nodegraph:node:pos = (0.1548376, 0.21615222)

            def RigExecAimConstraint "RigExecAimConstraint1" (
                apiSchemas = ["RigExecMoverAPI"]
            )
            {
                uniform token rigExec:aimAxis = "z"
                rel rigExec:aimTarget = </World/Geom/pivot/Plane1>
                rel rigExec:moves = </World/Geom/Sphere.points>
                float2 ui:nodegraph:node:pos = (-1.4816225, -0.7063041)
            }
        }

        def Scope "Weights"
        {
            float2 ui:nodegraph:node:pos = (0.2457521, -0.038572196)
        }
    }
}

