#usda 1.0
(
    doc = "RigExec rotation-constraint diagnostic stage."
    endTimeCode = 100
    startTimeCode = 1
    timeCodesPerSecond = 24
)

def Xform "World"
{
    custom float2 ui:nodegraph:node:pos = (0, 0)

    def Scope "Geom"
    {
        float2 ui:nodegraph:node:pos = (0.26377118, 0.14980921)

        def Mesh "Cylinder"
        {
            uniform bool doubleSided = 0
            float3[] extent = [(-0.5, -1, -0.5), (0.5, 1, 0.5)]
            int[] faceVertexCounts = [4, 4, 4, 4, 4, 4, 4, 4, 4, 4, 4, 4, 4, 4, 4, 4, 4, 4, 4, 4, 4, 4, 4, 4, 4, 4, 4, 4, 4, 4, 4, 4, 3, 3, 3, 3, 3, 3, 3, 3, 3, 3, 3, 3, 3, 3, 3, 3, 3, 3, 3, 3, 3, 3, 3, 3, 3, 3, 3, 3, 3, 3, 3, 3, 3, 3, 3, 3, 3, 3, 3, 3, 3, 3, 3, 3, 3, 3, 3, 3, 3, 3, 3, 3, 3, 3, 3, 3, 3, 3, 3, 3, 3, 3, 3, 3]
            int[] faceVertexIndices = [0, 1, 33, 32, 1, 2, 34, 33, 2, 3, 35, 34, 3, 4, 36, 35, 4, 5, 37, 36, 5, 6, 38, 37, 6, 7, 39, 38, 7, 8, 40, 39, 8, 9, 41, 40, 9, 10, 42, 41, 10, 11, 43, 42, 11, 12, 44, 43, 12, 13, 45, 44, 13, 14, 46, 45, 14, 15, 47, 46, 15, 16, 48, 47, 16, 17, 49, 48, 17, 18, 50, 49, 18, 19, 51, 50, 19, 20, 52, 51, 20, 21, 53, 52, 21, 22, 54, 53, 22, 23, 55, 54, 23, 24, 56, 55, 24, 25, 57, 56, 25, 26, 58, 57, 26, 27, 59, 58, 27, 28, 60, 59, 28, 29, 61, 60, 29, 30, 62, 61, 30, 31, 63, 62, 31, 0, 32, 63, 64, 1, 0, 64, 2, 1, 64, 3, 2, 64, 4, 3, 64, 5, 4, 64, 6, 5, 64, 7, 6, 64, 8, 7, 64, 9, 8, 64, 10, 9, 64, 11, 10, 64, 12, 11, 64, 13, 12, 64, 14, 13, 64, 15, 14, 64, 16, 15, 64, 17, 16, 64, 18, 17, 64, 19, 18, 64, 20, 19, 64, 21, 20, 64, 22, 21, 64, 23, 22, 64, 24, 23, 64, 25, 24, 64, 26, 25, 64, 27, 26, 64, 28, 27, 64, 29, 28, 64, 30, 29, 64, 31, 30, 64, 0, 31, 65, 32, 33, 65, 33, 34, 65, 34, 35, 65, 35, 36, 65, 36, 37, 65, 37, 38, 65, 38, 39, 65, 39, 40, 65, 40, 41, 65, 41, 42, 65, 42, 43, 65, 43, 44, 65, 44, 45, 65, 45, 46, 65, 46, 47, 65, 47, 48, 65, 48, 49, 65, 49, 50, 65, 50, 51, 65, 51, 52, 65, 52, 53, 65, 53, 54, 65, 54, 55, 65, 55, 56, 65, 56, 57, 65, 57, 58, 65, 58, 59, 65, 59, 60, 65, 60, 61, 65, 61, 62, 65, 62, 63, 65, 63, 32]
            point3f[] points = [(0.5, 1, 0), (0.49039263, 1, 0.09754516), (0.46193975, 1, 0.19134171), (0.4157348, 1, 0.27778512), (0.35355338, 1, 0.35355338), (0.27778512, 1, 0.4157348), (0.19134171, 1, 0.46193975), (0.09754516, 1, 0.49039263), (3.061617e-17, 1, 0.5), (-0.09754516, 1, 0.49039263), (-0.19134171, 1, 0.46193975), (-0.27778512, 1, 0.4157348), (-0.35355338, 1, 0.35355338), (-0.4157348, 1, 0.27778512), (-0.46193975, 1, 0.19134171), (-0.49039263, 1, 0.09754516), (-0.5, 1, 6.123234e-17), (-0.49039263, 1, -0.09754516), (-0.46193975, 1, -0.19134171), (-0.4157348, 1, -0.27778512), (-0.35355338, 1, -0.35355338), (-0.27778512, 1, -0.4157348), (-0.19134171, 1, -0.46193975), (-0.09754516, 1, -0.49039263), (-9.184851e-17, 1, -0.5), (0.09754516, 1, -0.49039263), (0.19134171, 1, -0.46193975), (0.27778512, 1, -0.4157348), (0.35355338, 1, -0.35355338), (0.4157348, 1, -0.27778512), (0.46193975, 1, -0.19134171), (0.49039263, 1, -0.09754516), (0.5, -1, 0), (0.49039263, -1, 0.09754516), (0.46193975, -1, 0.19134171), (0.4157348, -1, 0.27778512), (0.35355338, -1, 0.35355338), (0.27778512, -1, 0.4157348), (0.19134171, -1, 0.46193975), (0.09754516, -1, 0.49039263), (3.061617e-17, -1, 0.5), (-0.09754516, -1, 0.49039263), (-0.19134171, -1, 0.46193975), (-0.27778512, -1, 0.4157348), (-0.35355338, -1, 0.35355338), (-0.4157348, -1, 0.27778512), (-0.46193975, -1, 0.19134171), (-0.49039263, -1, 0.09754516), (-0.5, -1, 6.123234e-17), (-0.49039263, -1, -0.09754516), (-0.46193975, -1, -0.19134171), (-0.4157348, -1, -0.27778512), (-0.35355338, -1, -0.35355338), (-0.27778512, -1, -0.4157348), (-0.19134171, -1, -0.46193975), (-0.09754516, -1, -0.49039263), (-9.184851e-17, -1, -0.5), (0.09754516, -1, -0.49039263), (0.19134171, -1, -0.46193975), (0.27778512, -1, -0.4157348), (0.35355338, -1, -0.35355338), (0.4157348, -1, -0.27778512), (0.46193975, -1, -0.19134171), (0.49039263, -1, -0.09754516), (0, 1, 0), (0, -1, 0)]
            uniform token purpose = "default"
            uniform token subdivisionScheme = "none"
            custom float2 ui:nodegraph:node:pos = (1.7862077, 0.8128005)
        }

        def Xform "Xform1"
        {
            float2 ui:nodegraph:node:pos = (0.8221936, 2.9005957)
            double xformOp:rotateY.timeSamples = {
                1: 0,
                100: 180,
            }
            uniform token[] xformOpOrder = ["xformOp:rotateY"]

            def Plane "Plane1"
            {
                float2 ui:nodegraph:node:pos = (0.686686, 0.63085884)
            }
        }
    }

    def RigExecRoot "RigRoot"
    {
        float2 ui:nodegraph:node:pos = (0.14345701, 0.22516176)

        def Scope "Movers"
        {
            float2 ui:nodegraph:node:pos = (0.5429628, 0.23110482)

            def RigExecRotationConstraint "RigExecRotationConstraint1" (
                apiSchemas = ["RigExecMoverAPI"]
            )
            {
                rel rigExec:moves = </World/Geom/Cylinder>
                rel rigExec:sources = </World/Geom/Xform1>
                float2 ui:nodegraph:node:pos = (-0.0051882463, 0.056038413)
            }
        }

        def Scope "Weights"
        {
            float2 ui:nodegraph:node:pos = (0.5617088, 0.30671653)
        }

        def Scope "Scope2"
        {
            float2 ui:nodegraph:node:pos = (0.82528615, 0.15399683)
        }
    }
}
